<svg version="1.1" xmlns="http://www.w3.org/2000/svg" xmlns:xlink="http://www.w3.org/1999/xlink" x="0px" y="0px" width="645.658px" height="549.205px" viewBox="0 0 645.658 549.205" enable-background="new 0 0 645.658 549.205" xml:space="preserve">
										<path display="none" fill="#FFFFFF" d="M421.514,128.894c-34.45-42.124-62.236-45.839-79.817-55.882c-12.579-7.194-24.185-19.851-38.944-37.495c-0.989,9.542-2.011,19.048-8.236,26.071c-12.238,13.828-28.856,22.325-42.405,29.014c-34.459,16.988-74.1,56.559-74.1,119.804c0,30.629,11.793,63.587,34.063,88.987c23.675,27.025,59.117,45.527,101.217,45.32c37.623-0.185,68.518-12.491,91.729-32.575c27.165-23.496,43.538-57.988,43.538-101.732C448.558,178.178,438.964,150.264,421.514,128.894z M383.422,316.635c-16.606,13.889-61.58,21.824-82.968,4.127c-2.107-1.74-2.179-4.369-0.792-5.882c1.038-1.144,1.941-1.669,3.187-2.388c1.558-0.901,3.558-0.538,4.909,0.69c8.427,7.801,48.263,14.337,72.202-1.776c0.877-0.596,2.018-0.994,2.991-0.561c0.728,0.305,1.169,0.703,1.265,1.535C384.367,313.715,384.459,315.753,383.422,316.635z M327.43,295.598c0.058-1.997,0.611-3.248,2.036-4.653c8.192-8.178,16.909-13.016,26.696-12.782c15.627,0.398,16.294,4.078,20.845,13.229c0.906,1.863,0.377,3.461-0.217,4.405c-0.324,0.519-2.121,2.238-2.717,2.238c-1.51,0-2.061-0.547-2.672-2.075c-3.726-9.322-9.247-9.364-16.23-9.364c-10.728-0.006-15.41,5.229-21.751,10.487c-1.584,1.308-3.065,2.288-4.255,1.308C328.212,297.572,327.41,296.436,327.43,295.598zM411.265,292.208c-14.927-1.158-31.569-35.572-47.988-35.289c-21.627,0.369-53.31,36.802-88.887,36.283c-18.158-0.276-37.708-6.898-38.303-34.6c-0.493-23.076,22.007-47.061,50.588-46.379c37.98,0.895,56.69,34.167,75.685,34.287c18.618,0.135,40.507-28.987,59.313-29.435c10.014-0.249,17.751,9.435,18.496,22.898C441.294,260.188,428.469,293.545,411.265,292.208z"></path>
										<g display="none">
											<path display="inline" fill="none" d="M311.091,146.925c-22.187-3.756-42.541-0.413-59.128,15.789c-18.544,18.115-19.969,47.255-3.687,64.578c5.014,5.333,9.899,10.87,15.456,15.593c6.465,5.491,7.375,11.104,2.515,17.867c-4.634,6.057-10.199,5.023-16.009,2.099c-7.822-0.245-12.911-6.584-20.654-9.358c-1.31,9.508-12.167,19.021-3.673,27.444c13.033,12.924,30.615,18.835,48.886,13.913c34.638-9.333,44.934-51.369,19.244-76.414c-5.857-5.711-12.971-10.117-19.37-15.292c-4.635-3.75-7.814-8.416-5.853-14.717c2.102-6.75,7.561-9.108,14.066-9.516c3.022-0.188,6.494-0.942,9.036,0.188c16.423,7.31,21.082-2.399,23.608-15.685c0.321-1.686,0.887-3.385,1.653-4.92C320.546,151.742,318.684,148.209,311.091,146.925z"></path>
											<path display="inline" fill="none" d="M277.495,99.082c4.197-17.178,11.845-32.165,29.757-44.123c-26.732,0.354-50.146,27.58-52.038,58.009C262.511,106.55,274.558,111.104,277.495,99.082z"></path>
											<path display="inline" fill="none" d="M297.558,79.411c-3.813,6.044-7.846,12.264-8.106,21.403c6.296-1.833,11.561-3.268,16.762-4.911c5.581-1.762,13.112-2.152,10.962-11.092c-1.437-5.976,1.582-15.376-5.404-17.114C305.499,66.139,300.986,73.976,297.558,79.411z"></path>
											<path display="inline" fill="none" d="M324.779,63.709c0.68,7.246,1.375,12.732,1.663,18.238c0.257,4.967,2.244,7.387,7.302,5.629c3.861-1.342,9.146-1.911,5.797-8.479C336.462,73.053,333.938,66.615,324.779,63.709z"></path>
											<path display="inline" fill="#FFFFFF" d="M439.955,312.199c-10.198-67.639-20.155-135.313-29.931-203.014c-1.054-7.302-3.963-11.228-11.561-10.486c-11.813,1.154-20.791-3.477-28.004-12.676c-2.255-2.873-4.656-6.556-9.435-5.805c0.04,0.055,0.064,0.109,0.101,0.164c-7.061,0.657-12.229-0.932-15.376-9.346c-3.619-9.668-11.357-16.148-22.327-17.865c-2.84-0.443-5.927-1.808-8.082-3.688c-9.662-8.431-19.403-7.139-29.961-1.74c-19.521,9.987-31.275,26.838-37.011,46.672c-4.923,17.027-13.328,27.049-30.935,29.123c-9.311,1.095-12.685,6.997-13.806,15.924c-6.643,52.915-13.574,105.793-20.681,158.646c-1.069,7.95,0.813,11.406,9.375,12.842c31.636,5.311,63.125,11.492,94.667,17.358c21.619,4.021,43.063,7.799,64.678,11.832c-0.001,0.011-0.001,0.021-0.001,0.031c0.025-0.006,0.051-0.012,0.078-0.017c0.031,0.005,0.062,0.01,0.092,0.017c0-0.013,0.001-0.024,0.001-0.037c27.79-6.039,54.328-11.907,82.159-17.768C440.255,321.047,440.828,318.006,439.955,312.199zM311.771,67.697c6.986,1.737,3.968,11.138,5.404,17.114c2.15,8.94-5.381,9.33-10.962,11.092c-5.201,1.643-10.466,3.077-16.762,4.911c0.261-9.139,4.294-15.358,8.106-21.403C300.986,73.976,305.499,66.139,311.771,67.697zM307.252,54.959c-17.912,11.958-25.56,26.945-29.757,44.123c-2.937,12.021-14.984,7.468-22.281,13.886C257.105,82.539,280.52,55.313,307.252,54.959z M317.181,158.494c-0.767,1.536-1.333,3.234-1.653,4.92c-2.526,13.286-7.185,22.995-23.608,15.685c-2.542-1.13-6.013-0.376-9.036-0.188c-6.505,0.408-11.964,2.766-14.066,9.516c-1.961,6.301,1.218,10.967,5.853,14.717c6.399,5.175,13.513,9.582,19.37,15.292c25.69,25.044,15.394,67.081-19.244,76.414c-18.271,4.923-35.853-0.989-48.886-13.913c-8.494-8.423,2.363-17.936,3.673-27.444c7.743,2.774,12.832,9.113,20.654,9.358c5.811,2.924,11.375,3.958,16.009-2.099c4.86-6.762,3.95-12.376-2.515-17.867c-5.556-4.723-10.442-10.26-15.456-15.593c-16.283-17.322-14.858-46.463,3.687-64.578c16.587-16.202,36.941-19.545,59.128-15.789C318.684,148.209,320.546,151.742,317.181,158.494z M333.744,87.577c-5.058,1.757-7.044-0.662-7.302-5.629c-0.288-5.506-0.983-10.992-1.663-18.238c9.159,2.906,11.683,9.344,14.762,15.389C342.891,85.666,337.605,86.235,333.744,87.577z"></path>
										</g>
										<path display="none" fill="#FEFEFE" d="M443.379,316.151c-4.343-28.789-8.515-57.603-12.755-86.406c-6.143-41.727-12.258-83.458-18.49-125.17c-1.6-10.711-1.781-11.1-12.693-11.077c-10.291,0.022-19.123-2.248-25.301-11.15c-0.795-1.146-2.138-1.905-2.961-3.038c-4.364-5.985-9.763-7.441-16.448-4.093c-2.706,1.355-4.474,0.864-5.468-2.443c-1.221-4.068-3.334-7.815-5.717-11.349c-5.622-8.335-12.714-14.414-23.408-14.586c-1.985-0.031-3.114-1.076-4.328-2.392c-5.218-5.653-11.601-7.55-19.242-6.436c-15.229,2.224-26.201,10.902-35.149,22.663c-10.057,13.219-16.548,28.22-20.615,44.2c-1.255,4.932-3.479,7.318-8.369,8.532c-7.466,1.854-14.667,4.756-22.105,6.75c-5.352,1.435-7.712,4.624-8.364,9.938c-2.437,19.841-5.071,39.656-7.621,59.482c-4.858,37.779-9.61,75.572-14.699,113.319c-0.576,4.271,0.58,5.313,4.385,6.018c44.864,8.312,89.701,16.767,134.547,25.177c10.669,2.002,21.345,3.976,32.133,5.984c0.515-0.08,1.142-0.146,1.754-0.278c29.356-6.405,58.704-12.858,88.082-19.159C443.481,320.005,443.79,318.882,443.379,316.151z M314.287,63.957c1.635,6.584,2.177,13.294,2.251,20.062c0.021,1.905-0.291,3.196-2.465,3.847c-8.83,2.639-17.603,5.462-27.343,8.515c4.086-14.359,9.54-26.639,21.546-34.818C312.541,58.657,313.029,58.893,314.287,63.957z M273.532,62.356c6.259-7.206,13.753-12.433,23.409-13.946c2.759-0.432,5.593-0.95,8.583,1.488c-17.971,10.519-25.459,27.314-29.819,46.027c-0.684,2.931-1.719,4.651-4.829,5.421c-5.026,1.243-9.931,2.98-14.872,4.554c-1.506,0.479-2.964,1.12-4.631,0.318C256.485,90.448,262.457,75.109,273.532,62.356z M318.267,149.187c-3.27,9.016-6.314,18.116-9.204,27.262c-0.907,2.87-1.997,3.282-4.703,2.143c-8.426-3.547-17.171-5.148-26.281-3.123c-5.651,1.257-9.622,4.39-11.185,10.225c-1.551,5.795,1.417,9.81,5.379,13.158c6.731,5.686,13.939,10.819,20.542,16.642c22.079,19.465,15.214,51.954,2.459,65.799c-7.413,8.047-16.614,12.523-27.389,13.172c-16.907,1.019-31.971-3.976-44.927-15.07c-2.251-1.928-3.178-3.778-2.121-6.862c2.446-7.133,4.502-14.401,6.905-22.224c3.025,2.047,5.59,3.839,8.212,5.545c5.32,3.465,10.99,6.142,17.301,7.225c10.22,1.755,17.265-6.166,14.356-16.115c-1.044-3.57-3.053-6.578-5.761-9.056c-3.483-3.186-7.006-6.346-10.69-9.293c-16.308-13.049-19.254-29.822-13.463-48.839c6.671-21.91,25.899-36.465,50.05-38.198c9.462-0.679,18.853-0.614,28.014,2.553C318.639,145.126,319.354,146.188,318.267,149.187z M338.84,80.138c-3.895,1.096-7.761,2.299-12.068,3.587c0.031-9.034-0.627-17.438-3.346-26.193c3.603,0.27,5.806,1.853,7.805,3.761c4.565,4.356,6.986,9.975,9.183,15.732C341.075,78.757,340.608,79.64,338.84,80.138z"></path>
										<g>
											<circle fill="#9DB732" cx="312.515" cy="195.503" r="195.503"></circle>
											<g>
												<path fill-rule="evenodd" clip-rule="evenodd" fill="#FFFFFF" d="M312.641,156.255c24.131,0,48.266,0.036,72.4-0.055c2.476-0.01,3.327,0.477,3.319,3.175c-0.102,34.976-0.16,69.953-0.019,104.934c0.055,12.983-9.597,20.928-20.146,20.061c-2.527-0.211-5.096,0.114-7.619-0.075c-2.206-0.159-2.815,0.569-2.794,2.777c0.104,11.528,0.121,23.059,0.017,34.587c-0.082,9.63-7.469,17.097-16.768,17.182c-9.459,0.083-17.047-7.211-17.132-16.713c-0.106-11.527-0.109-23.058,0.023-34.584c0.031-2.528-0.517-3.381-3.191-3.275c-5.659,0.23-11.336,0.159-17,0.023c-2.076-0.052-2.63,0.6-2.616,2.64c0.09,11.332,0.067,22.663,0.036,33.999c-0.031,10.375-7.12,17.881-16.846,17.91c-9.853,0.028-17.073-7.552-17.105-18.038c-0.034-11.232-0.063-22.471,0.04-33.706c0.021-2.168-0.521-2.959-2.766-2.806c-2.822,0.194-5.663,0.055-8.497,0.043c-11.395-0.047-19.178-7.685-19.221-19.109c-0.075-20.222-0.023-40.447-0.025-60.674c0-15.144,0.049-30.291-0.056-45.433c-0.014-2.35,0.704-2.919,2.975-2.914C263.98,156.283,288.311,156.255,312.641,156.255z"></path>
												<path fill-rule="evenodd" clip-rule="evenodd" fill="#FFFFFF" d="M428.409,205.647c0,12.016,0.085,24.038-0.032,36.051c-0.069,6.948-4.576,13.199-11.159,15.372c-6.796,2.247-12.969,0.876-18.029-4.313c-3.204-3.282-4.707-7.372-4.709-11.964c-0.013-23.447-0.066-46.897,0.026-70.344c0.037-9.749,7.605-17.123,17.146-17.066c9.413,0.054,16.683,7.381,16.754,17.092c0.083,11.723,0.016,23.447,0.016,35.172C428.42,205.647,428.414,205.647,428.409,205.647z"></path>
												<path fill-rule="evenodd" clip-rule="evenodd" fill="#FFFFFF" d="M196.596,205.616c0-11.431-0.024-22.862,0.007-34.293c0.028-10.431,7.045-17.893,16.796-17.942c9.869-0.047,17.135,7.507,17.148,17.976c0.034,23.156,0.048,46.309-0.017,69.465c-0.023,8.085-5.163,14.699-12.663,16.71c-7.424,1.99-15.137-1.27-19.074-8.057c-1.614-2.779-2.219-5.782-2.209-8.981C196.619,228.869,196.599,217.242,196.596,205.616z"></path>
												<path fill="#FFFFFF" d="M387.978,145.812c-0.093-1.362-0.179-2.732-0.38-4.083c-3.467-22.964-16.013-39.613-35.788-51.15c-1.709-1-2.108-1.635-1.017-3.5c3.602-6.149,6.993-12.427,10.398-18.689c1.113-2.055,0.462-3.867-1.33-4.142c-1.727-0.268-2.4,0.986-3.077,2.199c-3.513,6.322-7.058,12.618-10.493,18.976c-0.752,1.391-1.372,1.659-2.903,1.047c-20.532-8.21-41.11-8.232-61.646-0.038c-1.71,0.683-2.303,0.292-3.1-1.175c-3.376-6.279-6.888-12.485-10.351-18.717c-0.843-1.528-1.824-3.104-3.839-2.01c-1.985,1.085-1.283,2.732-0.411,4.292c3.374,6.056,6.653,12.17,10.122,18.172c0.981,1.692,1.026,2.432-0.855,3.538c-21.65,12.729-34.539,31.106-36.43,56.626c-0.208,2.777,0.477,3.24,3.008,3.228c24.139-0.081,48.279-0.045,72.424-0.047c23.749,0,47.499,0,71.25,0C388.269,150.338,388.278,150.338,387.978,145.812zM277.71,122.436c-3.538,0.057-6.417-2.706-6.455-6.189c-0.036-3.497,2.792-6.311,6.337-6.308c3.417,0.005,6.231,2.685,6.336,6.036C284.029,119.419,281.186,122.376,277.71,122.436z M347.391,122.436c-3.481-0.021-6.346-2.927-6.297-6.386c0.051-3.332,2.863-6.074,6.261-6.112c3.558-0.038,6.4,2.725,6.412,6.23C353.778,119.642,350.916,122.455,347.391,122.436z"></path>
											</g>
											<path fill="#DDE7ED" d="M312.441,480.62c-5.076-0.087-10.119-0.845-14.996-2.255c-13.909-3.793-31.699-8.987-31.875-9.036c-0.52-0.154-0.815-0.699-0.662-1.219c0.153-0.516,0.693-0.813,1.211-0.663c0.176,0.049,17.946,5.233,31.846,9.026c12.574,3.431,22.238,2.833,28.738-1.764c5.684-4.038,8.928-11.115,9.645-21.044c0.871-12.154,3.018-20.143,6.959-25.905c4.342-6.342,11.146-10.36,21.406-12.635c27.561-6.106,94.967-22.671,144.18-34.756c22.221-5.459,39.766-9.802,48.164-11.762c32.602-7.753,54.547,3.352,58.594,17.73c2.754,9.802-3.498,18.701-15.928,22.77c-6.301,2.058-63.16,17.123-65.582,17.76c-0.529,0.106-1.047-0.238-1.152-0.769c-0.098-0.486,0.184-0.968,0.654-1.123c0.588-0.156,59.221-15.683,65.473-17.73c11.518-3.764,17.133-11.576,14.654-20.378c-1.883-6.675-8.096-12.418-17.055-15.751c-7.469-2.783-20.338-5.155-39.207-0.656c-8.398,1.96-25.943,6.312-48.154,11.762c-49.223,12.095-116.639,28.649-144.229,34.766c-18.389,4.078-25.162,13.35-26.838,36.756c-0.754,10.547-4.273,18.113-10.467,22.544C323.771,479.179,318.615,480.62,312.441,480.62L312.441,480.62z"></path>
											<ellipse opacity="0.2" cx="157.088" cy="193.348" rx="4.244" ry="6.459"></ellipse>
											<path fill="#E08500" d="M156.755,196.121h-9.753l1.235-2.764l-1.235-2.793h9.753V196.121L156.755,196.121z"></path>
											<ellipse fill="#B26500" cx="147.002" cy="193.346" rx="1.833" ry="2.784"></ellipse>
											<ellipse fill="#E08500" cx="156.804" cy="193.346" rx="1.833" ry="2.784"></ellipse>
											<ellipse opacity="0.2" cx="251.232" cy="208.06" rx="4.283" ry="6.518"></ellipse>
											<path fill="#DDE7ED" d="M21.962,429.543c-1.098,0-2.187,0-3.283-0.078c-9.164-0.451-15.908-3.646-18.035-8.547c-1.26-2.996-0.638-6.453,1.588-8.821c5.156-6.097,19.535-10.399,44.411-4.225c5.567,1.382,11.193,2.94,17.172,4.577c2.976-2.48,5.745-5.197,8.282-8.125c16.771-19.3,33.6-58.81,18.623-137.408c-5.725-29.934,2.49-47.586,10.38-57.133c9.292-11.038,30.975-17.42,45.403-17.446c0.541,0,0.979,0.438,0.979,0.98s-0.438,0.98-0.979,0.98c-13.846,0.016-34.979,6.138-43.896,16.731c-7.625,9.223-15.545,26.336-9.967,55.516c15.172,79.393-1.961,119.432-19.025,139.064c-2.318,2.671-4.832,5.167-7.518,7.469c6.155,1.744,12.742,3.665,20.005,5.792c7.263,2.127,15.751,4.607,25.337,7.352c0.527,0.121,0.856,0.647,0.734,1.175c-0.121,0.527-0.646,0.856-1.175,0.735c-0.033-0.008-0.066-0.018-0.099-0.028c-9.586-2.744-17.967-5.195-25.348-7.352c-7.84-2.283-14.77-4.313-21.288-6.155C52.281,424.253,37.354,429.527,21.962,429.543zM24.766,406.873c-11.135,0-18.063,3-21.034,6.509c-1.738,1.793-2.242,4.447-1.284,6.753c1.411,3.244,6.44,6.861,16.339,7.371c15.537,0.84,30.854-3.964,43.127-13.526c-5.469-1.529-10.645-2.94-15.761-4.186c-6.985-1.835-14.166-2.819-21.387-2.931V406.873L24.766,406.873z"></path>
											<path fill="#E08500" d="M250.899,210.843h-9.753l1.235-2.764l-1.235-2.793h9.753V210.843z"></path>
											<ellipse fill="#B26500" cx="241.146" cy="208.06" rx="1.833" ry="2.783"></ellipse>
											<ellipse fill="#E08500" cx="250.938" cy="208.06" rx="1.832" ry="2.783"></ellipse>
											<ellipse opacity="0.2" cx="330.705" cy="28.267" rx="4.116" ry="6.253"></ellipse>
											<path fill="#E08500" d="M331.039,25.493h9.752l-1.244,2.764l1.244,2.793h-9.752V25.493z"></path>
											<ellipse fill="#B26500" cx="340.79" cy="28.266" rx="1.833" ry="2.783"></ellipse>
											<ellipse fill="#E08500" cx="330.99" cy="28.266" rx="1.833" ry="2.783"></ellipse>
											<path fill="#24292E" d="M367.849,454.803l136.916-33.452c3.357-0.925,5.711-3.939,5.793-7.42l3.549-98.329c0.215-5.185-4.225-9.214-9.037-8.194l-140.465,27.964c-3.615,0.861-6.141,4.126-6.068,7.842v103.896C358.537,452.186,363.095,455.999,367.849,454.803z"></path>
											<path fill="#24292E" d="M436.41,499.331l141.221-38.932c1.127-0.32,1.887-1.369,1.842-2.538v-4.539l-67.904-25.16c-0.547-0.308-1.191-0.398-1.803-0.255l-144.848,23.867v5.547c-0.063,0.899,0.332,1.77,1.049,2.313l51.664,36.423C423.083,499.904,429.976,501.106,436.41,499.331L436.41,499.331z"></path>
											<path fill="#2F363C" d="M436.41,494.538l141.221-38.932c1.336-0.369,2.119-1.752,1.75-3.087c-0.18-0.646-0.607-1.192-1.191-1.52c0,0-64.229-36.266-66.855-37.727c-1.771-0.864-3.781-1.103-5.705-0.676l-136.986,34.227c-2.596,0.617-4.201,3.222-3.584,5.818c0.271,1.143,0.949,2.147,1.908,2.827l50.664,35.746C423.076,495.08,429.968,496.299,436.41,494.538z"></path>
											<path opacity="0.15" fill="#8F979F" d="M498.199,419.664l-108.021,27.288c-0.871,0.176-1.434,1.024-1.256,1.895c0.088,0.434,0.35,0.812,0.727,1.046l34.697,23.602c0.77,0.522,1.728,0.687,2.627,0.451l109.982-28.875c0.857-0.228,1.369-1.107,1.143-1.966c-0.109-0.41-0.375-0.761-0.742-0.976l-37.734-22.19C499.199,419.668,498.691,419.57,498.199,419.664L498.199,419.664z M524.369,463.771L511.451,456c-1.117-0.67-2.455-0.861-3.715-0.529l-36.893,9.703c-0.859,0.224-1.375,1.101-1.152,1.96c0.1,0.381,0.334,0.713,0.662,0.932l12.742,8.625c0.775,0.524,1.742,0.686,2.646,0.441l38.225-10.419c0.859-0.228,1.371-1.107,1.143-1.966C525.001,464.335,524.734,463.985,524.369,463.771z"></path>
											<path fill="#444D56" d="M503.521,321.845l-2.471,81.157c-0.035,0.859-0.627,1.595-1.459,1.813l-128.127,31.757c-1.055,0.238-2.105-0.425-2.344-1.481c-0.029-0.131-0.045-0.266-0.047-0.4l0.49-86.254c0.02-0.904,0.654-1.678,1.539-1.872l130.135-26.641c1.068-0.179,2.078,0.542,2.256,1.61C503.511,321.637,503.521,321.741,503.521,321.845L503.521,321.845z"></path>
											<path fill="#24292E" d="M277.861,454.803l-136.898-33.452c-3.355-0.925-5.709-3.939-5.792-7.42l-3.548-98.329c-0.217-5.185,4.225-9.214,9.037-8.194l140.445,27.964c3.615,0.861,6.141,4.126,6.067,7.842v103.896C287.172,452.186,282.615,455.999,277.861,454.803z"></path>
											<path fill="#CBCFD4" d="M209.299,499.331L68.078,460.398c-1.11-0.321-1.864-1.353-1.833-2.509v-4.538l67.905-25.161c0.548-0.308,1.191-0.398,1.804-0.255l144.827,23.857v5.548c0.063,0.898-0.331,1.769-1.049,2.313l-51.664,36.423C222.615,499.915,215.728,501.109,209.299,499.331L209.299,499.331z"></path>
											<path fill="#F4F5F6" d="M209.299,494.538L68.078,455.605c-1.334-0.369-2.118-1.752-1.749-3.087c0.178-0.646,0.607-1.192,1.19-1.52c0,0,64.229-36.266,66.856-37.727c1.77-0.864,3.781-1.103,5.704-0.676l136.986,34.227c2.597,0.616,4.202,3.222,3.585,5.818c-0.271,1.143-0.95,2.147-1.909,2.826l-50.664,35.747C222.632,495.08,215.741,496.299,209.299,494.538z"></path>
											<path opacity="0.15" fill="#8F979F" d="M147.51,419.664l108.032,27.278c0.87,0.176,1.433,1.024,1.256,1.895c-0.088,0.434-0.351,0.812-0.727,1.046l-34.697,23.602c-0.77,0.522-1.727,0.687-2.627,0.451L108.784,445.03c-0.858-0.227-1.369-1.106-1.143-1.965c0.108-0.41,0.375-0.761,0.74-0.976l37.736-22.19C146.537,419.651,147.033,419.567,147.51,419.664z M122.938,463.486l12.919-7.773c1.115-0.669,2.455-0.86,3.715-0.528l36.893,9.703c0.859,0.224,1.375,1.101,1.151,1.96c-0.099,0.381-0.335,0.712-0.661,0.932l-12.742,8.625c-0.776,0.524-1.742,0.686-2.646,0.441l-38.227-10.419c-0.857-0.228-1.369-1.107-1.143-1.966C122.306,464.052,122.572,463.701,122.938,463.486L122.938,463.486z"></path>
											<path fill="#444D56" d="M142.188,321.845l2.47,81.157c0.037,0.859,0.629,1.595,1.461,1.813l128.145,31.786c1.057,0.238,2.105-0.425,2.344-1.48c0.03-0.132,0.047-0.267,0.049-0.401l-0.49-86.254c-0.02-0.904-0.656-1.678-1.539-1.872l-130.125-26.699c-1.064-0.195-2.086,0.511-2.281,1.575C142.197,321.594,142.187,321.72,142.188,321.845L142.188,321.845z"></path>
											<path fill="#DDE7ED" d="M312.441,480.62c-5.076-0.087-10.119-0.845-14.996-2.255c-13.909-3.793-31.699-8.987-31.875-9.036c-0.52-0.154-0.815-0.699-0.662-1.219c0.153-0.516,0.693-0.813,1.211-0.663c0.176,0.049,17.946,5.233,31.846,9.026c12.574,3.431,22.238,2.833,28.738-1.764c5.684-4.038,8.928-11.115,9.645-21.044c0.037-0.541,0.506-0.949,1.049-0.912c0.541,0.038,0.949,0.508,0.91,1.049c-0.754,10.547-4.273,18.113-10.467,22.544C323.771,479.18,318.615,480.62,312.441,480.62L312.441,480.62z"></path>
											<path fill="#24292E" d="M510.872,404.58l3.215-88.988c0.215-5.186-4.225-9.214-9.037-8.194l-140.445,27.974c-3.615,0.861-6.141,4.126-6.068,7.842v98.015L510.872,404.58z M134.867,404.58l-3.215-88.988c-0.216-5.186,4.225-9.214,9.037-8.194l140.445,27.974c3.615,0.861,6.141,4.126,6.067,7.842v98.015L134.867,404.58z"></path>
											<path fill="#3B446B" d="M142.217,321.845l2.47,81.157c0.037,0.859,0.629,1.595,1.461,1.813l128.146,31.786c1.057,0.238,2.104-0.425,2.344-1.48c0.03-0.132,0.047-0.267,0.049-0.401l-0.49-86.254c-0.02-0.904-0.656-1.678-1.539-1.872l-130.125-26.699c-1.064-0.195-2.086,0.511-2.281,1.575C142.226,321.594,142.216,321.72,142.217,321.845L142.217,321.845z"></path>
											<path fill="#2F363C" d="M503.677,321.845l-2.469,81.157c-0.037,0.859-0.629,1.595-1.461,1.813l-128.145,31.757c-1.057,0.238-2.105-0.425-2.344-1.481c-0.029-0.131-0.047-0.266-0.049-0.4l0.49-86.254c0.02-0.904,0.656-1.678,1.539-1.872l130.135-26.641c1.066-0.189,2.084,0.521,2.273,1.587C503.667,321.621,503.677,321.733,503.677,321.845L503.677,321.845z"></path>
											<path opacity="0.15" fill="#24292E" d="M146.031,465.946c3.803-0.363,5.733-2.265,4.597-3.921c-1.96-2.773-11.351-3.979-15.35-4.421c-8.066-0.892-6.86-7.841-0.353-9.938c6.507-2.097,13.184,2.372,20.152,1.627c3.225-0.343,3.186-1.039,6.371-1.773c3.186-0.735,3.332-3.333,0.744-4.078c-3.078-0.882-14.359-3.92-14.359-3.92l-20.76-2.49c0,0-17.574,16.379-26.248,23.72c-2.343,1.961-4.832,4.332-7.243,6.724l16.574,4.568c4.185-3.255,8.821-6.46,11.124-6.861C125.524,464.466,140.679,466.457,146.031,465.946L146.031,465.946z M224.894,454.459c-6.088-6.244-18.967-5.116-21.563-3.999c-1.637,0.705-0.98,2.773,1.773,4.783c3.687,2.666,6.558,1.783,7.02,3.106c0.46,1.323,4.557,17.722,4.783,23.112c0.225,5.391-10.891-9.331-10.891-9.331s-4.4-6.058-3.92,0.833c0.323,4.303,3.783,20.505,8.223,24.063c1.685,1.259,3.522,2.297,5.47,3.088c4.393-0.119,8.651-1.534,12.242-4.067l11.644-8.214l-0.137-0.48C239.537,487.354,235.548,465.389,224.894,454.459L224.894,454.459z"></path>
											<path fill="#6D472E" d="M276.028,547.427c0,0-20.681-35.285-25.072-46.89c-4.048-10.724,0.979-16.192-4.019-32.482c-2.303-7.538-7.891-9.802-7.891-9.802s-2.322-3.627-4.705-5.009c-1.547-0.856-3.243-1.408-4.998-1.627c-1.166-1.821-2.702-3.378-4.509-4.567c-2.127-1.274-5.636-1.177-5.636-1.177l-3.46-8.615c-2.993,1.9-4.491,5.461-3.754,8.93l-10.243,0.559c0.677,3.979,7.048,6.743,12.448,7.008c0,0,3.794,13.84,4.155,15.379c0.457,3,0.674,6.031,0.647,9.066c-0.157,1.509-2.146,1.901-3.176,0.911c-1.313-1.274-2.872-6.233-5.949-9.135c-2.104-1.979-4.973-2.929-7.841-2.598c6.105,13.418,6.174,13.34,9.146,20.309c1.411,3.313,3.764,6.234,11.164,10.448c9.057,5.166,12.496,9.949,15.858,19.604c3.528,10.115,3.274,12.144,5.47,18.094C251.044,555.904,276.028,547.427,276.028,547.427L276.028,547.427z"></path>
											<path fill="#301C0E" d="M226.638,466.555c-0.154-0.003-0.291-0.101-0.344-0.245l-6.047-16.604c-0.09-0.186-0.013-0.408,0.172-0.498c0.186-0.09,0.408-0.013,0.498,0.173c0.011,0.022,0.02,0.046,0.025,0.07l6.048,16.604c0.067,0.189-0.028,0.397-0.216,0.471L226.638,466.555z M233.714,463.172c-0.152,0.002-0.289-0.092-0.343-0.234l-3.343-8.303c-0.075-0.189,0.018-0.404,0.207-0.479c0.189-0.076,0.404,0.016,0.479,0.205l3.343,8.303c0.078,0.184-0.009,0.396-0.193,0.475c-0.004,0.002-0.008,0.004-0.013,0.005L233.714,463.172z M241.693,465.133c-0.148,0-0.283-0.089-0.343-0.226l-1.47-3.598c-0.076-0.187,0.014-0.399,0.2-0.475c0.187-0.076,0.398,0.014,0.476,0.2l0,0l1.471,3.598c0.078,0.185-0.01,0.397-0.193,0.476c-0.004,0.001-0.009,0.003-0.014,0.005C241.78,465.127,241.736,465.134,241.693,465.133z"></path>
											<path fill="#6D472E" d="M72.44,474.014c5.655-2.323,14.701-9.037,22.543-11.889c7.686-2.755,11.193-1.765,19.838-0.98c4.901,0.431,10.723-0.843,25.65-0.98c5.195-0.059,11.076-0.088,11.076-0.088s0.285-7.067-10.987-7.93c-5.881-0.451-7.449-0.461-10.458-1.48c-2.676-0.901-4.421-2.499-3.029-4.391c1.068-1.45,8.469-5.655,8.469-5.655s6.998,3.921,11.479,5.782c4.479,1.862,6.557-0.294,6.557-0.294c3.033,0.869,6.301,0.105,8.635-2.019l-6.654-2.94c1.055,0.409,2.136,0.753,3.234,1.029c7.479,1.901,9.408-2.177,9.408-2.177l-9.987-4.498c0,0,3.637,0.627,4.999,0.773c6.371,0.667,8.821-3.616,8.821-3.616s-23.024-6.949-26.601-6.998c-3.578-0.05-10.008,1.273-10.861,1.186c-2.146-0.216-5.115-1.686-8.213-0.98c-3.098,0.706-13.595,7.254-17.35,9.282c-13.721,7.42-70.443,28.532-70.443,28.532S52.004,482.395,72.44,474.014z"></path>
											<path fill="#301C0E" d="M137.728,439.483c-0.199,0.014-0.373-0.137-0.387-0.337c-0.01-0.139,0.061-0.271,0.182-0.34c0.783-0.529,7.723-5.155,8.547-5.479c0.822-0.324,7.891,0.892,10.037,1.273c0.199,0.035,0.334,0.227,0.299,0.427c-0.035,0.2-0.227,0.334-0.427,0.299l0,0c-4.313-0.765-9.097-1.46-9.646-1.304c-0.549,0.157-5.332,3.353-8.399,5.4C137.872,439.463,137.801,439.484,137.728,439.483L137.728,439.483z"></path>
											<path fill="#301C0E" d="M153.048,440.247c-0.049,0.011-0.099,0.011-0.146,0l-9.979-4.332c-0.188-0.081-0.272-0.298-0.191-0.485c0.082-0.187,0.299-0.271,0.485-0.19l0,0l9.978,4.332c0.191,0.063,0.295,0.267,0.232,0.457c-0.053,0.161-0.211,0.265-0.379,0.249V440.247z M149.548,444.167c-0.055,0.013-0.111,0.013-0.166,0l-10.605-5.498c-0.182-0.093-0.254-0.314-0.162-0.495c0.093-0.182,0.314-0.254,0.496-0.162l0,0l10.605,5.499c0.184,0.077,0.271,0.29,0.192,0.475c-0.06,0.144-0.204,0.232-0.36,0.221V444.167z"></path>
											<path opacity="0.2" fill="#FFFFFF" d="M227.304,424.908l-35.383-8.753v-3.921c0-1.472,1.194-2.665,2.667-2.664c0.214,0,0.428,0.025,0.636,0.077l30.051,7.439c1.191,0.293,2.029,1.36,2.029,2.587V424.908z"></path>
											<path fill="#FFFFFF" d="M213.876,410.126c0.288,2.277-1.324,4.357-3.603,4.646c-0.59,0.075-1.191,0.021-1.76-0.156c-3.186-0.908-5.486-3.68-5.793-6.979c-0.186-3.195,2.127-5.293,5.215-4.646C211.24,403.855,213.626,406.724,213.876,410.126z"></path>
											<path fill="#2F363C" d="M209.427,417.292c0.043,0.312-0.174,0.599-0.484,0.643c-0.088,0.012-0.178,0.004-0.262-0.024c-0.447-0.129-0.773-0.517-0.822-0.98c-0.045-0.311,0.172-0.599,0.483-0.642c0.088-0.013,0.177-0.004,0.261,0.024C209.051,416.441,209.376,416.828,209.427,417.292z"></path>
											<path fill="#6F42B2" d="M208.005,404.286c-2.362-0.5-4.146,1.137-3.999,3.616c0.179,2.041,1.337,3.868,3.106,4.901c0.217,0.088,0.285,0,0.275-0.147c-0.01-0.147,0-0.451-0.049-0.823c-0.615,0.051-1.196-0.291-1.451-0.853c-0.091-0.298-0.264-0.563-0.5-0.765c-0.393-0.362,0-0.265,0-0.265c0.287,0.118,0.522,0.333,0.666,0.607c0.197,0.501,0.734,0.777,1.256,0.647c0-0.207,0.089-0.403,0.244-0.539c-1.213-0.313-2.055-1.414-2.039-2.666c-0.037-0.408,0.098-0.814,0.373-1.118c-0.138-0.387-0.138-0.809,0-1.195c0,0,0.354,0,1.195,0.716c0.355-0.023,0.711,0,1.059,0.068c0.375,0.082,0.738,0.214,1.078,0.392c0.805-0.411,1.177-0.205,1.177-0.205c0.177,0.384,0.212,0.817,0.099,1.225c0.3,0.378,0.475,0.841,0.5,1.323c0.079,1.745-0.911,1.901-1.862,1.794c0.209,0.254,0.323,0.572,0.324,0.901c0,0.607,0,1.078,0.049,1.235c0.005,0.162,0.141,0.289,0.303,0.284l0,0c1.756-0.238,2.986-1.852,2.755-3.607c-0.167-2.623-1.989-4.848-4.528-5.527"></path>
											<path fill="#FFFFFF" d="M241.683,406.333l-65.836-15.868c-1.032-0.307-1.759-1.229-1.814-2.304l-1.107-44.626c0-1.059,70.375,13.34,70.385,14.457l0.295,46.852c0.043,0.815-0.584,1.513-1.4,1.556C242.028,406.409,241.851,406.387,241.683,406.333L241.683,406.333z"></path>
											<path fill="#EDEEEF" d="M199.262,396.141l-23.415-5.646c-1.032-0.306-1.759-1.229-1.814-2.304l-0.979-44.626l25.483,5.332L199.262,396.141z"></path>
											<path fill="#FFFFFF" d="M194.831,383.075l-17.221-4.058c-0.439-0.125-0.746-0.523-0.755-0.98l-0.588-25.483c-0.013-0.542,0.417-0.99,0.958-1.002c0.076-0.002,0.152,0.005,0.229,0.021l17.348,3.715c0.449,0.114,0.768,0.517,0.775,0.98l0.459,25.807c0.025,0.541-0.392,1-0.933,1.025C195.013,383.105,194.921,383.097,194.831,383.075L194.831,383.075z"></path>
											<path fill="#EDEEEF" d="M209.946,365.374l-8.272-1.813l-0.098-6.714l8.282,1.773L209.946,365.374L209.946,365.374z"></path>
											<path fill="#CDFFD5" d="M239.978,371.931l-30.032-6.557l-0.088-6.754l30.071,6.43L239.978,371.931L239.978,371.931z"></path>
											<path fill="#EDEEEF" d="M209.69,374.773l-7.93-1.804l-0.029-6.704l7.92,1.695L209.69,374.773L209.69,374.773z"></path>
											<path fill="#CDFFD5" d="M240.056,381.693l-30.365-6.92l-0.039-6.813l30.365,6.499L240.056,381.693z"></path>
											<path fill="#FFFFFF" d="M194.901,390.376l-17.202-4.116c-0.434-0.103-0.744-0.485-0.754-0.932l-0.049-2.116c-0.016-0.542,0.412-0.992,0.953-1.007c0.084-0.002,0.169,0.007,0.252,0.026l17.211,4.106c0.452,0.106,0.768,0.517,0.755,0.98v2.146c-0.028,0.541-0.489,0.956-1.029,0.929C194.992,390.392,194.946,390.386,194.901,390.376L194.901,390.376z"></path>
											<path fill="#24292E" d="M243.339,358.257l-70.306-14.702l-0.118-5.234c-0.092-0.785,0.47-1.496,1.255-1.588c0.167-0.02,0.337-0.01,0.5,0.029l66.65,13.635c1.116,0.277,1.916,1.261,1.96,2.411L243.339,358.257z"></path>
											<path fill="#79B8FF" d="M266.882,354.758l-2.439-0.52c-0.261-0.069-0.466-0.271-0.539-0.529c-0.074-0.259-0.279-0.46-0.539-0.529l-0.98-0.216c-0.253-0.06-0.506,0.096-0.566,0.349c-0.012,0.047-0.016,0.094-0.012,0.142v3.832c0.006,0.348,0.242,0.647,0.578,0.735l4.519,0.98c0.253,0.06,0.507-0.097,0.566-0.349c0.011-0.047,0.015-0.095,0.012-0.142v-3.019C267.472,355.142,267.226,354.838,266.882,354.758L266.882,354.758z"></path>
											<path opacity="0.2" fill="#FFFFFF" d="M267.991,363.845l-6.753-1.451c-0.445-0.114-0.75-0.521-0.735-0.979v-0.294c-0.025-0.329,0.221-0.617,0.55-0.643c0.063-0.005,0.125,0.001,0.186,0.015l6.753,1.451c0.448,0.11,0.759,0.519,0.745,0.979v0.295c0.026,0.329-0.219,0.617-0.548,0.644C268.122,363.867,268.055,363.861,267.991,363.845z"></path>
											<path fill="#79B8FF" d="M266.882,368.951l-2.439-0.529c-0.26-0.07-0.464-0.271-0.539-0.529c-0.076-0.258-0.28-0.458-0.539-0.529l-0.98-0.216c-0.246-0.065-0.498,0.079-0.564,0.325c-0.015,0.054-0.02,0.109-0.014,0.165v3.833c0.01,0.346,0.244,0.644,0.578,0.734l4.519,0.98c0.245,0.066,0.499-0.079,0.564-0.325c0.015-0.054,0.019-0.109,0.014-0.165v-3.02C267.464,369.329,267.221,369.033,266.882,368.951L266.882,368.951z"></path>
											<path opacity="0.2" fill="#FFFFFF" d="M267.991,378.037l-6.743-1.499c-0.445-0.115-0.75-0.522-0.735-0.98v-0.294c-0.025-0.329,0.222-0.617,0.55-0.643c0.063-0.004,0.125,0.001,0.187,0.015l6.753,1.48c0.448,0.11,0.759,0.519,0.745,0.98v0.294c0.039,0.327-0.195,0.625-0.523,0.664C268.145,378.064,268.066,378.059,267.991,378.037L267.991,378.037z"></path>
											<path fill="#EDEEEF" d="M398.104,369.451l-17.955,3.842c-0.297,0.067-0.59-0.118-0.656-0.414c-0.014-0.06-0.018-0.122-0.012-0.184c0.018-0.409,0.287-0.765,0.678-0.892l17.964-3.843c0.297-0.066,0.59,0.119,0.658,0.414c0.014,0.061,0.016,0.123,0.01,0.185C398.772,368.972,398.499,369.328,398.104,369.451L398.104,369.451z M407.622,367.412l-4.576,0.98c-0.297,0.067-0.59-0.118-0.656-0.414c-0.014-0.061-0.018-0.122-0.012-0.184c0.02-0.412,0.293-0.769,0.688-0.893l4.576-0.979c0.297-0.067,0.59,0.118,0.656,0.414c0.014,0.061,0.018,0.122,0.012,0.184C408.29,366.933,408.017,367.289,407.622,367.412zM414.455,365.952l-1.705,0.362c-0.297,0.067-0.59-0.118-0.656-0.414c-0.014-0.061-0.018-0.122-0.01-0.184c0.018-0.412,0.291-0.769,0.686-0.892l1.705-0.363c0.295-0.066,0.59,0.119,0.656,0.414c0.014,0.061,0.018,0.123,0.01,0.185C415.122,365.472,414.849,365.829,414.455,365.952z M426.531,363.374l-7.352,1.568c-0.295,0.067-0.59-0.117-0.658-0.412c-0.014-0.064-0.018-0.131-0.008-0.195c0.018-0.412,0.291-0.769,0.686-0.893l7.352-1.607c0.295-0.067,0.59,0.117,0.656,0.413c0.016,0.063,0.018,0.13,0.01,0.195C427.214,362.87,426.937,363.246,426.531,363.374z M394.302,374.852l-7.84,1.687c-0.297,0.066-0.59-0.119-0.658-0.415c-0.014-0.06-0.016-0.122-0.01-0.184c0.021-0.405,0.291-0.757,0.678-0.882l7.84-1.686c0.297-0.067,0.59,0.118,0.656,0.414c0.014,0.06,0.018,0.122,0.012,0.184C394.958,374.375,394.688,374.727,394.302,374.852zM413.925,370.655l-15.613,3.333c-0.297,0.067-0.59-0.118-0.656-0.414c-0.014-0.061-0.018-0.122-0.01-0.184c0.018-0.412,0.291-0.769,0.686-0.893l15.613-3.332c0.295-0.067,0.59,0.118,0.656,0.414c0.014,0.061,0.018,0.122,0.01,0.184C414.593,370.177,414.32,370.533,413.925,370.655z M400.585,378.085l-7.842,1.677c-0.295,0.066-0.59-0.119-0.656-0.415c-0.014-0.06-0.016-0.122-0.01-0.184c0.021-0.405,0.289-0.756,0.676-0.882l7.842-1.676c0.295-0.067,0.59,0.118,0.656,0.414c0.014,0.061,0.018,0.122,0.01,0.184C401.242,377.61,400.972,377.96,400.585,378.085z M398.244,383.163l-10.361,2.255c-0.295,0.066-0.59-0.119-0.656-0.414c-0.014-0.061-0.018-0.123-0.01-0.184c0-0.425,0.273-0.8,0.676-0.932l10.361-2.254c0.297-0.062,0.586,0.129,0.648,0.426c0.012,0.057,0.014,0.114,0.008,0.172C398.91,382.653,398.642,383.028,398.244,383.163L398.244,383.163z M400.742,391.75l-7.34,1.558c-0.297,0.062-0.588-0.129-0.65-0.426c-0.01-0.057-0.014-0.114-0.008-0.172c0.021-0.405,0.291-0.757,0.678-0.882l7.34-1.559c0.297-0.062,0.588,0.13,0.65,0.427c0.01,0.056,0.014,0.114,0.008,0.171C401.397,391.273,401.128,391.624,400.742,391.75z M396.626,397.169l-4.137,0.872c-0.297,0.062-0.588-0.129-0.648-0.426c-0.012-0.057-0.016-0.114-0.008-0.172c0.02-0.406,0.289-0.757,0.676-0.882l4.137-0.873c0.297-0.061,0.586,0.13,0.648,0.427c0.012,0.057,0.014,0.114,0.008,0.172C397.281,396.693,397.013,397.043,396.626,397.169z M405.222,395.356l-5.029,1.068c-0.297,0.062-0.586-0.129-0.648-0.426c-0.012-0.057-0.014-0.114-0.008-0.172c0.021-0.406,0.289-0.757,0.676-0.882l5.029-1.068c0.297-0.062,0.586,0.129,0.648,0.426c0.012,0.057,0.014,0.114,0.008,0.172C405.876,394.879,405.609,395.231,405.222,395.356zM418.247,392.592l-9.35,1.96c-0.297,0.062-0.588-0.129-0.647-0.426c-0.012-0.057-0.016-0.115-0.01-0.172c0.021-0.406,0.291-0.757,0.678-0.882l9.35-1.961c0.297-0.062,0.588,0.13,0.648,0.427c0.012,0.057,0.016,0.114,0.008,0.171C418.904,392.116,418.634,392.466,418.247,392.592z M414.357,379.733l-11.998,2.548c-0.297,0.062-0.586-0.129-0.648-0.426c-0.012-0.057-0.014-0.115-0.008-0.172c0.021-0.406,0.291-0.757,0.676-0.882l11.998-2.559c0.297-0.062,0.588,0.13,0.647,0.427c0.012,0.056,0.014,0.114,0.008,0.171C415.017,379.25,414.746,379.606,414.357,379.733L414.357,379.733z M391.343,389.182l-6.518,1.421c-0.393,0.079-0.688-0.265-0.668-0.695c0.018-0.434,0.316-0.804,0.736-0.912l6.449-1.343c0.299-0.051,0.582,0.15,0.633,0.449c0.01,0.053,0.01,0.105,0.004,0.159C392.011,388.679,391.746,389.063,391.343,389.182L391.343,389.182z M403.897,386.525l-8.82,1.862c-0.297,0.062-0.588-0.13-0.648-0.427c-0.012-0.056-0.016-0.114-0.01-0.171c0.021-0.406,0.291-0.757,0.678-0.883l8.82-1.862c0.297-0.061,0.588,0.13,0.648,0.427c0.012,0.057,0.016,0.114,0.01,0.172C404.554,386.048,404.285,386.4,403.897,386.525z M410.357,376.008l-5.752,1.225c-0.297,0.067-0.59-0.118-0.658-0.414c-0.014-0.061-0.016-0.122-0.01-0.184c0.023-0.408,0.297-0.76,0.688-0.882l5.752-1.226c0.297-0.067,0.59,0.118,0.658,0.414c0.014,0.061,0.016,0.122,0.01,0.184C411.021,375.534,410.747,375.887,410.357,376.008z M420.247,369.313l-2.283,0.49c-0.297,0.067-0.59-0.118-0.658-0.414c-0.012-0.06-0.016-0.122-0.01-0.184c0.02-0.412,0.293-0.769,0.688-0.892l2.283-0.49c0.295-0.067,0.59,0.118,0.656,0.414c0.014,0.061,0.018,0.122,0.01,0.184C420.915,368.833,420.64,369.19,420.247,369.313zM422.599,373.401l-7.93,1.686c-0.297,0.062-0.586-0.13-0.648-0.427c-0.012-0.056-0.014-0.114-0.008-0.171c0.02-0.412,0.293-0.769,0.688-0.892l7.928-1.696c0.297-0.062,0.588,0.13,0.65,0.427c0.01,0.056,0.014,0.114,0.008,0.171C423.271,372.915,422.997,373.276,422.599,373.401z"></path>
											<path opacity="0.9" fill="#24292E" d="M512.421,435.347c-1.656-1.117-6.02-3.44-10.43-5.694l-13.193-6.754c0,0-0.607,2.823,4.902,5.793c2.852,1.529,20.641,12.742,12.947,11.762c-8.693-1.098-22.014-8.938-22.014-8.938s-0.98,4.087,7.027,7.841c17.045,7.949,26.709,19.604,14.496,21.563c-4.352,0.696-7.313,2.215-8.615,4.155c-1.117,1.667,0.322,2.941,2.617,2.784c2.773-0.167,11.438-0.578,13.801-0.657c7.635-0.244,11.762-1.234,16.584-0.734c2.264,0.235,9.398,1.578,12.633,3.4l27.945-7.703C547.892,454.047,516.165,437.855,512.421,435.347z M454.376,491.284c4.234-3.46,6.744-11.115,8.096-14.908c1.354-3.793,5.166-7.694,4.293-8.331c-1.186-0.854-5.605-0.049-8.213,1.773c-20.133,14.124-23.848,8.214-23.848,8.214l-2.078,22.005c1.279-0.123,2.545-0.355,3.783-0.696l13.879-3.822C451.48,493.951,452.853,492.528,454.376,491.284L454.376,491.284z"></path>
											<path fill="#F2D1B3" d="M438.007,548.259c0,0-23.523-2.548-18.191-28.552c2.254-11.017,5.559-21.073,6.313-26.522c0.451-3.254-4.549-10.409-5.822-17.104c-1.176-6.225-2.656-21.877-2.186-23.229c0.441-1.961,4.656-9.802,4.656-9.802s1.607,1.52,1.371,4.9c-0.186,2.676-1.039,4.822-0.91,5.783c0.068,0.539,1.273,6.939,1.588,7.9c0.871,1.892,1.576,0.656,1.656-0.245c0.342-3.725-0.756-12.929,1.078-17.153c2.234-5.537,5.391-12.516,5.391-12.516s2.813,1.646,3.098,3.842l1.43-4.097c0,0,3.098,2.94,2.773,6.909c-0.322,3.97-0.979,6.489-0.773,8.214c0.205,1.726,0.98,10.027,1.441,11.448c0.215,0.667,0.979,0.657,1.098-0.068c0.225-2.01,1.676-12.174,1.676-12.174l3.469-11.419c2.018,1.517,3.125,3.953,2.941,6.47c-0.236,4.391-0.912,7.263-0.979,8.938c0.236,1.167,0.578,14.487,0.932,17.144c0.352,2.656,1.725,5.439,5.086,2.293c1.961-1.804,6.078-8.88,13.359-5.597c0,0-5.703,5.881-6.498,7.116c-0.793,1.234-4.566,11.478-7.252,13.546c-2.686,2.067-9.625,6.763-11.4,12.938C442.537,502.536,439.351,530.206,438.007,548.259L438.007,548.259z"></path>
											<path fill="#D3AB90" d="M433.302,458.958c-0.191,0-0.352-0.15-0.361-0.344c0-0.382-0.568-9.399-0.48-11.692c0.078-2.068,2.42-9.253,2.52-9.557c0.061-0.192,0.268-0.298,0.459-0.235c0.193,0.063,0.299,0.269,0.236,0.461l0,0c0,0.078-2.412,7.39-2.49,9.36c-0.088,2.254,0.48,11.526,0.48,11.614c0.018,0.2-0.131,0.375-0.332,0.392c-0.004,0-0.008,0.001-0.012,0.001H433.302L433.302,458.958z"></path>
											<path fill="#F2D1B3" d="M579.335,454.195c0,0-34.305-8.91-37.834-9.802c-2.709-0.843-5.244-2.172-7.479-3.921c-2.166-1.715-8.154-10.154-8.547-10.684c-0.98-1.304-14.191-11.438-14.191-11.438c-0.703,1.635-0.732,3.481-0.078,5.137c0,0-10.086-5.597-11.135-6.205c-1.049-0.607-4.313-2.783-4.313-2.783s-1.266,4.273,1.813,6.753c1.797,1.464,3.686,2.81,5.656,4.028l-15.447-7.135c0,0-0.393,3.626,1.783,5.646c1.961,1.813,8.105,4.077,10.193,5.636c2.176,1.719,4.26,3.551,6.244,5.488c0.48,0.48,0.215,0.98-0.461,0.735c-2.852-0.979-8.391-3.489-9.92-4.136c-1.891-0.804-13.23-5.332-13.24-5.352c-0.012-0.02-0.746,4.733,3.066,7.066c3.402,2.078,8.576,4.117,10.125,4.901c7.088,3.704,17.262,10.448,18.191,14.525c0.854,3.715,0.785,5.381-9.986,6.606c-8.527,0.979-10.018,6.136-10.018,6.136s13.723-0.206,15.574-0.451c2.441-0.333,14.213-1.627,20.328-3.019c3.646-0.823,10.645-0.441,13.801,0.156c3.156,0.599,46.695,10.723,46.695,10.723S591.117,457.527,579.335,454.195L579.335,454.195z"></path>
											<path fill="#D3AB90" d="M513.283,432.22c-0.094,0.002-0.186-0.033-0.254-0.098c-2.004-1.851-4.102-3.598-6.283-5.234c-0.162-0.121-0.195-0.352-0.074-0.515c0.123-0.162,0.354-0.195,0.516-0.073c2.203,1.652,4.318,3.415,6.342,5.283c0.146,0.145,0.146,0.381,0.002,0.526c-0.068,0.069-0.16,0.108-0.258,0.11L513.283,432.22L513.283,432.22z M519.38,429.671c-0.09,0.001-0.178-0.03-0.246-0.089c-1.959-1.725-5.664-4.352-5.693-4.381c-0.166-0.116-0.205-0.345-0.09-0.51c0.117-0.165,0.346-0.204,0.51-0.088l0,0c0,0,3.775,2.676,5.764,4.42c0.152,0.14,0.162,0.375,0.023,0.526C519.58,429.625,519.482,429.669,519.38,429.671L519.38,429.671z"></path>
											<path fill="#404A51" d="M501.188,403.001l2.068-67.797l-2.941,0.627l-1.891,69.307l1.322-0.323C500.572,404.588,501.154,403.855,501.188,403.001L501.188,403.001z"></path>
											<path opacity="0.4" fill="#8F979F" d="M500.531,344.192v1.343c-0.002,0.195,0.154,0.354,0.35,0.357c0.035,0,0.068-0.005,0.102-0.014l1.295-0.373c0.145-0.042,0.248-0.172,0.254-0.323v-1.323c0.002-0.195-0.156-0.354-0.352-0.354c-0.029,0-0.061,0.004-0.09,0.012l-1.293,0.353C500.646,343.907,500.54,344.038,500.531,344.192L500.531,344.192z"></path>
											<path fill="#FFFFFF" d="M501.345,319.895L371.21,346.536c-0.883,0.194-1.52,0.968-1.539,1.872l-0.088,14.967l133.664-28.189l0.4-13.34c0.012-1.082-0.856-1.969-1.938-1.98C501.587,319.862,501.464,319.873,501.345,319.895L501.345,319.895z"></path>
											<path fill="#24292E" d="M499.179,326.207c-0.025,0.012-0.055,0.012-0.078,0l-1.49-1.333c-0.047-0.05-0.047-0.127,0-0.177c0.045-0.04,0.111-0.04,0.156,0l1.49,1.333c0.047,0.05,0.047,0.127,0,0.177C499.232,326.213,499.205,326.213,499.179,326.207L499.179,326.207z"></path>
											<path fill="#24292E" d="M497.66,326.549c-0.025,0.013-0.053,0.013-0.078,0c-0.047-0.049-0.047-0.127,0-0.177l1.539-1.96c0.041-0.043,0.109-0.045,0.152-0.004c0.002,0.001,0.002,0.003,0.004,0.004c0.047,0.05,0.047,0.127,0,0.177l-1.539,1.96C497.712,326.557,497.685,326.557,497.66,326.549z M425.55,348.888l-1.549-1.274c-0.018-0.04,0.002-0.086,0.041-0.103c0.016-0.007,0.031-0.009,0.047-0.005l1.549,1.273c0.021,0.026,0.021,0.063,0,0.089L425.55,348.888z"></path>
											<path fill="#24292E" d="M423.982,349.221c-0.021-0.025-0.021-0.063,0-0.088l1.588-1.961c0.012-0.03,0.045-0.046,0.074-0.035c0.031,0.011,0.047,0.045,0.037,0.075c-0.006,0.012-0.014,0.022-0.023,0.029l-1.588,1.96L423.982,349.221z M491.474,327.912l-1.764,0.373c-0.045,0.017-0.096-0.007-0.113-0.053c-0.006-0.015-0.006-0.03-0.004-0.046v-1.901c0.002-0.069,0.051-0.13,0.117-0.146l1.764-0.363c0.047-0.017,0.098,0.007,0.115,0.052c0.004,0.015,0.006,0.031,0.004,0.047v1.901C491.587,327.84,491.539,327.896,491.474,327.912L491.474,327.912z M489.828,328.011l1.529-0.324v-1.656l-1.529,0.313V328.011zM483.644,328.618l-1.785,0.372c-0.053,0.011-0.104-0.023-0.115-0.076c0-0.007-0.002-0.015-0.002-0.021c0.002-0.07,0.051-0.13,0.117-0.147l1.785-0.372c0.053-0.011,0.104,0.023,0.115,0.076c0.002,0.007,0.002,0.015,0.002,0.021C483.759,328.541,483.71,328.601,483.644,328.618z M372.622,351.543c-0.035,0.681,0.49,1.261,1.172,1.295c0.141,0.007,0.281-0.01,0.416-0.051c0.898-0.211,1.553-0.988,1.607-1.911c0.031-0.681-0.494-1.26-1.176-1.292c-0.137-0.007-0.271,0.01-0.402,0.048C373.333,349.836,372.673,350.617,372.622,351.543L372.622,351.543z"></path>
											<path fill="#EBEBEB" d="M380.199,361.081l1.695-6.479c0.174-0.632,0.676-1.119,1.313-1.273l3.922-0.814c0.553-0.155,1.125,0.166,1.281,0.719c0.002,0.002,0.002,0.005,0.002,0.007l1.549,5.754"></path>
											<path fill="#B5B5B5" d="M385.236,357.474l-0.264,0.059c-0.527,0.125-1.055-0.201-1.18-0.728c-0.02-0.083-0.029-0.168-0.025-0.252c0.037-0.708,0.535-1.307,1.225-1.471l0.264-0.059c0.529-0.119,1.053,0.212,1.172,0.74c0.018,0.078,0.027,0.159,0.025,0.24C386.415,356.708,385.921,357.306,385.236,357.474z"></path>
											<path fill="#24292E" d="M377.257,356.424l-4.508,0.98c-0.115,0.032-0.234-0.034-0.268-0.148c-0.006-0.022-0.008-0.045-0.008-0.067c0.01-0.159,0.121-0.295,0.275-0.333l4.508-0.98c0.107-0.038,0.225,0.017,0.264,0.124c0.012,0.029,0.016,0.061,0.012,0.092C377.527,356.251,377.415,356.39,377.257,356.424z M388.47,348.515l-10.066,2.098c-0.113,0.033-0.232-0.033-0.266-0.148c-0.006-0.021-0.008-0.044-0.008-0.066c0.01-0.157,0.121-0.289,0.273-0.324l10.066-2.087c0.109-0.033,0.225,0.028,0.258,0.137c0.008,0.025,0.01,0.052,0.008,0.078C388.724,348.352,388.617,348.478,388.47,348.515L388.47,348.515z M377.247,357.915l-4.508,0.979c-0.115,0.033-0.234-0.033-0.268-0.148c-0.006-0.021-0.008-0.044-0.008-0.066c0.01-0.16,0.121-0.295,0.275-0.334l4.508-0.979c0.107-0.039,0.225,0.017,0.264,0.123c0.012,0.03,0.016,0.063,0.012,0.092C377.515,357.741,377.404,357.875,377.247,357.915z M377.228,359.395l-4.508,0.98c-0.115,0.032-0.234-0.034-0.268-0.148c-0.006-0.021-0.008-0.045-0.008-0.067c0.008-0.159,0.121-0.295,0.275-0.333l4.508-0.98c0.107-0.038,0.225,0.018,0.264,0.124c0.012,0.029,0.014,0.061,0.012,0.092C377.496,359.221,377.384,359.356,377.228,359.395z"></path>
											<path fill="#EBEBEB" d="M436.272,347.858l-4.646,0.98c-0.479,0.134-0.978-0.146-1.111-0.625c-0.002-0.008-0.004-0.015-0.006-0.022l-0.617-2.392c-0.105-0.597,0.273-1.172,0.863-1.313l4.645-0.979c0.475-0.132,0.967,0.146,1.1,0.62c0.002,0.012,0.006,0.024,0.008,0.036l0.609,2.382C437.222,347.136,436.854,347.708,436.272,347.858z"></path>
											<path fill="#24292E" d="M434.322,346.271l-1.598,0.343c-0.104,0.027-0.211-0.035-0.238-0.14c-0.006-0.021-0.008-0.044-0.006-0.065c0.008-0.149,0.111-0.276,0.254-0.314l1.598-0.343c0.105-0.027,0.213,0.035,0.24,0.14c0.006,0.021,0.008,0.044,0.006,0.066C434.572,346.106,434.468,346.235,434.322,346.271z"></path>
											<path fill="#24292E" d="M433.509,347.271c-0.105,0.027-0.213-0.035-0.24-0.141c-0.006-0.021-0.008-0.043-0.006-0.065v-1.656c0.006-0.15,0.109-0.278,0.256-0.313c0.104-0.027,0.211,0.035,0.238,0.14c0.006,0.021,0.008,0.044,0.006,0.065v1.657C433.755,347.105,433.654,347.232,433.509,347.271z"></path>
											<path fill="#FFFFFF" d="M388.128,359.355l1.676-6.439c0.172-0.628,0.67-1.112,1.303-1.265l34.934-7.36c0.521-0.146,1.061,0.16,1.207,0.682c0.002,0.011,0.006,0.022,0.008,0.033l1.451,5.606"></path>
											<path fill="#EBEBEB" d="M428.548,350.945l-1.508-5.822c-0.104-0.421-0.527-0.68-0.947-0.577c-0.012,0.002-0.023,0.005-0.033,0.009l-34.934,7.37c-0.496,0.118-0.891,0.492-1.039,0.98l-1.656,6.371l-0.559,0.117l1.695-6.518c0.207-0.755,0.809-1.337,1.568-1.52l34.934-7.36c0.625-0.176,1.275,0.188,1.449,0.813c0.004,0.014,0.008,0.026,0.012,0.039l1.537,5.949L428.548,350.945z"></path>
											<path fill="#B5B5B5" d="M392.792,355.896l-0.264,0.059c-0.529,0.114-1.051-0.223-1.164-0.752c-0.016-0.075-0.023-0.151-0.021-0.228c0.037-0.702,0.531-1.297,1.215-1.461l0.266-0.059c0.527-0.114,1.049,0.223,1.164,0.752c0.016,0.075,0.023,0.151,0.021,0.229C393.972,355.138,393.478,355.731,392.792,355.896z M421.621,348.682l-25.376,5.41c-0.109,0.033-0.225-0.029-0.256-0.138c-0.008-0.022-0.01-0.045-0.01-0.067c0.01-0.154,0.115-0.285,0.266-0.324l25.387-5.449c0.102-0.033,0.213,0.023,0.246,0.127c0.008,0.025,0.01,0.052,0.008,0.079C421.897,348.488,421.787,348.644,421.621,348.682L421.621,348.682z"></path>
											<path fill="#DDE7ED" d="M324.476,493.175c-8.424,0.01-16.824-0.896-25.053-2.705c-15.564-3.47-46.586-11.615-46.899-11.703c-0.53-0.106-0.876-0.622-0.77-1.153c0.105-0.53,0.622-0.875,1.153-0.77c0.039,0.008,0.078,0.019,0.115,0.031c0.314,0.078,31.297,8.224,46.822,11.684c15.928,3.548,33.59,3.548,48.439,0c15.938-3.804,45.881-11.292,46.176-11.36c0.529-0.109,1.047,0.231,1.158,0.762c0.104,0.501-0.197,0.998-0.689,1.14c-0.303,0.078-30.246,7.557-46.193,11.37C340.781,492.308,332.64,493.215,324.476,493.175L324.476,493.175z"></path>
											<path fill="#DDE7ED" d="M96.042,436.454c-0.084,0.012-0.17,0.012-0.255,0c-5.47-1.489-21.563-5.792-31.188-8.36l-6.783-1.843C37.9,420.89,14.69,408.765,17.238,381.438c1.039-11.154,7.361-21.789,17.811-29.934c16.887-13.193,41.617-18.446,67.855-14.408c20.887,3.225,24.66,4.067,31.502,5.597l2.45,0.549c28.514,6.321,47.479,4.371,57.985-5.97c16.124-15.868,10.557-50.968,3.48-85.548c-3.117-15.231-1.265-26.895,5.498-34.658c9.537-10.929,37.189-10.027,37.847-9.988c0.542,0.035-0.048,0.502-0.083,1.044s-0.503,0.952-1.045,0.917c-0.156,0-26.368-0.863-35.248,9.331c-6.342,7.272-8.037,18.368-5.048,32.962c7.185,35.119,12.801,70.786-4.028,87.342c-11.018,10.84-30.581,12.967-59.789,6.488l-2.461-0.549c-6.802-1.529-10.547-2.362-31.365-5.577c-25.68-3.921-49.869,1.146-66.355,14.006c-10.018,7.842-16.074,17.957-17.055,28.572c-2.411,25.964,19.945,37.578,39.137,42.744l6.773,1.813c9.615,2.567,25.719,6.86,31.198,8.37c0.542,0.07,0.923,0.566,0.853,1.107c-0.07,0.541-0.566,0.923-1.107,0.853L96.042,436.454L96.042,436.454z M551.136,436.68c-0.541,0.07-1.037-0.312-1.107-0.853c-0.07-0.541,0.313-1.037,0.854-1.107l53.496-14.478c34.766-9.36,40.471-28.424,39.139-42.744c-0.98-10.448-6.861-20.456-16.664-28.17c-16.387-12.918-40.715-18.162-66.738-14.408c-33.492,4.833-65.787,12.351-81.352,15.957c-4.195,0.98-7.225,1.677-9.008,2.039c-34.012,6.959-65.945,1.078-89.988-16.486c-18.916-13.85-30.629-33.639-32.982-55.712c-3.666-34.364,8.4-53.85,20.064-72.688c10.398-16.79,41.15-89.148,41.299-117.357c0.098-18.163-5.166-32.718-15.684-43.245c-11.654-11.762-29.797-18.172-51.094-18.172c-0.543,0-0.98-0.439-0.98-0.98c0-0.542,0.438-0.98,0.98-0.98c21.826,0,40.459,6.655,52.486,18.75c10.859,10.919,16.311,25.935,16.211,44.646c-0.156,28.757-31.055,101.361-41.563,118.376c-12.018,19.407-23.376,37.746-19.779,71.443c2.293,21.563,13.723,40.824,32.188,54.34c23.523,17.251,54.977,23.004,88.469,16.192c1.744-0.353,4.773-1.059,8.949-2.029c15.555-3.616,47.91-11.144,81.48-15.986c26.551-3.832,51.418,1.559,68.229,14.811c10.213,8.047,16.396,18.534,17.426,29.522c2.539,27.326-20.662,39.451-40.578,44.822l-53.496,14.477C551.308,436.678,551.222,436.685,551.136,436.68L551.136,436.68z"></path>
										</g>
									</svg>