<svg width="336" height="296" viewBox="0 0 336 296" fill="none" xmlns="http://www.w3.org/2000/svg">
<g filter="url(#filter0_d)">
<rect x="25" y="25" width="107" height="107" rx="15" fill="white"/>
</g>
<g filter="url(#filter1_d)">
<rect x="204" y="156" width="107" height="107" rx="15" fill="white"/>
</g>
<g filter="url(#filter2_d)">
<rect x="91" y="72" width="154" height="154" rx="77" fill="white"/>
</g>
<path d="M160.433 127.742H165.696C168.203 127.742 170.06 127.116 171.268 125.862C172.475 124.609 173.079 122.946 173.079 120.872C173.079 118.867 172.475 117.306 171.268 116.189C170.083 115.073 168.442 114.515 166.346 114.515C164.454 114.515 162.871 115.039 161.595 116.087C160.319 117.112 159.681 118.457 159.681 120.12H149.803C149.803 117.522 150.498 115.198 151.888 113.147C153.3 111.074 155.26 109.456 157.767 108.294C160.296 107.132 163.076 106.551 166.106 106.551C171.37 106.551 175.494 107.815 178.479 110.345C181.465 112.851 182.957 116.315 182.957 120.735C182.957 123.014 182.262 125.11 180.872 127.024C179.482 128.938 177.659 130.408 175.403 131.434C178.206 132.436 180.291 133.94 181.658 135.945C183.048 137.951 183.743 140.32 183.743 143.055C183.743 147.475 182.125 151.019 178.89 153.685C175.677 156.351 171.416 157.684 166.106 157.684C161.139 157.684 157.072 156.373 153.904 153.753C150.76 151.132 149.188 147.669 149.188 143.362H159.065C159.065 145.231 159.76 146.757 161.15 147.942C162.563 149.127 164.295 149.72 166.346 149.72C168.693 149.72 170.527 149.104 171.849 147.874C173.193 146.621 173.865 144.969 173.865 142.918C173.865 137.951 171.131 135.467 165.662 135.467H160.433V127.742Z" fill="#FF4D00"/>
<path d="M70.2935 86.2041L63.4209 102H59.6978L66.5825 87.083H57.7446V84.2266H70.2935V86.2041ZM73.0889 93.2598L74.1143 84.2266H84.0752V87.1685H77.0073L76.5679 90.9893C77.4061 90.5417 78.2972 90.3179 79.2412 90.3179C80.9339 90.3179 82.2604 90.8428 83.2207 91.8926C84.181 92.9424 84.6611 94.4113 84.6611 96.2993C84.6611 97.4468 84.417 98.4762 83.9287 99.3877C83.4486 100.291 82.7568 100.995 81.8535 101.5C80.9502 101.996 79.8841 102.244 78.6553 102.244C77.5811 102.244 76.5841 102.028 75.6646 101.597C74.745 101.158 74.0166 100.543 73.4795 99.7539C72.9505 98.9645 72.6698 98.0653 72.6372 97.0562H76.1284C76.2017 97.7967 76.458 98.3745 76.8975 98.7896C77.3451 99.1965 77.9269 99.3999 78.6431 99.3999C79.4406 99.3999 80.055 99.1151 80.4863 98.5454C80.9176 97.9676 81.1333 97.1538 81.1333 96.104C81.1333 95.0949 80.8851 94.3218 80.3887 93.7847C79.8923 93.2476 79.1883 92.979 78.2769 92.979C77.4386 92.979 76.7591 93.1987 76.2383 93.6382L75.8965 93.9556L73.0889 93.2598ZM94.1826 92.0513H98.5894V95.2373H94.1826V100.218H90.8257V95.2373H86.4067V92.0513H90.8257V87.2783H94.1826V92.0513Z" fill="black"/>
<path d="M243.391 233H231.208V230.583L236.958 224.455C237.747 223.592 238.329 222.84 238.704 222.197C239.086 221.554 239.277 220.944 239.277 220.366C239.277 219.576 239.078 218.958 238.679 218.51C238.28 218.055 237.711 217.827 236.97 217.827C236.173 217.827 235.542 218.103 235.078 218.657C234.622 219.202 234.395 219.922 234.395 220.817H230.854C230.854 219.735 231.111 218.746 231.624 217.851C232.144 216.956 232.877 216.256 233.821 215.751C234.765 215.239 235.835 214.982 237.031 214.982C238.862 214.982 240.282 215.422 241.292 216.301C242.309 217.18 242.817 218.421 242.817 220.024C242.817 220.903 242.59 221.798 242.134 222.709C241.678 223.621 240.897 224.683 239.79 225.896L235.75 230.156H243.391V233ZM257.527 225.651C257.527 228.109 257.018 229.989 256.001 231.291C254.984 232.593 253.494 233.244 251.533 233.244C249.596 233.244 248.115 232.605 247.09 231.328C246.064 230.05 245.54 228.219 245.515 225.834V222.563C245.515 220.081 246.028 218.197 247.053 216.911C248.087 215.625 249.572 214.982 251.509 214.982C253.446 214.982 254.927 215.621 255.952 216.899C256.978 218.168 257.502 219.995 257.527 222.38V225.651ZM253.999 222.062C253.999 220.59 253.796 219.519 253.389 218.852C252.99 218.177 252.363 217.839 251.509 217.839C250.679 217.839 250.064 218.16 249.666 218.803C249.275 219.438 249.067 220.435 249.043 221.794V226.115C249.043 227.564 249.238 228.642 249.629 229.35C250.028 230.05 250.662 230.4 251.533 230.4C252.396 230.4 253.018 230.062 253.401 229.387C253.783 228.711 253.983 227.678 253.999 226.286V222.062ZM271.882 225.651C271.882 228.109 271.374 229.989 270.356 231.291C269.339 232.593 267.85 233.244 265.889 233.244C263.952 233.244 262.471 232.605 261.445 231.328C260.42 230.05 259.895 228.219 259.871 225.834V222.563C259.871 220.081 260.383 218.197 261.409 216.911C262.442 215.625 263.927 214.982 265.864 214.982C267.801 214.982 269.282 215.621 270.308 216.899C271.333 218.168 271.858 219.995 271.882 222.38V225.651ZM268.354 222.062C268.354 220.59 268.151 219.519 267.744 218.852C267.345 218.177 266.719 217.839 265.864 217.839C265.034 217.839 264.42 218.16 264.021 218.803C263.63 219.438 263.423 220.435 263.398 221.794V226.115C263.398 227.564 263.594 228.642 263.984 229.35C264.383 230.05 265.018 230.4 265.889 230.4C266.751 230.4 267.374 230.062 267.756 229.387C268.139 228.711 268.338 227.678 268.354 226.286V222.062ZM281.538 223.051H285.945V226.237H281.538V231.218H278.181V226.237H273.762V223.051H278.181V218.278H281.538V223.051Z" fill="black"/>
<path d="M149.473 170.512L151.436 166.469H153.076L150.217 171.859V175H148.729V171.859L145.863 166.469H147.51L149.473 170.512ZM156.27 175.117C155.367 175.117 154.635 174.834 154.072 174.268C153.514 173.697 153.234 172.939 153.234 171.994V171.818C153.234 171.186 153.355 170.621 153.598 170.125C153.844 169.625 154.188 169.236 154.629 168.959C155.07 168.682 155.562 168.543 156.105 168.543C156.969 168.543 157.635 168.818 158.104 169.369C158.576 169.92 158.812 170.699 158.812 171.707V172.281H154.67C154.713 172.805 154.887 173.219 155.191 173.523C155.5 173.828 155.887 173.98 156.352 173.98C157.004 173.98 157.535 173.717 157.945 173.189L158.713 173.922C158.459 174.301 158.119 174.596 157.693 174.807C157.271 175.014 156.797 175.117 156.27 175.117ZM156.1 169.686C155.709 169.686 155.393 169.822 155.15 170.096C154.912 170.369 154.76 170.75 154.693 171.238H157.406V171.133C157.375 170.656 157.248 170.297 157.025 170.055C156.803 169.809 156.494 169.686 156.1 169.686ZM163.711 175C163.648 174.879 163.594 174.682 163.547 174.408C163.094 174.881 162.539 175.117 161.883 175.117C161.246 175.117 160.727 174.936 160.324 174.572C159.922 174.209 159.721 173.76 159.721 173.225C159.721 172.549 159.971 172.031 160.471 171.672C160.975 171.309 161.693 171.127 162.627 171.127H163.5V170.711C163.5 170.383 163.408 170.121 163.225 169.926C163.041 169.727 162.762 169.627 162.387 169.627C162.062 169.627 161.797 169.709 161.59 169.873C161.383 170.033 161.279 170.238 161.279 170.488H159.855C159.855 170.141 159.971 169.816 160.201 169.516C160.432 169.211 160.744 168.973 161.139 168.801C161.537 168.629 161.98 168.543 162.469 168.543C163.211 168.543 163.803 168.73 164.244 169.105C164.686 169.477 164.912 170 164.924 170.676V173.535C164.924 174.105 165.004 174.561 165.164 174.9V175H163.711ZM162.146 173.975C162.428 173.975 162.691 173.906 162.938 173.77C163.188 173.633 163.375 173.449 163.5 173.219V172.023H162.732C162.205 172.023 161.809 172.115 161.543 172.299C161.277 172.482 161.145 172.742 161.145 173.078C161.145 173.352 161.234 173.57 161.414 173.734C161.598 173.895 161.842 173.975 162.146 173.975ZM169.734 169.961C169.547 169.93 169.354 169.914 169.154 169.914C168.502 169.914 168.062 170.164 167.836 170.664V175H166.412V168.66H167.771L167.807 169.369C168.15 168.818 168.627 168.543 169.236 168.543C169.439 168.543 169.607 168.57 169.74 168.625L169.734 169.961ZM174.188 173.277C174.188 173.023 174.082 172.83 173.871 172.697C173.664 172.564 173.318 172.447 172.834 172.346C172.35 172.244 171.945 172.115 171.621 171.959C170.91 171.615 170.555 171.117 170.555 170.465C170.555 169.918 170.785 169.461 171.246 169.094C171.707 168.727 172.293 168.543 173.004 168.543C173.762 168.543 174.373 168.73 174.838 169.105C175.307 169.48 175.541 169.967 175.541 170.564H174.117C174.117 170.291 174.016 170.064 173.812 169.885C173.609 169.701 173.34 169.609 173.004 169.609C172.691 169.609 172.436 169.682 172.236 169.826C172.041 169.971 171.943 170.164 171.943 170.406C171.943 170.625 172.035 170.795 172.219 170.916C172.402 171.037 172.773 171.16 173.332 171.285C173.891 171.406 174.328 171.553 174.645 171.725C174.965 171.893 175.201 172.096 175.354 172.334C175.51 172.572 175.588 172.861 175.588 173.201C175.588 173.771 175.352 174.234 174.879 174.59C174.406 174.941 173.787 175.117 173.021 175.117C172.502 175.117 172.039 175.023 171.633 174.836C171.227 174.648 170.91 174.391 170.684 174.062C170.457 173.734 170.344 173.381 170.344 173.002H171.727C171.746 173.338 171.873 173.598 172.107 173.781C172.342 173.961 172.652 174.051 173.039 174.051C173.414 174.051 173.699 173.98 173.895 173.84C174.09 173.695 174.188 173.508 174.188 173.277ZM179.555 171.771C179.555 171.15 179.678 170.592 179.924 170.096C180.17 169.596 180.516 169.213 180.961 168.947C181.406 168.678 181.918 168.543 182.496 168.543C183.352 168.543 184.045 168.818 184.576 169.369C185.111 169.92 185.4 170.65 185.443 171.561L185.449 171.895C185.449 172.52 185.328 173.078 185.086 173.57C184.848 174.062 184.504 174.443 184.055 174.713C183.609 174.982 183.094 175.117 182.508 175.117C181.613 175.117 180.896 174.82 180.357 174.227C179.822 173.629 179.555 172.834 179.555 171.842V171.771ZM180.979 171.895C180.979 172.547 181.113 173.059 181.383 173.43C181.652 173.797 182.027 173.98 182.508 173.98C182.988 173.98 183.361 173.793 183.627 173.418C183.896 173.043 184.031 172.494 184.031 171.771C184.031 171.131 183.893 170.623 183.615 170.248C183.342 169.873 182.969 169.686 182.496 169.686C182.031 169.686 181.662 169.871 181.389 170.242C181.115 170.609 180.979 171.16 180.979 171.895ZM187.154 175V169.715H186.188V168.66H187.154V168.08C187.154 167.377 187.35 166.834 187.74 166.451C188.131 166.068 188.678 165.877 189.381 165.877C189.631 165.877 189.896 165.912 190.178 165.982L190.143 167.096C189.986 167.064 189.805 167.049 189.598 167.049C188.918 167.049 188.578 167.398 188.578 168.098V168.66H189.867V169.715H188.578V175H187.154ZM145.143 185.191H141.639V187.816H145.734V189H140.156V180.469H145.693V181.664H141.639V184.02H145.143V185.191ZM149.08 184.746L150.287 182.66H151.869L149.93 185.783L151.934 189H150.363L149.098 186.832L147.838 189H146.256L148.26 185.783L146.326 182.66H147.896L149.08 184.746ZM155.326 187.98C155.682 187.98 155.977 187.877 156.211 187.67C156.445 187.463 156.57 187.207 156.586 186.902H157.928C157.912 187.297 157.789 187.666 157.559 188.01C157.328 188.35 157.016 188.619 156.621 188.818C156.227 189.018 155.801 189.117 155.344 189.117C154.457 189.117 153.754 188.83 153.234 188.256C152.715 187.682 152.455 186.889 152.455 185.877V185.73C152.455 184.766 152.713 183.994 153.229 183.416C153.744 182.834 154.447 182.543 155.338 182.543C156.092 182.543 156.705 182.764 157.178 183.205C157.654 183.643 157.904 184.219 157.928 184.934H156.586C156.57 184.57 156.445 184.271 156.211 184.037C155.98 183.803 155.686 183.686 155.326 183.686C154.865 183.686 154.51 183.854 154.26 184.189C154.01 184.521 153.883 185.027 153.879 185.707V185.936C153.879 186.623 154.002 187.137 154.248 187.477C154.498 187.812 154.857 187.98 155.326 187.98ZM161.795 189.117C160.893 189.117 160.16 188.834 159.598 188.268C159.039 187.697 158.76 186.939 158.76 185.994V185.818C158.76 185.186 158.881 184.621 159.123 184.125C159.369 183.625 159.713 183.236 160.154 182.959C160.596 182.682 161.088 182.543 161.631 182.543C162.494 182.543 163.16 182.818 163.629 183.369C164.102 183.92 164.338 184.699 164.338 185.707V186.281H160.195C160.238 186.805 160.412 187.219 160.717 187.523C161.025 187.828 161.412 187.98 161.877 187.98C162.529 187.98 163.061 187.717 163.471 187.189L164.238 187.922C163.984 188.301 163.645 188.596 163.219 188.807C162.797 189.014 162.322 189.117 161.795 189.117ZM161.625 183.686C161.234 183.686 160.918 183.822 160.676 184.096C160.438 184.369 160.285 184.75 160.219 185.238H162.932V185.133C162.9 184.656 162.773 184.297 162.551 184.055C162.328 183.809 162.02 183.686 161.625 183.686ZM166.963 189H165.539V180H166.963V189ZM170.033 189H168.609V180H170.033V189ZM174.381 189.117C173.479 189.117 172.746 188.834 172.184 188.268C171.625 187.697 171.346 186.939 171.346 185.994V185.818C171.346 185.186 171.467 184.621 171.709 184.125C171.955 183.625 172.299 183.236 172.74 182.959C173.182 182.682 173.674 182.543 174.217 182.543C175.08 182.543 175.746 182.818 176.215 183.369C176.688 183.92 176.924 184.699 176.924 185.707V186.281H172.781C172.824 186.805 172.998 187.219 173.303 187.523C173.611 187.828 173.998 187.98 174.463 187.98C175.115 187.98 175.646 187.717 176.057 187.189L176.824 187.922C176.57 188.301 176.23 188.596 175.805 188.807C175.383 189.014 174.908 189.117 174.381 189.117ZM174.211 183.686C173.82 183.686 173.504 183.822 173.262 184.096C173.023 184.369 172.871 184.75 172.805 185.238H175.518V185.133C175.486 184.656 175.359 184.297 175.137 184.055C174.914 183.809 174.605 183.686 174.211 183.686ZM179.355 182.66L179.396 183.393C179.865 182.826 180.48 182.543 181.242 182.543C182.562 182.543 183.234 183.299 183.258 184.811V189H181.834V184.893C181.834 184.49 181.746 184.193 181.57 184.002C181.398 183.807 181.115 183.709 180.721 183.709C180.146 183.709 179.719 183.969 179.438 184.488V189H178.014V182.66H179.355ZM187.318 187.98C187.674 187.98 187.969 187.877 188.203 187.67C188.438 187.463 188.562 187.207 188.578 186.902H189.92C189.904 187.297 189.781 187.666 189.551 188.01C189.32 188.35 189.008 188.619 188.613 188.818C188.219 189.018 187.793 189.117 187.336 189.117C186.449 189.117 185.746 188.83 185.227 188.256C184.707 187.682 184.447 186.889 184.447 185.877V185.73C184.447 184.766 184.705 183.994 185.221 183.416C185.736 182.834 186.439 182.543 187.33 182.543C188.084 182.543 188.697 182.764 189.17 183.205C189.646 183.643 189.896 184.219 189.92 184.934H188.578C188.562 184.57 188.438 184.271 188.203 184.037C187.973 183.803 187.678 183.686 187.318 183.686C186.857 183.686 186.502 183.854 186.252 184.189C186.002 184.521 185.875 185.027 185.871 185.707V185.936C185.871 186.623 185.994 187.137 186.24 187.477C186.49 187.812 186.85 187.98 187.318 187.98ZM193.787 189.117C192.885 189.117 192.152 188.834 191.59 188.268C191.031 187.697 190.752 186.939 190.752 185.994V185.818C190.752 185.186 190.873 184.621 191.115 184.125C191.361 183.625 191.705 183.236 192.146 182.959C192.588 182.682 193.08 182.543 193.623 182.543C194.486 182.543 195.152 182.818 195.621 183.369C196.094 183.92 196.33 184.699 196.33 185.707V186.281H192.188C192.23 186.805 192.404 187.219 192.709 187.523C193.018 187.828 193.404 187.98 193.869 187.98C194.521 187.98 195.053 187.717 195.463 187.189L196.23 187.922C195.977 188.301 195.637 188.596 195.211 188.807C194.789 189.014 194.314 189.117 193.787 189.117ZM193.617 183.686C193.227 183.686 192.91 183.822 192.668 184.096C192.43 184.369 192.277 184.75 192.211 185.238H194.924V185.133C194.893 184.656 194.766 184.297 194.543 184.055C194.32 183.809 194.012 183.686 193.617 183.686Z" fill="black"/>
<path d="M64.7061 112H63.8447V107.023H64.7061V112ZM69.2622 107.721H67.7104V112H66.8525V107.721H65.3145V107.023H69.2622V107.721ZM74.3652 109.778H72.3213V111.31H74.7104V112H71.4565V107.023H74.6865V107.721H72.3213V109.095H74.3652V109.778ZM76.6621 109.519L77.3662 108.302H78.2891L77.1577 110.124L78.3267 112H77.4106L76.6724 110.735L75.9375 112H75.0146L76.1836 110.124L75.0557 108.302H75.9717L76.6621 109.519ZM82.0933 110.188C82.0933 110.76 81.9634 111.217 81.7036 111.559C81.4438 111.899 81.0952 112.068 80.6577 112.068C80.2521 112.068 79.9274 111.935 79.6836 111.668V113.422H78.853V108.302H79.6187L79.6528 108.678C79.8966 108.382 80.2282 108.233 80.6475 108.233C81.0986 108.233 81.4518 108.402 81.707 108.739C81.9645 109.074 82.0933 109.54 82.0933 110.137V110.188ZM81.2661 110.117C81.2661 109.748 81.1921 109.455 81.0439 109.238C80.8981 109.022 80.6885 108.914 80.415 108.914C80.0755 108.914 79.8317 109.054 79.6836 109.334V110.975C79.834 111.262 80.0801 111.405 80.4219 111.405C80.6862 111.405 80.8924 111.299 81.0405 111.087C81.1909 110.873 81.2661 110.55 81.2661 110.117ZM84.4277 112.068C83.9014 112.068 83.4741 111.903 83.146 111.573C82.8201 111.24 82.6572 110.798 82.6572 110.247V110.144C82.6572 109.775 82.7279 109.446 82.8691 109.156C83.0127 108.865 83.2132 108.638 83.4707 108.476C83.7282 108.314 84.0153 108.233 84.332 108.233C84.8356 108.233 85.2241 108.394 85.4976 108.715C85.7733 109.037 85.9111 109.491 85.9111 110.079V110.414H83.4946C83.5197 110.719 83.6211 110.961 83.7988 111.139C83.9788 111.316 84.2044 111.405 84.4756 111.405C84.8561 111.405 85.166 111.251 85.4053 110.944L85.853 111.371C85.7049 111.592 85.5067 111.764 85.2583 111.887C85.0122 112.008 84.7354 112.068 84.4277 112.068ZM84.3286 108.9C84.1007 108.9 83.9162 108.98 83.7749 109.139C83.6359 109.299 83.547 109.521 83.5083 109.806H85.0908V109.744C85.0726 109.466 84.9985 109.257 84.8687 109.115C84.7388 108.972 84.5588 108.9 84.3286 108.9ZM88.4951 109.061C88.3857 109.042 88.2729 109.033 88.1567 109.033C87.7762 109.033 87.5199 109.179 87.3877 109.471V112H86.5571V108.302H87.3501L87.3706 108.715C87.5711 108.394 87.8491 108.233 88.2046 108.233C88.3231 108.233 88.4211 108.249 88.4985 108.281L88.4951 109.061ZM90.2314 107.403V108.302H90.8843V108.917H90.2314V110.981C90.2314 111.123 90.2588 111.225 90.3135 111.289C90.3704 111.351 90.4707 111.381 90.6143 111.381C90.71 111.381 90.8068 111.37 90.9048 111.347V111.99C90.7157 112.042 90.5334 112.068 90.3579 112.068C89.7199 112.068 89.4009 111.716 89.4009 111.012V108.917H88.7925V108.302H89.4009V107.403H90.2314ZM93.5947 110.995C93.5947 110.847 93.5332 110.734 93.4102 110.657C93.2894 110.579 93.0877 110.511 92.8052 110.452C92.5226 110.392 92.2868 110.317 92.0977 110.226C91.6829 110.026 91.4756 109.735 91.4756 109.354C91.4756 109.035 91.61 108.769 91.8789 108.555C92.1478 108.34 92.4896 108.233 92.9043 108.233C93.3464 108.233 93.703 108.343 93.9741 108.562C94.2476 108.78 94.3843 109.064 94.3843 109.413H93.5537C93.5537 109.253 93.4945 109.121 93.376 109.016C93.2575 108.909 93.1003 108.855 92.9043 108.855C92.722 108.855 92.5728 108.898 92.4565 108.982C92.3426 109.066 92.2856 109.179 92.2856 109.32C92.2856 109.448 92.3392 109.547 92.4463 109.618C92.5534 109.688 92.7699 109.76 93.0957 109.833C93.4215 109.904 93.6768 109.989 93.8613 110.089C94.0482 110.187 94.186 110.306 94.2749 110.445C94.366 110.584 94.4116 110.752 94.4116 110.951C94.4116 111.283 94.2738 111.553 93.998 111.761C93.7223 111.966 93.3612 112.068 92.9146 112.068C92.6115 112.068 92.3415 112.014 92.1045 111.904C91.8675 111.795 91.6829 111.645 91.5508 111.453C91.4186 111.262 91.3525 111.056 91.3525 110.834H92.1592C92.1706 111.03 92.2446 111.182 92.3813 111.289C92.5181 111.394 92.6992 111.446 92.9248 111.446C93.1436 111.446 93.3099 111.405 93.4238 111.323C93.5378 111.239 93.5947 111.13 93.5947 110.995Z" fill="#595959"/>
<path d="M231.374 243.38C231.324 243.911 231.128 244.326 230.786 244.624C230.444 244.92 229.99 245.068 229.422 245.068C229.026 245.068 228.676 244.975 228.373 244.788C228.072 244.599 227.84 244.331 227.676 243.985C227.512 243.639 227.426 243.236 227.419 242.778V242.313C227.419 241.844 227.503 241.431 227.669 241.073C227.835 240.715 228.073 240.439 228.383 240.246C228.695 240.052 229.056 239.955 229.463 239.955C230.013 239.955 230.455 240.104 230.79 240.403C231.125 240.701 231.319 241.123 231.374 241.667H230.513C230.472 241.31 230.367 241.052 230.198 240.895C230.032 240.736 229.787 240.656 229.463 240.656C229.087 240.656 228.798 240.794 228.595 241.069C228.395 241.343 228.292 241.745 228.288 242.276V242.717C228.288 243.255 228.383 243.665 228.575 243.947C228.768 244.23 229.051 244.371 229.422 244.371C229.762 244.371 230.017 244.295 230.188 244.142C230.359 243.989 230.467 243.735 230.513 243.38H231.374ZM231.914 243.117C231.914 242.754 231.986 242.429 232.129 242.139C232.273 241.847 232.475 241.624 232.734 241.469C232.994 241.312 233.293 241.233 233.63 241.233C234.129 241.233 234.533 241.394 234.843 241.715C235.155 242.037 235.324 242.463 235.349 242.994L235.353 243.188C235.353 243.553 235.282 243.879 235.141 244.166C235.002 244.453 234.801 244.675 234.539 244.833C234.279 244.99 233.979 245.068 233.637 245.068C233.115 245.068 232.697 244.895 232.382 244.549C232.07 244.2 231.914 243.736 231.914 243.158V243.117ZM232.745 243.188C232.745 243.569 232.823 243.868 232.98 244.084C233.138 244.298 233.356 244.405 233.637 244.405C233.917 244.405 234.135 244.296 234.29 244.077C234.447 243.858 234.525 243.538 234.525 243.117C234.525 242.743 234.444 242.447 234.283 242.228C234.123 242.009 233.906 241.9 233.63 241.9C233.359 241.9 233.143 242.008 232.984 242.225C232.824 242.439 232.745 242.76 232.745 243.188ZM236.836 241.302L236.86 241.688C237.12 241.385 237.475 241.233 237.926 241.233C238.421 241.233 238.759 241.423 238.941 241.801C239.21 241.423 239.589 241.233 240.076 241.233C240.484 241.233 240.787 241.346 240.985 241.572C241.186 241.797 241.288 242.13 241.293 242.57V245H240.462V242.594C240.462 242.359 240.411 242.187 240.309 242.078C240.206 241.968 240.036 241.914 239.799 241.914C239.61 241.914 239.455 241.965 239.334 242.067C239.216 242.168 239.133 242.3 239.085 242.464L239.088 245H238.258V242.566C238.246 242.131 238.024 241.914 237.591 241.914C237.259 241.914 237.023 242.049 236.884 242.32V245H236.053V241.302H236.836ZM245.384 243.188C245.384 243.76 245.254 244.217 244.995 244.559C244.735 244.899 244.386 245.068 243.949 245.068C243.543 245.068 243.218 244.935 242.975 244.668V246.422H242.144V241.302H242.91L242.944 241.678C243.188 241.382 243.519 241.233 243.938 241.233C244.39 241.233 244.743 241.402 244.998 241.739C245.256 242.074 245.384 242.54 245.384 243.137V243.188ZM244.557 243.117C244.557 242.748 244.483 242.455 244.335 242.238C244.189 242.022 243.979 241.914 243.706 241.914C243.367 241.914 243.123 242.054 242.975 242.334V243.975C243.125 244.262 243.371 244.405 243.713 244.405C243.977 244.405 244.183 244.299 244.332 244.087C244.482 243.873 244.557 243.55 244.557 243.117ZM246.974 245H246.143V239.75H246.974V245ZM249.51 245.068C248.983 245.068 248.556 244.903 248.228 244.573C247.902 244.24 247.739 243.798 247.739 243.247V243.144C247.739 242.775 247.81 242.446 247.951 242.156C248.095 241.865 248.295 241.638 248.553 241.476C248.81 241.314 249.097 241.233 249.414 241.233C249.918 241.233 250.306 241.394 250.58 241.715C250.855 242.037 250.993 242.491 250.993 243.079V243.414H248.577C248.602 243.719 248.703 243.961 248.881 244.139C249.061 244.316 249.286 244.405 249.558 244.405C249.938 244.405 250.248 244.251 250.487 243.944L250.935 244.371C250.787 244.592 250.589 244.764 250.34 244.887C250.094 245.008 249.817 245.068 249.51 245.068ZM249.411 241.9C249.183 241.9 248.998 241.98 248.857 242.139C248.718 242.299 248.629 242.521 248.59 242.806H250.173V242.744C250.155 242.466 250.081 242.257 249.951 242.115C249.821 241.972 249.641 241.9 249.411 241.9ZM252.682 240.403V241.302H253.334V241.917H252.682V243.981C252.682 244.123 252.709 244.225 252.764 244.289C252.821 244.351 252.921 244.381 253.064 244.381C253.16 244.381 253.257 244.37 253.355 244.347V244.99C253.166 245.042 252.984 245.068 252.808 245.068C252.17 245.068 251.851 244.716 251.851 244.012V241.917H251.243V241.302H251.851V240.403H252.682ZM255.601 245.068C255.074 245.068 254.647 244.903 254.319 244.573C253.993 244.24 253.83 243.798 253.83 243.247V243.144C253.83 242.775 253.901 242.446 254.042 242.156C254.186 241.865 254.386 241.638 254.644 241.476C254.901 241.314 255.188 241.233 255.505 241.233C256.008 241.233 256.397 241.394 256.67 241.715C256.946 242.037 257.084 242.491 257.084 243.079V243.414H254.667C254.693 243.719 254.794 243.961 254.972 244.139C255.152 244.316 255.377 244.405 255.648 244.405C256.029 244.405 256.339 244.251 256.578 243.944L257.026 244.371C256.878 244.592 256.68 244.764 256.431 244.887C256.185 245.008 255.908 245.068 255.601 245.068ZM255.501 241.9C255.274 241.9 255.089 241.98 254.948 242.139C254.809 242.299 254.72 242.521 254.681 242.806H256.264V242.744C256.245 242.466 256.171 242.257 256.042 242.115C255.912 241.972 255.732 241.9 255.501 241.9ZM257.576 243.124C257.576 242.554 257.708 242.097 257.973 241.753C258.237 241.407 258.591 241.233 259.036 241.233C259.428 241.233 259.744 241.37 259.986 241.644V239.75H260.816V245H260.064L260.023 244.617C259.775 244.918 259.444 245.068 259.029 245.068C258.596 245.068 258.245 244.894 257.976 244.545C257.709 244.197 257.576 243.723 257.576 243.124ZM258.407 243.195C258.407 243.571 258.479 243.865 258.622 244.077C258.768 244.287 258.974 244.392 259.241 244.392C259.58 244.392 259.829 244.24 259.986 243.937V242.358C259.833 242.062 259.587 241.914 259.248 241.914C258.979 241.914 258.771 242.021 258.625 242.235C258.48 242.447 258.407 242.767 258.407 243.195ZM264.371 243.151V245H263.506V240.023H265.41C265.966 240.023 266.407 240.168 266.733 240.458C267.061 240.747 267.225 241.13 267.225 241.606C267.225 242.094 267.064 242.473 266.743 242.744C266.424 243.015 265.976 243.151 265.4 243.151H264.371ZM264.371 242.457H265.41C265.718 242.457 265.952 242.385 266.114 242.242C266.276 242.096 266.357 241.886 266.357 241.613C266.357 241.344 266.275 241.13 266.111 240.97C265.947 240.808 265.721 240.725 265.434 240.721H264.371V242.457ZM269.84 242.061C269.73 242.042 269.618 242.033 269.501 242.033C269.121 242.033 268.865 242.179 268.732 242.471V245H267.902V241.302H268.695L268.715 241.715C268.916 241.394 269.194 241.233 269.549 241.233C269.668 241.233 269.766 241.249 269.843 241.281L269.84 242.061ZM270.086 243.117C270.086 242.754 270.158 242.429 270.301 242.139C270.445 241.847 270.646 241.624 270.906 241.469C271.166 241.312 271.465 241.233 271.802 241.233C272.301 241.233 272.705 241.394 273.015 241.715C273.327 242.037 273.496 242.463 273.521 242.994L273.524 243.188C273.524 243.553 273.454 243.879 273.312 244.166C273.174 244.453 272.973 244.675 272.711 244.833C272.451 244.99 272.15 245.068 271.809 245.068C271.287 245.068 270.869 244.895 270.554 244.549C270.242 244.2 270.086 243.736 270.086 243.158V243.117ZM270.917 243.188C270.917 243.569 270.995 243.868 271.152 244.084C271.31 244.298 271.528 244.405 271.809 244.405C272.089 244.405 272.306 244.296 272.461 244.077C272.619 243.858 272.697 243.538 272.697 243.117C272.697 242.743 272.616 242.447 272.455 242.228C272.295 242.009 272.077 241.9 271.802 241.9C271.531 241.9 271.315 242.008 271.156 242.225C270.996 242.439 270.917 242.76 270.917 243.188ZM275.093 241.302V245.328C275.093 245.706 274.999 245.995 274.81 246.193C274.623 246.393 274.348 246.494 273.986 246.494C273.833 246.494 273.686 246.474 273.545 246.436V245.779C273.632 245.8 273.729 245.81 273.839 245.81C274.115 245.81 274.256 245.66 274.263 245.359V241.302H275.093ZM274.191 240.341C274.191 240.214 274.231 240.108 274.311 240.023C274.393 239.939 274.509 239.897 274.659 239.897C274.81 239.897 274.926 239.939 275.008 240.023C275.09 240.108 275.131 240.214 275.131 240.341C275.131 240.467 275.09 240.571 275.008 240.656C274.926 240.738 274.81 240.779 274.659 240.779C274.509 240.779 274.393 240.738 274.311 240.656C274.231 240.571 274.191 240.467 274.191 240.341ZM277.612 245.068C277.086 245.068 276.659 244.903 276.331 244.573C276.005 244.24 275.842 243.798 275.842 243.247V243.144C275.842 242.775 275.912 242.446 276.054 242.156C276.197 241.865 276.398 241.638 276.655 241.476C276.913 241.314 277.2 241.233 277.517 241.233C278.02 241.233 278.409 241.394 278.682 241.715C278.958 242.037 279.096 242.491 279.096 243.079V243.414H276.679C276.704 243.719 276.806 243.961 276.983 244.139C277.163 244.316 277.389 244.405 277.66 244.405C278.041 244.405 278.351 244.251 278.59 243.944L279.038 244.371C278.889 244.592 278.691 244.764 278.443 244.887C278.197 245.008 277.92 245.068 277.612 245.068ZM277.513 241.9C277.285 241.9 277.101 241.98 276.959 242.139C276.82 242.299 276.732 242.521 276.693 242.806H278.275V242.744C278.257 242.466 278.183 242.257 278.053 242.115C277.923 241.972 277.743 241.9 277.513 241.9ZM281.263 244.405C281.47 244.405 281.642 244.345 281.779 244.224C281.916 244.103 281.988 243.954 281.998 243.776H282.78C282.771 244.007 282.699 244.222 282.565 244.422C282.431 244.621 282.248 244.778 282.018 244.894C281.788 245.01 281.54 245.068 281.273 245.068C280.756 245.068 280.346 244.901 280.042 244.566C279.739 244.231 279.588 243.768 279.588 243.178V243.093C279.588 242.53 279.738 242.08 280.039 241.743C280.34 241.403 280.75 241.233 281.27 241.233C281.709 241.233 282.067 241.362 282.343 241.62C282.621 241.875 282.767 242.211 282.78 242.628H281.998C281.988 242.416 281.916 242.242 281.779 242.105C281.644 241.968 281.472 241.9 281.263 241.9C280.994 241.9 280.786 241.998 280.641 242.194C280.495 242.388 280.421 242.683 280.418 243.079V243.212C280.418 243.613 280.49 243.913 280.634 244.111C280.78 244.307 280.989 244.405 281.263 244.405ZM284.448 240.403V241.302H285.101V241.917H284.448V243.981C284.448 244.123 284.476 244.225 284.53 244.289C284.587 244.351 284.688 244.381 284.831 244.381C284.927 244.381 285.024 244.37 285.122 244.347V244.99C284.932 245.042 284.75 245.068 284.575 245.068C283.937 245.068 283.618 244.716 283.618 244.012V241.917H283.009V241.302H283.618V240.403H284.448ZM287.812 243.995C287.812 243.847 287.75 243.734 287.627 243.657C287.506 243.579 287.305 243.511 287.022 243.452C286.739 243.392 286.504 243.317 286.314 243.226C285.9 243.026 285.692 242.735 285.692 242.354C285.692 242.035 285.827 241.769 286.096 241.555C286.365 241.34 286.706 241.233 287.121 241.233C287.563 241.233 287.92 241.343 288.191 241.562C288.464 241.78 288.601 242.064 288.601 242.413H287.771C287.771 242.253 287.711 242.121 287.593 242.016C287.474 241.909 287.317 241.855 287.121 241.855C286.939 241.855 286.79 241.898 286.673 241.982C286.559 242.066 286.502 242.179 286.502 242.32C286.502 242.448 286.556 242.547 286.663 242.618C286.77 242.688 286.987 242.76 287.312 242.833C287.638 242.904 287.894 242.989 288.078 243.089C288.265 243.187 288.403 243.306 288.492 243.445C288.583 243.584 288.628 243.752 288.628 243.951C288.628 244.283 288.491 244.553 288.215 244.761C287.939 244.966 287.578 245.068 287.131 245.068C286.828 245.068 286.558 245.014 286.321 244.904C286.084 244.795 285.9 244.645 285.768 244.453C285.635 244.262 285.569 244.056 285.569 243.834H286.376C286.387 244.03 286.461 244.182 286.598 244.289C286.735 244.394 286.916 244.446 287.142 244.446C287.36 244.446 287.527 244.405 287.641 244.323C287.755 244.239 287.812 244.13 287.812 243.995Z" fill="#595959"/>
<g clip-path="url(#clip0)">
<path d="M64 57.5C64 54.4344 64.9091 51.4376 66.6122 48.8887C68.3154 46.3397 70.7362 44.353 73.5684 43.1799C76.4007 42.0067 79.5172 41.6998 82.5239 42.2978C85.5306 42.8959 88.2924 44.3721 90.4602 46.5398C92.6279 48.7076 94.1041 51.4694 94.7022 54.4761C95.3002 57.4828 94.9933 60.5993 93.8201 63.4316C92.647 66.2639 90.6603 68.6846 88.1113 70.3878C85.5624 72.0909 82.5656 73 79.5 73C75.3891 73 71.4467 71.367 68.5398 68.4602C65.633 65.5533 64 61.6109 64 57.5Z" fill="#2490EF"/>
<path d="M76.6818 56.9152C77.0539 56.9152 77.4176 56.8049 77.7269 56.5982C78.0363 56.3915 78.2774 56.0977 78.4198 55.754C78.5621 55.4102 78.5994 55.032 78.5268 54.6671C78.4542 54.3022 78.2751 53.967 78.012 53.7039C77.7489 53.4408 77.4137 53.2617 77.0488 53.1891C76.6839 53.1165 76.3057 53.1538 75.9619 53.2961C75.6182 53.4385 75.3244 53.6796 75.1177 53.989C74.911 54.2983 74.8007 54.662 74.8007 55.0341C74.8007 55.533 74.9989 56.0115 75.3517 56.3643C75.7044 56.717 76.1829 56.9152 76.6818 56.9152ZM82.3182 56.9152C82.6902 56.9152 83.0539 56.8049 83.3633 56.5982C83.6726 56.3915 83.9137 56.0977 84.0561 55.754C84.1985 55.4102 84.2358 55.032 84.1632 54.6671C84.0906 54.3022 83.9114 53.967 83.6483 53.7039C83.3853 53.4408 83.0501 53.2617 82.6852 53.1891C82.3203 53.1165 81.942 53.1538 81.5983 53.2961C81.2546 53.4385 80.9608 53.6796 80.7541 53.989C80.5474 54.2983 80.437 54.662 80.437 55.0341C80.437 55.533 80.6352 56.0115 80.988 56.3643C81.3408 56.717 81.8193 56.9152 82.3182 56.9152ZM76.6818 58.0425C75.1107 58.0425 71.9825 58.8175 71.9825 60.3886V61.6075H81.3811V60.3886C81.3811 58.8175 78.253 58.0425 76.6818 58.0425ZM82.3182 58.0425C82.0541 58.0419 81.7904 58.0608 81.5291 58.0989C81.9086 58.3503 82.2216 58.6899 82.4412 59.0887C82.6608 59.4874 82.7806 59.9335 82.7902 60.3886V61.6075H87.0175V60.3886C87.0175 58.8175 83.8893 58.0425 82.3182 58.0425Z" fill="white"/>
</g>
<g clip-path="url(#clip1)">
<path d="M243 188.5C243 185.434 243.909 182.438 245.612 179.889C247.315 177.34 249.736 175.353 252.568 174.18C255.401 173.007 258.517 172.7 261.524 173.298C264.531 173.896 267.292 175.372 269.46 177.54C271.628 179.708 273.104 182.469 273.702 185.476C274.3 188.483 273.993 191.599 272.82 194.432C271.647 197.264 269.66 199.685 267.111 201.388C264.562 203.091 261.566 204 258.5 204C254.389 204 250.447 202.367 247.54 199.46C244.633 196.553 243 192.611 243 188.5Z" fill="#FF5502"/>
<path d="M253.012 190.684C252.969 190.769 252.954 190.865 252.97 190.958C252.985 191.052 253.029 191.138 253.096 191.205L253.209 191.318C253.533 190.938 253.913 190.529 254.357 190.071L254.456 189.994L253.751 189.289C253.322 190.029 253.082 190.543 253.012 190.684Z" fill="white"/>
<path d="M256.922 192.643C256.471 193.094 256.062 193.467 255.682 193.791L255.83 193.939C255.897 194.008 255.985 194.053 256.08 194.068C256.175 194.083 256.273 194.068 256.358 194.024C256.598 193.904 256.964 193.728 257.767 193.319L257.02 192.572L256.922 192.643Z" fill="white"/>
<path d="M256.682 190.318C256.358 189.987 255.435 190.283 254.998 190.712C254.037 191.605 253.225 192.647 252.596 193.798C252.556 193.884 252.544 193.979 252.561 194.072C252.577 194.165 252.622 194.25 252.689 194.317C252.756 194.383 252.842 194.427 252.935 194.443C253.028 194.458 253.124 194.445 253.209 194.404C254.355 193.774 255.393 192.962 256.281 192.002C256.76 191.522 256.985 190.592 256.682 190.318V190.318Z" fill="white"/>
<path d="M252.159 186.795L250.877 188.077C250.809 188.149 250.766 188.24 250.754 188.338C250.743 188.436 250.763 188.535 250.812 188.62C250.861 188.706 250.936 188.773 251.027 188.812C251.117 188.852 251.218 188.861 251.314 188.838C251.867 188.654 252.455 188.601 253.033 188.683C253.589 187.684 254.215 186.726 254.907 185.816C254.533 185.569 253.258 185.682 252.159 186.795Z" fill="white"/>
<path d="M258.437 196.201C258.521 196.245 258.617 196.261 258.711 196.246C258.806 196.231 258.892 196.185 258.958 196.116L260.247 194.834C261.241 193.84 261.417 192.558 261.191 192.15C260.274 192.832 259.313 193.456 258.317 194.017C258.363 194.59 258.32 195.168 258.19 195.729C258.176 195.823 258.192 195.92 258.236 196.005C258.28 196.09 258.351 196.158 258.437 196.201Z" fill="white"/>
<path d="M259.768 185.301C259.578 185.492 259.449 185.734 259.396 185.998C259.344 186.261 259.371 186.535 259.474 186.783C259.577 187.032 259.751 187.244 259.975 187.393C260.198 187.543 260.461 187.622 260.73 187.622C260.999 187.622 261.262 187.543 261.485 187.393C261.709 187.244 261.883 187.032 261.986 186.783C262.089 186.535 262.116 186.261 262.064 185.998C262.011 185.734 261.882 185.492 261.692 185.301C261.565 185.175 261.415 185.075 261.25 185.006C261.085 184.938 260.909 184.903 260.73 184.903C260.551 184.903 260.374 184.938 260.209 185.006C260.044 185.075 259.894 185.175 259.768 185.301Z" fill="white"/>
<path d="M266.25 181.194C266.242 181.086 266.196 180.984 266.12 180.906C266.044 180.829 265.942 180.781 265.834 180.771C264.714 180.696 263.589 180.827 262.516 181.159C262.637 182.002 263.033 182.783 263.643 183.378C264.247 184.003 265.049 184.401 265.912 184.505C266.22 183.43 266.334 182.309 266.25 181.194V181.194Z" fill="white"/>
<path d="M262.974 184.019C262.269 183.332 261.794 182.443 261.614 181.476C258.887 182.596 256.274 185.034 254.209 188.465L255.238 189.493C255.551 189.272 255.933 189.168 256.316 189.2C256.699 189.233 257.057 189.4 257.329 189.671C257.6 189.943 257.767 190.301 257.8 190.684C257.832 191.067 257.728 191.449 257.507 191.762L258.563 192.819C261.205 191.227 264.277 188.725 265.609 185.386C264.607 185.224 263.683 184.745 262.974 184.019V184.019ZM262.333 187.873C262.015 188.19 261.611 188.405 261.171 188.492C260.731 188.579 260.275 188.534 259.861 188.362C259.447 188.19 259.093 187.899 258.844 187.526C258.595 187.153 258.462 186.715 258.462 186.267C258.462 185.818 258.595 185.38 258.844 185.007C259.093 184.634 259.447 184.343 259.861 184.171C260.275 183.999 260.731 183.954 261.171 184.041C261.611 184.128 262.015 184.344 262.333 184.66C262.544 184.871 262.712 185.121 262.826 185.397C262.941 185.673 262.999 185.968 262.999 186.267C262.999 186.565 262.941 186.861 262.826 187.136C262.712 187.412 262.544 187.662 262.333 187.873V187.873Z" fill="white"/>
</g>
<g filter="url(#filter3_d)">
<path d="M158.593 204H72.4074C63.3458 204 56 211.324 56 220.358V244.642C56 253.676 63.3458 261 72.4074 261H158.593C167.654 261 175 253.676 175 244.642V220.358C175 211.324 167.654 204 158.593 204Z" fill="white"/>
<path fill-rule="evenodd" clip-rule="evenodd" d="M157.416 218.25L158.799 220.537L161.405 221.14L159.65 223.128L159.882 225.779L157.416 224.772L154.95 225.812L155.182 223.161L153.427 221.173L156.033 220.57L157.416 218.25ZM157.416 219.357L156.399 221.04L156.166 221.093L154.484 221.484L155.614 222.81L155.774 222.989L155.601 224.977L157.19 224.315L157.416 224.222L157.642 224.315L159.231 224.977L159.078 223.261V223.022L159.237 222.843L160.368 221.518L158.686 221.127L158.453 221.073L158.327 220.861L157.416 219.357Z" fill="#FFA510"/>
<path d="M154.95 225.812L157.416 224.772V218.25L156.033 220.537L153.427 221.14L155.182 223.128L154.95 225.812Z" fill="#FFA510"/>
<path d="M148.109 218.25L149.491 220.537L152.097 221.14L150.342 223.128L150.575 225.779L148.109 224.772L145.642 225.812L145.875 223.161L144.12 221.173L146.726 220.57L148.109 218.25Z" fill="#FFA510"/>
<path d="M157.416 218.25L158.799 220.537L161.405 221.14L159.65 223.128L159.882 225.779L157.416 224.772L154.95 225.812L155.182 223.161L153.427 221.173L156.033 220.57L157.416 218.25Z" fill="#FFA510"/>
<path d="M138.801 218.25L140.184 220.537L142.79 221.14L141.035 223.128L141.268 225.779L138.801 224.772L136.335 225.812L136.568 223.161L134.813 221.173L137.419 220.57L138.801 218.25Z" fill="#FFA510"/>
<path d="M129.494 218.25L130.877 220.537L133.483 221.14L131.728 223.128L131.961 225.779L129.494 224.772L127.028 225.812L127.26 223.161L125.505 221.173L128.111 220.57L129.494 218.25Z" fill="#FFA510"/>
<path d="M120.187 218.25L121.57 220.537L124.176 221.14L122.421 223.128L122.653 225.779L120.187 224.772L117.72 225.812L117.953 223.161L116.198 221.173L118.804 220.57L120.187 218.25Z" fill="#FFA510"/>
<path d="M71.2573 222.293C71.2573 222.909 70.8983 223.353 70.0739 223.353H68.9969V221.259H70.0606C70.9049 221.259 71.2573 221.663 71.2573 222.293ZM68.2789 220.663V226.203H68.9969V223.937H69.8745L71.2041 226.203H72.075L70.6789 223.884C71.0563 223.824 71.3992 223.63 71.6438 223.338C71.8884 223.045 72.018 222.674 72.0085 222.293C72.0085 221.385 71.3836 220.663 70.0739 220.663H68.2789ZM76.1303 220.663H73.1387V226.203H76.1303V225.607H73.8633V223.698H75.8577V223.102H73.8633V221.246H76.1303V220.663ZM79.308 225.455L77.5596 220.676H76.7884L78.8826 226.217H79.7202L81.821 220.676H81.0565L79.308 225.455ZM82.6321 226.217H83.3567V220.676H82.6321V226.217ZM87.5849 220.663H84.5932V226.203H87.5849V225.607H85.3179V223.698H87.3455V223.102H85.3179V221.246H87.5849V220.663ZM89.8053 226.223H90.6164L91.946 221.763L93.2423 226.223H94.0534L95.6622 220.682H94.8844L93.6612 225.362L92.3847 220.682H91.6003L90.2707 225.382L89.0607 220.682H88.2829L89.8053 226.223ZM103.906 223.44C103.897 222.891 103.725 222.358 103.413 221.906C103.1 221.454 102.661 221.105 102.15 220.901C101.639 220.698 101.079 220.649 100.541 220.762C100.002 220.874 99.5092 221.143 99.1234 221.534C98.7375 221.925 98.4762 222.421 98.3722 222.96C98.2682 223.498 98.3261 224.056 98.5387 224.562C98.7514 225.068 99.1092 225.5 99.5673 225.804C100.025 226.108 100.563 226.27 101.114 226.27C101.486 226.276 101.856 226.205 102.201 226.064C102.546 225.922 102.857 225.711 103.118 225.445C103.378 225.179 103.581 224.863 103.714 224.515C103.847 224.168 103.908 223.798 103.893 223.426L103.906 223.44ZM99.066 223.44C99.0971 223.043 99.2436 222.663 99.4876 222.348C99.7316 222.032 100.063 221.795 100.44 221.664C100.817 221.533 101.225 221.515 101.612 221.612C102 221.708 102.351 221.916 102.622 222.208C102.893 222.5 103.073 222.865 103.14 223.258C103.206 223.651 103.156 224.054 102.996 224.419C102.836 224.784 102.573 225.095 102.238 225.313C101.904 225.531 101.513 225.647 101.114 225.647C100.825 225.658 100.538 225.607 100.272 225.498C100.005 225.388 99.7654 225.222 99.5695 225.01C99.3736 224.799 99.2259 224.548 99.1367 224.275C99.0475 224.002 99.0188 223.712 99.0527 223.426L99.066 223.44ZM108.513 220.663V225.07L105.588 220.663H104.863V226.203H105.561V221.789L108.486 226.203H109.211V220.649L108.513 220.663Z" fill="#666666"/>
<path d="M116.584 239.38V238.478H118.385V244.762H117.388V239.38H116.584ZM123.624 239.327H120.732V241.037C120.876 240.86 121.061 240.722 121.271 240.632C121.511 240.527 121.772 240.472 122.035 240.473C122.449 240.453 122.86 240.559 123.212 240.778C123.507 240.97 123.738 241.244 123.877 241.567C124.009 241.882 124.077 242.22 124.076 242.561C124.083 242.956 123.996 243.346 123.823 243.701C123.663 244.029 123.406 244.3 123.085 244.477C122.722 244.679 122.311 244.777 121.895 244.762C121.351 244.789 120.815 244.625 120.38 244.298C120.007 243.987 119.769 243.546 119.715 243.065H120.672C120.725 243.331 120.877 243.568 121.098 243.728C121.337 243.892 121.625 243.974 121.915 243.96C122.086 243.974 122.258 243.948 122.417 243.885C122.576 243.821 122.718 243.722 122.833 243.595C123.051 243.313 123.162 242.963 123.145 242.608C123.169 242.263 123.057 241.923 122.833 241.66C122.712 241.544 122.567 241.454 122.409 241.397C122.251 241.34 122.083 241.317 121.915 241.328C121.667 241.315 121.421 241.385 121.216 241.527C121.012 241.668 120.86 241.874 120.785 242.11H119.848V238.465H123.65L123.624 239.327ZM130.232 244.762L128.829 242.369H128.098V244.762H127.114V238.797H129.188C129.592 238.787 129.993 238.87 130.358 239.042C130.657 239.186 130.905 239.417 131.07 239.705C131.235 239.978 131.32 240.293 131.316 240.613C131.316 240.996 131.195 241.369 130.97 241.68C130.714 242.022 130.34 242.258 129.92 242.342L131.409 244.821L130.232 244.762ZM128.098 241.58H129.188C129.49 241.602 129.789 241.504 130.019 241.308C130.115 241.211 130.19 241.095 130.239 240.967C130.289 240.839 130.311 240.703 130.305 240.566C130.313 240.433 130.292 240.299 130.244 240.175C130.196 240.05 130.122 239.937 130.026 239.844C129.793 239.647 129.492 239.55 129.188 239.572H128.098V241.58ZM133.416 239.592V241.348H135.477V242.11H133.403V243.946H135.73V244.762H132.406V238.797H135.73V239.598L133.416 239.592ZM141.966 238.797L139.712 244.762H138.569L136.302 238.797H137.359L139.14 243.781L140.929 238.797H141.966ZM143.601 238.797V244.762H142.591V238.797H143.601ZM145.709 239.592V241.348H147.783V242.11H145.709V243.946H148.042V244.762H144.718V238.797H148.042V239.598L145.709 239.592ZM156.904 238.797L155.122 244.762H154.005L152.742 240.228L151.413 244.762H150.309L148.601 238.797H149.651L150.894 243.675L152.224 238.797H153.327L154.584 243.648L155.82 238.797H156.904ZM159.523 244.848C159.15 244.855 158.778 244.785 158.433 244.642C158.129 244.515 157.867 244.306 157.675 244.039C157.487 243.774 157.389 243.456 157.396 243.131H158.453C158.462 243.383 158.569 243.621 158.752 243.794C158.969 243.97 159.245 244.057 159.523 244.039C159.807 244.057 160.088 243.972 160.314 243.801C160.411 243.72 160.487 243.618 160.536 243.503C160.586 243.388 160.608 243.263 160.6 243.138C160.605 243.048 160.592 242.959 160.561 242.874C160.53 242.79 160.482 242.713 160.421 242.647C160.297 242.518 160.148 242.417 159.982 242.349C159.742 242.263 159.498 242.19 159.251 242.13C158.926 242.045 158.606 241.941 158.293 241.819C158.049 241.704 157.837 241.531 157.675 241.315C157.484 241.057 157.39 240.74 157.409 240.42C157.401 240.1 157.494 239.784 157.675 239.519C157.854 239.255 158.106 239.047 158.4 238.922C158.74 238.778 159.107 238.708 159.477 238.717C159.99 238.695 160.494 238.849 160.906 239.154C161.09 239.295 161.24 239.474 161.347 239.679C161.454 239.884 161.514 240.11 161.524 240.341H160.441C160.429 240.232 160.395 240.126 160.341 240.031C160.288 239.935 160.215 239.851 160.128 239.784C159.912 239.623 159.647 239.541 159.377 239.552C159.138 239.547 158.904 239.621 158.712 239.764C158.621 239.84 158.549 239.935 158.502 240.043C158.454 240.152 158.433 240.269 158.44 240.387C158.435 240.555 158.494 240.719 158.606 240.845C158.73 240.964 158.877 241.059 159.038 241.123C159.271 241.208 159.509 241.281 159.749 241.342C160.078 241.429 160.4 241.54 160.713 241.673C160.977 241.778 161.206 241.952 161.378 242.177C161.57 242.44 161.666 242.76 161.651 243.085C161.649 243.39 161.562 243.689 161.398 243.946C161.228 244.232 160.978 244.462 160.68 244.609C160.31 244.779 159.903 244.852 159.497 244.821L159.523 244.848Z" fill="#666666"/>
<path d="M78.3574 234.157H80.1324V245.073H78.3574V234.157Z" fill="#17313B"/>
<path d="M86.2818 241.613C86.3008 241.861 86.2658 242.11 86.1792 242.343C86.0927 242.576 85.9567 242.787 85.7806 242.963C85.6044 243.138 85.3923 243.274 85.1586 243.36C84.925 243.447 84.6754 243.481 84.427 243.463C83.3501 243.463 83.1971 242.462 83.1971 241.925V237.696H81.4221V241.845C81.3951 242.297 81.4634 242.749 81.6226 243.173C81.7818 243.596 82.0283 243.982 82.3462 244.304C82.6221 244.567 82.9491 244.771 83.3069 244.903C83.6648 245.035 84.0459 245.093 84.427 245.073C85.1009 245.107 85.7629 244.887 86.2818 244.457V245.073H88.0569V237.696H86.2818V241.613Z" fill="#17313B"/>
<path d="M91.5471 235.005H89.7721V237.696H88.4425V239.386H89.7721V245.073H91.5471V239.386H92.8767V237.696H91.5471V235.005Z" fill="#17313B"/>
<path d="M98.4079 242.846C97.9921 243.179 97.4785 243.368 96.9453 243.383C96.6633 243.389 96.3831 243.337 96.1223 243.23C95.8615 243.122 95.6257 242.963 95.4297 242.76C95.2337 242.558 95.0817 242.318 94.9833 242.054C94.8849 241.791 94.8422 241.51 94.8578 241.229C94.8455 240.953 94.8911 240.677 94.9917 240.419C95.0923 240.161 95.2458 239.928 95.4422 239.732C95.6387 239.537 95.8738 239.385 96.1326 239.285C96.3914 239.186 96.6682 239.141 96.9453 239.154C97.2126 239.143 97.4794 239.185 97.7304 239.277C97.9814 239.369 98.2116 239.51 98.4079 239.691L98.6406 239.923L99.8704 238.77L99.5646 238.538C98.837 237.89 97.8944 237.533 96.9187 237.537C96.4091 237.516 95.9003 237.598 95.4232 237.777C94.946 237.957 94.5102 238.231 94.142 238.583C93.7738 238.935 93.4809 239.358 93.2807 239.826C93.0806 240.293 92.9774 240.797 92.9774 241.305C92.9774 241.814 93.0806 242.317 93.2807 242.785C93.4809 243.253 93.7738 243.675 94.142 244.027C94.5102 244.379 94.946 244.653 95.4232 244.833C95.9003 245.013 96.4091 245.094 96.9187 245.073C97.8955 245.087 98.8429 244.74 99.5779 244.099L99.8837 243.873L98.6538 242.641L98.4079 242.846Z" fill="#17313B"/>
<path d="M106.12 238.306C105.874 238.045 105.575 237.84 105.242 237.708C104.908 237.575 104.55 237.517 104.192 237.537C103.882 237.522 103.573 237.569 103.282 237.675C102.991 237.781 102.724 237.943 102.496 238.154V234.177H100.721V245.093H102.496V241.017C102.496 239.327 103.653 239.174 104.112 239.174C105.196 239.174 105.116 240.175 105.116 240.712V245.02H106.891V240.785C106.959 239.891 106.683 239.005 106.12 238.306V238.306Z" fill="#17313B"/>
<path d="M96.8655 242.535C97.1104 242.535 97.3497 242.462 97.5532 242.326C97.7567 242.191 97.9152 241.998 98.0086 241.772C98.1019 241.546 98.1261 241.298 98.0778 241.059C98.0295 240.82 97.9111 240.6 97.7375 240.428C97.5639 240.256 97.343 240.139 97.1027 240.092C96.8624 240.045 96.6135 240.07 96.3877 240.165C96.1619 240.259 95.9692 240.418 95.8341 240.622C95.6991 240.825 95.6277 241.064 95.629 241.308C95.629 241.47 95.661 241.63 95.7232 241.779C95.7855 241.928 95.8766 242.064 95.9916 242.178C96.1065 242.292 96.2428 242.382 96.3928 242.443C96.5428 242.504 96.7035 242.536 96.8655 242.535V242.535Z" fill="#EF4335"/>
<path d="M75.8909 242.382C75.2065 243.035 74.2922 243.395 73.3448 243.383C71.4168 243.383 70.0207 241.845 70.0207 239.771C70.0207 237.696 71.4102 236.159 73.4179 236.159C74.3733 236.169 75.286 236.555 75.9574 237.232L76.1901 237.464L77.3469 236.311L77.1142 236.079C76.6313 235.591 76.0558 235.204 75.4212 234.94C74.7865 234.676 74.1055 234.54 73.4179 234.541C70.4861 234.462 68.3255 236.768 68.3255 239.771C68.3255 242.773 70.4861 245.073 73.3381 245.073C74.0279 245.082 74.7122 244.95 75.349 244.686C75.9858 244.421 76.5616 244.03 77.0411 243.535L77.2738 243.303L76.117 242.15L75.8909 242.382Z" fill="#17313B"/>
</g>
<defs>
<filter id="filter0_d" x="0" y="0" width="157" height="157" filterUnits="userSpaceOnUse" color-interpolation-filters="sRGB">
<feFlood flood-opacity="0" result="BackgroundImageFix"/>
<feColorMatrix in="SourceAlpha" type="matrix" values="0 0 0 0 0 0 0 0 0 0 0 0 0 0 0 0 0 0 127 0" result="hardAlpha"/>
<feOffset/>
<feGaussianBlur stdDeviation="12.5"/>
<feComposite in2="hardAlpha" operator="out"/>
<feColorMatrix type="matrix" values="0 0 0 0 0 0 0 0 0 0 0 0 0 0 0 0 0 0 0.25 0"/>
<feBlend mode="normal" in2="BackgroundImageFix" result="effect1_dropShadow"/>
<feBlend mode="normal" in="SourceGraphic" in2="effect1_dropShadow" result="shape"/>
</filter>
<filter id="filter1_d" x="179" y="131" width="157" height="157" filterUnits="userSpaceOnUse" color-interpolation-filters="sRGB">
<feFlood flood-opacity="0" result="BackgroundImageFix"/>
<feColorMatrix in="SourceAlpha" type="matrix" values="0 0 0 0 0 0 0 0 0 0 0 0 0 0 0 0 0 0 127 0" result="hardAlpha"/>
<feOffset/>
<feGaussianBlur stdDeviation="12.5"/>
<feComposite in2="hardAlpha" operator="out"/>
<feColorMatrix type="matrix" values="0 0 0 0 0 0 0 0 0 0 0 0 0 0 0 0 0 0 0.25 0"/>
<feBlend mode="normal" in2="BackgroundImageFix" result="effect1_dropShadow"/>
<feBlend mode="normal" in="SourceGraphic" in2="effect1_dropShadow" result="shape"/>
</filter>
<filter id="filter2_d" x="46" y="27" width="244" height="244" filterUnits="userSpaceOnUse" color-interpolation-filters="sRGB">
<feFlood flood-opacity="0" result="BackgroundImageFix"/>
<feColorMatrix in="SourceAlpha" type="matrix" values="0 0 0 0 0 0 0 0 0 0 0 0 0 0 0 0 0 0 127 0" result="hardAlpha"/>
<feOffset/>
<feGaussianBlur stdDeviation="22.5"/>
<feComposite in2="hardAlpha" operator="out"/>
<feColorMatrix type="matrix" values="0 0 0 0 0 0 0 0 0 0 0 0 0 0 0 0 0 0 0.25 0"/>
<feBlend mode="normal" in2="BackgroundImageFix" result="effect1_dropShadow"/>
<feBlend mode="normal" in="SourceGraphic" in2="effect1_dropShadow" result="shape"/>
</filter>
<filter id="filter3_d" x="21" y="169" width="189" height="127" filterUnits="userSpaceOnUse" color-interpolation-filters="sRGB">
<feFlood flood-opacity="0" result="BackgroundImageFix"/>
<feColorMatrix in="SourceAlpha" type="matrix" values="0 0 0 0 0 0 0 0 0 0 0 0 0 0 0 0 0 0 127 0" result="hardAlpha"/>
<feOffset/>
<feGaussianBlur stdDeviation="17.5"/>
<feComposite in2="hardAlpha" operator="out"/>
<feColorMatrix type="matrix" values="0 0 0 0 0 0 0 0 0 0 0 0 0 0 0 0 0 0 0.25 0"/>
<feBlend mode="normal" in2="BackgroundImageFix" result="effect1_dropShadow"/>
<feBlend mode="normal" in="SourceGraphic" in2="effect1_dropShadow" result="shape"/>
</filter>
<clipPath id="clip0">
<rect width="31" height="31" fill="white" transform="translate(64 42)"/>
</clipPath>
<clipPath id="clip1">
<rect width="31" height="31" fill="white" transform="translate(243 173)"/>
</clipPath>
</defs>
</svg>
