<?xml version="1.0" encoding="utf-8"?>

<svg width="586" height="529" viewBox="0 0 586 529" fill="none" xmlns="http://www.w3.org/2000/svg">
<g filter="url(#filter0_d)">
<rect x="57.9996" y="54" width="235" height="235" rx="28" fill="white"/>
</g>
<path d="M129.552 156.138H133.77C134.036 154.2 135.442 152.376 138.482 152.376C141.446 152.376 143.004 153.972 143.004 156.366C143.004 159.33 140.61 160.47 136.696 160.508H135.67V164.08H136.658C141.18 164.08 143.536 165.334 143.536 168.982C143.536 171.566 141.94 173.542 138.71 173.542C135.442 173.542 133.542 171.566 133.352 168.982H129.172C129.438 174.416 133.504 177.152 138.748 177.152C144.524 177.152 147.64 173.808 147.64 169.4C147.64 165.562 145.778 163.168 142.89 162.294V162.142C145.056 161.42 147.146 159.178 147.146 155.872C147.146 151.844 144.144 148.652 138.634 148.652C133.58 148.652 129.856 151.35 129.552 156.138ZM153.331 149.222V165.22H157.435C158.157 163.168 159.867 161.762 162.413 161.762C166.023 161.762 167.809 163.814 167.809 167.424C167.809 170.844 166.137 173.39 162.413 173.39C159.487 173.39 157.511 171.87 156.941 169.514H152.723C153.369 173.846 156.675 177 162.375 177C168.797 177 171.951 172.82 171.951 167.31C171.951 163.13 169.861 158.076 163.059 158.076C160.589 158.076 158.347 159.216 157.321 160.584V153.022H170.051V149.222H153.331ZM176.46 162.788C176.46 170.844 178.588 176.924 186.34 176.924C194.092 176.924 196.22 170.844 196.22 162.788C196.22 154.884 194.092 148.804 186.34 148.804C178.588 148.804 176.46 154.884 176.46 162.788ZM191.964 162.788C191.964 168.222 191.394 172.972 186.34 172.972C181.286 172.972 180.716 168.222 180.716 162.788C180.716 157.62 181.286 152.756 186.34 152.756C191.394 152.756 191.964 157.62 191.964 162.788ZM210.076 153.592V161.458H202.4V165.106H210.076V172.972H214.104V165.106H221.78V161.458H214.104V153.592H210.076Z" fill="#333333"/>
<path d="M147.415 204H149.011V194.27H147.415V204ZM150.602 195.572H153.206V204H154.802V195.572H157.392V194.27H150.602V195.572ZM168.021 194.256H162.645V204H168.021V202.698H164.241V199.716H167.601V198.414H164.241V195.558H168.021V194.256ZM173.977 204H175.783L173.291 200.094L175.783 196.286H174.117L172.549 198.904L170.883 196.286H169.077L171.569 200.206L169.077 204H170.743L172.311 201.382L173.977 204ZM178.569 197.42V196.286H176.973V207.668H178.569V202.88C179.073 203.482 179.983 204.126 181.257 204.126C183.287 204.126 184.883 202.488 184.883 200.108C184.883 197.728 183.287 196.16 181.257 196.16C179.997 196.16 179.059 196.776 178.569 197.42ZM183.259 200.108C183.259 201.774 182.111 202.74 180.907 202.74C179.717 202.74 178.569 201.802 178.569 200.136C178.569 198.484 179.717 197.546 180.907 197.546C182.111 197.546 183.259 198.442 183.259 200.108ZM189.71 197.504C190.9 197.504 191.838 198.26 191.866 199.45H187.596C187.764 198.232 188.632 197.504 189.71 197.504ZM193.322 201.704H191.6C191.306 202.306 190.76 202.782 189.78 202.782C188.604 202.782 187.694 202.012 187.582 200.738H193.476C193.518 200.472 193.532 200.22 193.532 199.954C193.532 197.686 191.978 196.16 189.78 196.16C187.498 196.16 185.93 197.714 185.93 200.136C185.93 202.558 187.568 204.126 189.78 204.126C191.67 204.126 192.888 203.048 193.322 201.704ZM196.698 199.94C196.698 198.302 197.426 197.812 198.602 197.812H199.008V196.16C197.916 196.16 197.146 196.636 196.698 197.406V196.286H195.102V204H196.698V199.94ZM200.727 201.858C200.727 203.426 201.581 204 202.953 204H204.213V202.67H203.233C202.561 202.67 202.337 202.432 202.337 201.858V197.588H204.213V196.286H202.337V194.368H200.727V196.286H199.817V197.588H200.727V201.858Z" fill="#666666"/>
<path d="M154 111.5C154 99.3497 163.85 89.5 176 89.5C188.15 89.5 198 99.3497 198 111.5C198 123.65 188.15 133.5 176 133.5C163.85 133.5 154 123.65 154 111.5Z" fill="#2490EF"/>
<path d="M172 110.667C173.48 110.667 174.667 109.467 174.667 108C174.667 106.533 173.48 105.333 172 105.333C170.533 105.333 169.333 106.533 169.333 108C169.333 109.467 170.533 110.667 172 110.667ZM180 110.667C181.48 110.667 182.667 109.467 182.667 108C182.667 106.533 181.48 105.333 180 105.333C178.52 105.333 177.333 106.533 177.333 108C177.333 109.467 178.533 110.667 180 110.667ZM172 112.267C169.773 112.267 165.333 113.373 165.333 115.6V117.333H178.667V115.6C178.667 113.373 174.227 112.267 172 112.267ZM180 112.267C179.667 112.267 179.28 112.293 178.88 112.347C179.933 113.147 180.667 114.213 180.667 115.6V117.333H186.667V115.6C186.667 113.373 182.227 112.267 180 112.267Z" fill="white"/>
<rect x="316.445" y="89.5" width="179" height="86" rx="24.6753" fill="white"/>
<path fill-rule="evenodd" clip-rule="evenodd" d="M469 111L471.077 114.451L475 115.359L472.36 118.4L472.708 122.413L469 120.842L465.292 122.413L465.64 118.401L463 115.359L466.923 114.451L469 111ZM469 112.668L467.473 115.206L467.118 115.289L464.587 115.875L466.29 117.837L466.529 118.112L466.272 121.063L468.664 120.05L469 119.907L469.336 120.05L471.728 121.063L471.503 118.475L471.471 118.112L471.71 117.837L473.413 115.875L470.882 115.289L470.527 115.206L470.34 114.894L469 112.668Z" fill="#FFA510"/>
<path d="M465.292 122.413L469 120.842V111L466.923 114.451L463 115.359L465.64 118.4L465.292 122.413Z" fill="#FFA510"/>
<path d="M455 111L457.077 114.451L461 115.359L458.36 118.401L458.708 122.413L455 120.842L451.292 122.413L451.64 118.401L449 115.359L452.923 114.451L455 111Z" fill="#FFA510"/>
<path d="M469 111L471.077 114.451L475 115.359L472.36 118.401L472.708 122.413L469 120.842L465.292 122.413L465.64 118.401L463 115.359L466.923 114.451L469 111Z" fill="#FFA510"/>
<path d="M441 111L443.077 114.451L447 115.359L444.36 118.401L444.708 122.413L441 120.842L437.292 122.413L437.64 118.401L435 115.359L438.923 114.451L441 111Z" fill="#FFA510"/>
<path d="M427 111L429.077 114.451L433 115.359L430.36 118.401L430.708 122.413L427 120.842L423.292 122.413L423.64 118.401L421 115.359L424.923 114.451L427 111Z" fill="#FFA510"/>
<path d="M413 111L415.077 114.451L419 115.359L416.36 118.401L416.708 122.413L413 120.842L409.292 122.413L409.64 118.401L407 115.359L410.923 114.451L413 111Z" fill="#FFA510"/>
<path d="M339.4 117.096C339.4 118.032 338.86 118.704 337.624 118.704H336.016V115.536H337.624C338.872 115.536 339.4 116.148 339.4 117.096ZM334.924 114.636V123H336.016V119.58H337.336L339.328 123H340.636L338.536 119.496C339.94 119.184 340.528 118.164 340.528 117.096C340.528 115.728 339.592 114.636 337.624 114.636H334.924ZM346.725 114.624H342.225V123H346.725V122.1H343.317V119.22H346.365V118.32H343.317V115.524H346.725V114.624ZM351.509 121.848L348.881 114.636H347.717L350.873 123H352.133L355.289 114.636H354.137L351.509 121.848ZM356.486 123H357.578V114.636H356.486V123ZM363.94 114.624H359.44V123H363.94V122.1H360.532V119.22H363.58V118.32H360.532V115.524H363.94V114.624ZM367.284 123.012L368.496 123L370.512 116.268L372.456 123H373.68L376.104 114.636H374.928L373.092 121.704L371.172 114.636H369.948L367.932 121.728L366.108 114.636H364.944L367.284 123.012ZM388.49 118.812C388.49 116.304 386.654 114.54 384.29 114.54C381.938 114.54 380.09 116.304 380.09 118.812C380.09 121.32 381.938 123.084 384.29 123.084C386.654 123.084 388.49 121.32 388.49 118.812ZM381.206 118.812C381.206 116.76 382.526 115.488 384.29 115.488C386.054 115.488 387.374 116.76 387.374 118.812C387.374 120.852 386.054 122.136 384.29 122.136C382.526 122.136 381.206 120.852 381.206 118.812ZM395.416 114.624V121.272L391.024 114.624H389.932V123H391.024V116.34L395.416 123H396.508V114.624H395.416Z" fill="#666666"/>
<path d="M407.585 142.875V141.523H410.289V151H408.794V142.875H407.585ZM418.175 142.797H413.82V145.384C414.002 145.141 414.271 144.938 414.626 144.773C414.99 144.608 415.376 144.526 415.783 144.526C416.511 144.526 417.1 144.682 417.551 144.994C418.01 145.306 418.335 145.7 418.526 146.177C418.725 146.654 418.825 147.156 418.825 147.685C418.825 148.326 418.699 148.898 418.448 149.401C418.205 149.895 417.837 150.285 417.343 150.571C416.858 150.857 416.26 151 415.549 151C414.604 151 413.846 150.766 413.274 150.298C412.702 149.83 412.36 149.21 412.247 148.439H413.69C413.785 148.846 413.998 149.171 414.327 149.414C414.656 149.648 415.068 149.765 415.562 149.765C416.177 149.765 416.637 149.579 416.94 149.206C417.252 148.833 417.408 148.339 417.408 147.724C417.408 147.1 417.252 146.623 416.94 146.294C416.628 145.956 416.169 145.787 415.562 145.787C415.137 145.787 414.778 145.895 414.483 146.112C414.197 146.32 413.989 146.606 413.859 146.97H412.455V141.497H418.175V142.797ZM428.113 151L426.033 147.386H424.902V151H423.42V141.965H426.54C427.233 141.965 427.818 142.086 428.295 142.329C428.78 142.572 429.14 142.897 429.374 143.304C429.616 143.711 429.738 144.166 429.738 144.669C429.738 145.258 429.564 145.796 429.218 146.281C428.88 146.758 428.355 147.083 427.645 147.256L429.881 151H428.113ZM424.902 146.203H426.54C427.094 146.203 427.51 146.064 427.788 145.787C428.074 145.51 428.217 145.137 428.217 144.669C428.217 144.201 428.078 143.837 427.801 143.577C427.523 143.308 427.103 143.174 426.54 143.174H424.902V146.203ZM432.855 143.161V145.813H435.975V147.022H432.855V149.791H436.365V151H431.373V141.952H436.365V143.161H432.855ZM445.718 141.965L442.325 151H440.609L437.203 141.965H438.789L441.467 149.479L444.158 141.965H445.718ZM448.179 141.965V151H446.697V141.965H448.179ZM451.347 143.161V145.813H454.467V147.022H451.347V149.791H454.857V151H449.865V141.952H454.857V143.161H451.347ZM468.187 141.965L465.509 151H463.832L461.934 144.162L459.919 151L458.255 151.013L455.694 141.965H457.267L459.139 149.323L461.167 141.965H462.831L464.716 149.284L466.601 141.965H468.187ZM472.127 151.091C471.52 151.091 470.974 150.987 470.489 150.779C470.003 150.562 469.622 150.259 469.345 149.869C469.067 149.479 468.929 149.024 468.929 148.504H470.515C470.549 148.894 470.701 149.215 470.97 149.466C471.247 149.717 471.633 149.843 472.127 149.843C472.638 149.843 473.037 149.722 473.323 149.479C473.609 149.228 473.752 148.907 473.752 148.517C473.752 148.214 473.661 147.967 473.479 147.776C473.305 147.585 473.084 147.438 472.816 147.334C472.556 147.23 472.192 147.117 471.724 146.996C471.134 146.84 470.653 146.684 470.281 146.528C469.917 146.363 469.605 146.112 469.345 145.774C469.085 145.436 468.955 144.985 468.955 144.422C468.955 143.902 469.085 143.447 469.345 143.057C469.605 142.667 469.969 142.368 470.437 142.16C470.905 141.952 471.446 141.848 472.062 141.848C472.937 141.848 473.652 142.069 474.207 142.511C474.77 142.944 475.082 143.542 475.143 144.305H473.505C473.479 143.976 473.323 143.694 473.037 143.46C472.751 143.226 472.374 143.109 471.906 143.109C471.481 143.109 471.134 143.217 470.866 143.434C470.597 143.651 470.463 143.963 470.463 144.37C470.463 144.647 470.545 144.877 470.71 145.059C470.883 145.232 471.1 145.371 471.36 145.475C471.62 145.579 471.975 145.692 472.426 145.813C473.024 145.978 473.509 146.142 473.882 146.307C474.263 146.472 474.584 146.727 474.844 147.074C475.112 147.412 475.247 147.867 475.247 148.439C475.247 148.898 475.121 149.332 474.87 149.739C474.627 150.146 474.267 150.476 473.791 150.727C473.323 150.97 472.768 151.091 472.127 151.091Z" fill="#666666"/>
<path d="M350.08 135H352.748V151.472H350.08V135Z" fill="#17313B"/>
<path d="M362.028 146.252C362.028 148.804 359.94 149.036 359.244 149.036C357.62 149.036 357.388 147.528 357.388 146.716V140.336H354.72V146.6C354.72 148.108 355.184 149.5 356.112 150.312C356.924 151.124 357.968 151.472 359.244 151.472C360.172 151.472 361.332 151.24 362.028 150.544V151.472H364.696V140.336H362.028V146.252Z" fill="#17313B"/>
<path d="M369.916 136.276H367.248V140.336H365.276V142.888H367.248V151.472H369.916V142.888H371.888V140.336H369.916V136.276Z" fill="#17313B"/>
<path d="M380.24 148.108C379.66 148.572 378.848 148.92 378.036 148.92C376.18 148.92 374.904 147.528 374.904 145.672C374.904 143.816 376.18 142.54 378.036 142.54C378.848 142.54 379.66 142.772 380.24 143.352L380.588 143.7L382.444 141.96L381.98 141.612C380.936 140.684 379.544 140.104 378.036 140.104C374.788 140.104 372.352 142.54 372.352 145.788C372.352 149.036 374.788 151.472 378.036 151.472C379.544 151.472 380.936 150.892 381.98 149.964L382.444 149.616L380.588 147.76L380.24 148.108Z" fill="#17313B"/>
<path d="M391.84 141.264C391.028 140.452 390.216 140.104 388.94 140.104C388.012 140.104 387.084 140.336 386.388 141.032V135H383.72V151.472H386.388V145.324C386.388 142.772 388.128 142.54 388.824 142.54C390.448 142.54 390.332 144.048 390.332 144.86V151.356H393V144.976C393 143.468 392.652 142.076 391.84 141.264Z" fill="#17313B"/>
<path d="M377.92 147.644C378.945 147.644 379.776 146.813 379.776 145.788C379.776 144.763 378.945 143.932 377.92 143.932C376.895 143.932 376.064 144.763 376.064 145.788C376.064 146.813 376.895 147.644 377.92 147.644Z" fill="#EF4335"/>
<path d="M346.368 147.412C345.44 148.34 344.048 148.92 342.54 148.92C339.64 148.92 337.552 146.6 337.552 143.468C337.552 140.336 339.64 138.016 342.656 138.016C344.048 138.016 345.44 138.596 346.484 139.64L346.832 139.988L348.572 138.248L348.224 137.9C346.716 136.392 344.744 135.58 342.656 135.58C338.248 135.464 335 138.944 335 143.468C335 147.992 338.248 151.472 342.54 151.472C344.628 151.472 346.716 150.66 348.108 149.152L348.456 148.804L346.716 147.064L346.368 147.412Z" fill="#17313B"/>
<rect x="57.9998" y="309" width="235" height="196" rx="24.6753" fill="white"/>
<path d="M154 369C154 356.85 163.85 347 176 347C188.15 347 198 356.85 198 369C198 381.15 188.15 391 176 391C163.85 391 154 381.15 154 369Z" fill="#FF5502"/>
<path d="M168.211 372.097C168.087 372.345 168.135 372.646 168.332 372.842L168.489 373C168.945 372.46 169.475 371.875 170.119 371.231C170.164 371.186 170.211 371.164 170.257 371.122L169.243 370.107C168.654 371.174 168.31 371.902 168.211 372.097Z" fill="white"/>
<path d="M173.765 374.877C173.12 375.522 172.536 376.054 171.999 376.51L172.213 376.723C172.411 376.921 172.714 376.969 172.963 376.841C173.297 376.668 173.822 376.421 174.936 375.801L173.875 374.739C173.833 374.785 173.811 374.831 173.765 374.877Z" fill="white"/>
<path d="M173.421 371.575C172.956 371.11 171.646 371.527 171.03 372.142C168.972 374.201 168.042 375.66 167.625 376.522C167.505 376.769 167.555 377.065 167.749 377.259C167.943 377.453 168.239 377.502 168.487 377.383C169.329 376.974 170.771 376.048 172.854 373.966C173.53 373.289 173.864 372.018 173.422 371.576L173.421 371.575Z" fill="white"/>
<path d="M167.012 366.581L165.189 368.404C164.983 368.61 164.94 368.93 165.086 369.182C165.229 369.432 165.527 369.559 165.811 369.483C166.796 369.219 167.663 369.107 168.247 369.257C169.078 367.78 169.97 366.421 170.915 365.186C170.369 364.836 168.562 365.031 167.012 366.581Z" fill="white"/>
<path d="M175.909 379.931C176.158 380.056 176.458 380.008 176.655 379.811L178.478 377.988C179.889 376.576 180.138 374.755 179.818 374.177C178.44 375.215 177.046 376.091 175.744 376.825C175.834 377.332 175.774 377.824 175.562 379.261C175.52 379.539 175.664 379.808 175.909 379.931Z" fill="white"/>
<path d="M177.796 364.465C177.042 365.219 177.042 366.446 177.796 367.2C178.55 367.954 179.777 367.954 180.531 367.2C181.285 366.446 181.285 365.219 180.531 364.465C179.777 363.711 178.55 363.711 177.796 364.465Z" fill="white"/>
<path d="M186.962 358.629C186.939 358.31 186.685 358.058 186.367 358.034C184.784 357.915 183.208 358.11 181.662 358.582C181.778 359.644 182.328 360.793 183.265 361.731C184.214 362.68 185.394 363.229 186.475 363.331C186.891 361.873 187.089 360.31 186.962 358.629Z" fill="white"/>
<path d="M182.354 362.642C181.281 361.57 180.626 360.283 180.416 359.031C176.546 360.618 172.841 364.085 169.913 368.954L171.367 370.409C172.361 370.005 173.568 369.899 174.333 370.664C175.099 371.43 174.991 372.636 174.587 373.629L176.09 375.131C179.836 372.873 184.198 369.315 186.053 364.582C184.77 364.389 183.444 363.732 182.354 362.642ZM181.442 368.111C180.186 369.368 178.141 369.368 176.885 368.111C175.628 366.855 175.628 364.81 176.885 363.554C178.141 362.297 180.186 362.297 181.442 363.554C182.698 364.81 182.698 366.855 181.442 368.111Z" fill="white"/>
<path d="M120.71 414.25V410.298H128.614V438H124.244V414.25H120.71ZM152.425 414.022H139.695V421.584C140.227 420.875 141.012 420.279 142.051 419.798C143.115 419.317 144.242 419.076 145.433 419.076C147.561 419.076 149.284 419.532 150.601 420.444C151.944 421.356 152.894 422.509 153.451 423.902C154.034 425.295 154.325 426.765 154.325 428.31C154.325 430.185 153.958 431.857 153.223 433.326C152.514 434.77 151.437 435.91 149.993 436.746C148.574 437.582 146.826 438 144.749 438C141.988 438 139.771 437.316 138.099 435.948C136.427 434.58 135.426 432.769 135.097 430.514H139.315C139.594 431.705 140.214 432.655 141.177 433.364C142.14 434.048 143.343 434.39 144.787 434.39C146.586 434.39 147.928 433.845 148.815 432.756C149.727 431.667 150.183 430.223 150.183 428.424C150.183 426.6 149.727 425.207 148.815 424.244C147.903 423.256 146.56 422.762 144.787 422.762C143.546 422.762 142.494 423.079 141.633 423.712C140.797 424.32 140.189 425.156 139.809 426.22H135.705V410.222H152.425V414.022ZM158.835 423.788C158.835 419.405 159.569 415.985 161.039 413.528C162.533 411.045 165.092 409.804 168.715 409.804C172.337 409.804 174.883 411.045 176.353 413.528C177.847 415.985 178.595 419.405 178.595 423.788C178.595 428.221 177.847 431.692 176.353 434.2C174.883 436.683 172.337 437.924 168.715 437.924C165.092 437.924 162.533 436.683 161.039 434.2C159.569 431.692 158.835 428.221 158.835 423.788ZM174.339 423.788C174.339 421.736 174.199 420.001 173.921 418.582C173.667 417.163 173.135 416.011 172.325 415.124C171.514 414.212 170.311 413.756 168.715 413.756C167.119 413.756 165.915 414.212 165.105 415.124C164.294 416.011 163.749 417.163 163.471 418.582C163.217 420.001 163.091 421.736 163.091 423.788C163.091 425.916 163.217 427.702 163.471 429.146C163.724 430.59 164.256 431.755 165.067 432.642C165.903 433.529 167.119 433.972 168.715 433.972C170.311 433.972 171.514 433.529 172.325 432.642C173.161 431.755 173.705 430.59 173.959 429.146C174.212 427.702 174.339 425.916 174.339 423.788ZM183.178 423.788C183.178 419.405 183.913 415.985 185.382 413.528C186.877 411.045 189.436 409.804 193.058 409.804C196.681 409.804 199.227 411.045 200.696 413.528C202.191 415.985 202.938 419.405 202.938 423.788C202.938 428.221 202.191 431.692 200.696 434.2C199.227 436.683 196.681 437.924 193.058 437.924C189.436 437.924 186.877 436.683 185.382 434.2C183.913 431.692 183.178 428.221 183.178 423.788ZM198.682 423.788C198.682 421.736 198.543 420.001 198.264 418.582C198.011 417.163 197.479 416.011 196.668 415.124C195.858 414.212 194.654 413.756 193.058 413.756C191.462 413.756 190.259 414.212 189.448 415.124C188.638 416.011 188.093 417.163 187.814 418.582C187.561 420.001 187.434 421.736 187.434 423.788C187.434 425.916 187.561 427.702 187.814 429.146C188.068 430.59 188.6 431.755 189.41 432.642C190.246 433.529 191.462 433.972 193.058 433.972C194.654 433.972 195.858 433.529 196.668 432.642C197.504 431.755 198.049 430.59 198.302 429.146C198.556 427.702 198.682 425.916 198.682 423.788ZM228.498 426.106H220.822V433.972H216.794V426.106H209.118V422.458H216.794V414.592H220.822V422.458H228.498V426.106Z" fill="#333333"/>
<path d="M155.848 456.656C155.848 457.115 155.739 457.549 155.523 457.956C155.306 458.363 154.959 458.697 154.483 458.957C154.006 459.208 153.395 459.334 152.65 459.334H151.012V463H149.53V453.965H152.65C153.343 453.965 153.928 454.086 154.405 454.329C154.89 454.563 155.25 454.884 155.484 455.291C155.726 455.698 155.848 456.153 155.848 456.656ZM152.65 458.125C153.213 458.125 153.633 457.999 153.911 457.748C154.188 457.488 154.327 457.124 154.327 456.656C154.327 455.668 153.768 455.174 152.65 455.174H151.012V458.125H152.65ZM158.483 456.877C158.7 456.513 158.986 456.231 159.341 456.032C159.705 455.824 160.134 455.72 160.628 455.72V457.254H160.251C159.67 457.254 159.228 457.401 158.925 457.696C158.63 457.991 158.483 458.502 158.483 459.23V463H157.001V455.837H158.483V456.877ZM164.837 463.117C164.161 463.117 163.55 462.965 163.004 462.662C162.458 462.35 162.029 461.917 161.717 461.362C161.405 460.799 161.249 460.149 161.249 459.412C161.249 458.684 161.41 458.038 161.73 457.475C162.051 456.912 162.489 456.478 163.043 456.175C163.598 455.872 164.218 455.72 164.902 455.72C165.587 455.72 166.207 455.872 166.761 456.175C167.316 456.478 167.754 456.912 168.074 457.475C168.395 458.038 168.555 458.684 168.555 459.412C168.555 460.14 168.391 460.786 168.061 461.349C167.732 461.912 167.281 462.35 166.709 462.662C166.146 462.965 165.522 463.117 164.837 463.117ZM164.837 461.83C165.219 461.83 165.574 461.739 165.903 461.557C166.241 461.375 166.514 461.102 166.722 460.738C166.93 460.374 167.034 459.932 167.034 459.412C167.034 458.892 166.935 458.454 166.735 458.099C166.536 457.735 166.272 457.462 165.942 457.28C165.613 457.098 165.258 457.007 164.876 457.007C164.495 457.007 164.14 457.098 163.81 457.28C163.49 457.462 163.234 457.735 163.043 458.099C162.853 458.454 162.757 458.892 162.757 459.412C162.757 460.183 162.952 460.781 163.342 461.206C163.741 461.622 164.239 461.83 164.837 461.83ZM170.514 454.888C170.246 454.888 170.02 454.797 169.838 454.615C169.656 454.433 169.565 454.208 169.565 453.939C169.565 453.67 169.656 453.445 169.838 453.263C170.02 453.081 170.246 452.99 170.514 452.99C170.774 452.99 170.995 453.081 171.177 453.263C171.359 453.445 171.45 453.67 171.45 453.939C171.45 454.208 171.359 454.433 171.177 454.615C170.995 454.797 170.774 454.888 170.514 454.888ZM171.242 464.404C171.242 465.106 171.065 465.613 170.709 465.925C170.363 466.246 169.856 466.406 169.188 466.406H168.421V465.158H168.928C169.232 465.158 169.444 465.097 169.565 464.976C169.695 464.863 169.76 464.673 169.76 464.404V455.837H171.242V464.404ZM179.493 459.243C179.493 459.512 179.476 459.754 179.441 459.971H173.968C174.011 460.543 174.224 461.002 174.605 461.349C174.986 461.696 175.454 461.869 176.009 461.869C176.806 461.869 177.37 461.535 177.699 460.868H179.298C179.081 461.527 178.687 462.068 178.115 462.493C177.552 462.909 176.85 463.117 176.009 463.117C175.324 463.117 174.709 462.965 174.163 462.662C173.626 462.35 173.201 461.917 172.889 461.362C172.586 460.799 172.434 460.149 172.434 459.412C172.434 458.675 172.581 458.03 172.876 457.475C173.179 456.912 173.6 456.478 174.137 456.175C174.683 455.872 175.307 455.72 176.009 455.72C176.685 455.72 177.287 455.867 177.816 456.162C178.345 456.457 178.756 456.873 179.051 457.41C179.346 457.939 179.493 458.55 179.493 459.243ZM177.946 458.775C177.937 458.229 177.742 457.791 177.361 457.462C176.98 457.133 176.507 456.968 175.944 456.968C175.433 456.968 174.995 457.133 174.631 457.462C174.267 457.783 174.05 458.22 173.981 458.775H177.946ZM180.197 459.412C180.197 458.675 180.345 458.03 180.639 457.475C180.943 456.912 181.359 456.478 181.887 456.175C182.416 455.872 183.023 455.72 183.707 455.72C184.574 455.72 185.289 455.928 185.852 456.344C186.424 456.751 186.81 457.336 187.009 458.099H185.41C185.28 457.744 185.072 457.466 184.786 457.267C184.5 457.068 184.141 456.968 183.707 456.968C183.101 456.968 182.615 457.185 182.251 457.618C181.896 458.043 181.718 458.641 181.718 459.412C181.718 460.183 181.896 460.786 182.251 461.219C182.615 461.652 183.101 461.869 183.707 461.869C184.565 461.869 185.133 461.492 185.41 460.738H187.009C186.801 461.466 186.411 462.047 185.839 462.48C185.267 462.905 184.557 463.117 183.707 463.117C183.023 463.117 182.416 462.965 181.887 462.662C181.359 462.35 180.943 461.917 180.639 461.362C180.345 460.799 180.197 460.149 180.197 459.412ZM189.955 457.046V461.011C189.955 461.28 190.016 461.475 190.137 461.596C190.267 461.709 190.484 461.765 190.787 461.765H191.697V463H190.527C189.86 463 189.349 462.844 188.993 462.532C188.638 462.22 188.46 461.713 188.46 461.011V457.046H187.615V455.837H188.46V454.056H189.955V455.837H191.697V457.046H189.955ZM195.403 463.117C194.84 463.117 194.333 463.017 193.882 462.818C193.44 462.61 193.089 462.333 192.829 461.986C192.569 461.631 192.431 461.236 192.413 460.803H193.947C193.973 461.106 194.116 461.362 194.376 461.57C194.645 461.769 194.979 461.869 195.377 461.869C195.793 461.869 196.114 461.791 196.339 461.635C196.573 461.47 196.69 461.262 196.69 461.011C196.69 460.742 196.56 460.543 196.3 460.413C196.049 460.283 195.646 460.14 195.091 459.984C194.554 459.837 194.116 459.694 193.778 459.555C193.44 459.416 193.146 459.204 192.894 458.918C192.652 458.632 192.53 458.255 192.53 457.787C192.53 457.406 192.643 457.059 192.868 456.747C193.094 456.426 193.414 456.175 193.83 455.993C194.255 455.811 194.74 455.72 195.286 455.72C196.101 455.72 196.755 455.928 197.249 456.344C197.752 456.751 198.021 457.31 198.055 458.021H196.573C196.547 457.7 196.417 457.445 196.183 457.254C195.949 457.063 195.633 456.968 195.234 456.968C194.844 456.968 194.545 457.042 194.337 457.189C194.129 457.336 194.025 457.531 194.025 457.774C194.025 457.965 194.095 458.125 194.233 458.255C194.372 458.385 194.541 458.489 194.74 458.567C194.94 458.636 195.234 458.727 195.624 458.84C196.144 458.979 196.569 459.122 196.898 459.269C197.236 459.408 197.527 459.616 197.769 459.893C198.012 460.17 198.138 460.539 198.146 460.998C198.146 461.405 198.034 461.769 197.808 462.09C197.583 462.411 197.262 462.662 196.846 462.844C196.439 463.026 195.958 463.117 195.403 463.117Z" fill="#666666"/>
<g filter="url(#filter1_d)">
<rect x="239" y="237.701" width="273" height="203.9" rx="31.7178" fill="#A2D3FF"/>
</g>
<g filter="url(#filter2_d)">
<rect x="271" y="199" width="226" height="70" rx="35" fill="white"/>
</g>
<path d="M324.663 252.726V256.002H326.145V252.726L329.135 246.967H327.497L325.404 251.4L323.311 246.967H321.66L324.663 252.726ZM333.327 249.97C334.432 249.97 335.303 250.672 335.329 251.777H331.364C331.52 250.646 332.326 249.97 333.327 249.97ZM336.681 253.87H335.082C334.809 254.429 334.302 254.871 333.392 254.871C332.3 254.871 331.455 254.156 331.351 252.973H336.824C336.863 252.726 336.876 252.492 336.876 252.245C336.876 250.139 335.433 248.722 333.392 248.722C331.273 248.722 329.817 250.165 329.817 252.414C329.817 254.663 331.338 256.119 333.392 256.119C335.147 256.119 336.278 255.118 336.681 253.87ZM337.84 252.388C337.84 254.598 339.335 256.119 341.194 256.119C342.39 256.119 343.248 255.547 343.703 254.936V256.002H345.198V248.839H343.703V249.879C343.261 249.294 342.429 248.722 341.22 248.722C339.335 248.722 337.84 250.178 337.84 252.388ZM343.703 252.414C343.703 253.961 342.65 254.832 341.532 254.832C340.427 254.832 339.361 253.935 339.361 252.388C339.361 250.841 340.427 250.009 341.532 250.009C342.65 250.009 343.703 250.88 343.703 252.414ZM348.627 252.232C348.627 250.711 349.303 250.256 350.395 250.256H350.772V248.722C349.758 248.722 349.043 249.164 348.627 249.879V248.839H347.145V256.002H348.627V252.232ZM357.477 254C357.399 251.413 353.356 252.219 353.356 250.776C353.356 250.295 353.772 249.97 354.565 249.97C355.371 249.97 355.852 250.399 355.904 251.023H357.386C357.308 249.593 356.242 248.722 354.617 248.722C352.927 248.722 351.861 249.645 351.861 250.789C351.861 253.415 356.021 252.609 356.021 254.013C356.021 254.507 355.566 254.871 354.708 254.871C353.889 254.871 353.33 254.39 353.278 253.805H351.744C351.809 255.105 353.018 256.119 354.734 256.119C356.424 256.119 357.477 255.209 357.477 254ZM369.28 252.414C369.28 250.165 367.668 248.722 365.627 248.722C363.586 248.722 361.974 250.165 361.974 252.414C361.974 254.663 363.521 256.119 365.562 256.119C367.616 256.119 369.28 254.663 369.28 252.414ZM363.482 252.414C363.482 250.789 364.483 250.009 365.601 250.009C366.706 250.009 367.759 250.789 367.759 252.414C367.759 254.039 366.667 254.832 365.562 254.832C364.444 254.832 363.482 254.039 363.482 252.414ZM370.927 256.002H372.422V250.048H373.748V248.839H372.422V248.332C372.422 247.513 372.734 247.201 373.644 247.201V245.966C371.772 245.966 370.927 246.681 370.927 248.332V248.839H370.082V250.048H370.927V256.002ZM383.431 246.954H378.439V256.002H383.431V254.793H379.921V252.024H383.041V250.815H379.921V248.163H383.431V246.954ZM388.961 256.002H390.638L388.324 252.375L390.638 248.839H389.091L387.635 251.27L386.088 248.839H384.411L386.725 252.479L384.411 256.002H385.958L387.414 253.571L388.961 256.002ZM391.249 252.414C391.249 254.663 392.705 256.119 394.759 256.119C396.514 256.119 397.658 255.144 398.061 253.74H396.462C396.189 254.481 395.643 254.871 394.759 254.871C393.563 254.871 392.77 253.987 392.77 252.414C392.77 250.854 393.563 249.97 394.759 249.97C395.643 249.97 396.215 250.412 396.462 251.101H398.061C397.658 249.593 396.514 248.722 394.759 248.722C392.705 248.722 391.249 250.178 391.249 252.414ZM402.554 249.97C403.659 249.97 404.53 250.672 404.556 251.777H400.591C400.747 250.646 401.553 249.97 402.554 249.97ZM405.908 253.87H404.309C404.036 254.429 403.529 254.871 402.619 254.871C401.527 254.871 400.682 254.156 400.578 252.973H406.051C406.09 252.726 406.103 252.492 406.103 252.245C406.103 250.139 404.66 248.722 402.619 248.722C400.5 248.722 399.044 250.165 399.044 252.414C399.044 254.663 400.565 256.119 402.619 256.119C404.374 256.119 405.505 255.118 405.908 253.87ZM407.562 256.002H409.044V246.382H407.562V256.002ZM410.989 256.002H412.471V246.382H410.989V256.002ZM417.433 249.97C418.538 249.97 419.409 250.672 419.435 251.777H415.47C415.626 250.646 416.432 249.97 417.433 249.97ZM420.787 253.87H419.188C418.915 254.429 418.408 254.871 417.498 254.871C416.406 254.871 415.561 254.156 415.457 252.973H420.93C420.969 252.726 420.982 252.492 420.982 252.245C420.982 250.139 419.539 248.722 417.498 248.722C415.379 248.722 413.923 250.165 413.923 252.414C413.923 254.663 415.444 256.119 417.498 256.119C419.253 256.119 420.384 255.118 420.787 253.87ZM427.524 256.002H428.993V251.777C428.993 249.775 427.732 248.722 426.055 248.722C425.197 248.722 424.404 249.073 423.923 249.658V248.839H422.441V256.002H423.923V251.998C423.923 250.685 424.638 250.009 425.73 250.009C426.809 250.009 427.524 250.685 427.524 251.998V256.002ZM430.389 252.414C430.389 254.663 431.845 256.119 433.899 256.119C435.654 256.119 436.798 255.144 437.201 253.74H435.602C435.329 254.481 434.783 254.871 433.899 254.871C432.703 254.871 431.91 253.987 431.91 252.414C431.91 250.854 432.703 249.97 433.899 249.97C434.783 249.97 435.355 250.412 435.602 251.101H437.201C436.798 249.593 435.654 248.722 433.899 248.722C431.845 248.722 430.389 250.178 430.389 252.414ZM441.694 249.97C442.799 249.97 443.67 250.672 443.696 251.777H439.731C439.887 250.646 440.693 249.97 441.694 249.97ZM445.048 253.87H443.449C443.176 254.429 442.669 254.871 441.759 254.871C440.667 254.871 439.822 254.156 439.718 252.973H445.191C445.23 252.726 445.243 252.492 445.243 252.245C445.243 250.139 443.8 248.722 441.759 248.722C439.64 248.722 438.184 250.165 438.184 252.414C438.184 254.663 439.705 256.119 441.759 256.119C443.514 256.119 444.645 255.118 445.048 253.87Z" fill="#676868"/>
<path d="M377.591 235H372.385V218.508H366.457V214.974C368.231 214.949 369.713 214.505 370.903 213.644C372.094 212.757 372.816 211.655 373.069 210.338H377.591V235ZM381.782 228.084L386.684 226.982C386.734 228.147 387.165 229.135 387.976 229.946C388.812 230.731 389.876 231.124 391.168 231.124C392.384 231.124 393.397 230.757 394.208 230.022C395.018 229.287 395.424 228.312 395.424 227.096C395.424 225.753 394.993 224.727 394.132 224.018C393.296 223.309 392.27 222.954 391.054 222.954C389.508 222.954 388.242 223.511 387.254 224.626C385.455 223.942 383.859 223.397 382.466 222.992L385.392 210.338H399.3V214.86H388.964L387.748 220.294C388.837 219.281 390.319 218.774 392.194 218.774C394.727 218.774 396.766 219.509 398.312 220.978C399.857 222.422 400.63 224.436 400.63 227.02C400.63 229.401 399.768 231.428 398.046 233.1C396.323 234.772 394.03 235.608 391.168 235.608C388.584 235.608 386.405 234.861 384.632 233.366C382.884 231.871 381.934 230.111 381.782 228.084Z" fill="#FF5502"/>
<rect x="257.124" y="297.739" width="17.807" height="3.61504" rx="1.80752" fill="#CAE3FD"/>
<rect x="257.124" y="321.744" width="17.807" height="3.61504" rx="1.80752" fill="#CAE3FD"/>
<rect x="257.124" y="345.749" width="17.807" height="3.61504" rx="1.80752" fill="#CAE3FD"/>
<rect x="257.124" y="369.753" width="17.807" height="3.61504" rx="1.80752" fill="#CAE3FD"/>
<rect x="257.124" y="393.759" width="17.807" height="3.61504" rx="1.80752" fill="#CAE3FD"/>
<rect x="257.124" y="417.764" width="17.807" height="3.61504" rx="1.80752" fill="#CAE3FD"/>
<path d="M285.444 298.884L490.477 297.727" stroke="#C8DEF5" stroke-width="1.13278" stroke-linecap="round"/>
<path d="M285.444 323.505L490.477 322.348" stroke="#C8DEF5" stroke-width="1.13278" stroke-linecap="round"/>
<path d="M285.444 348.126L490.477 346.969" stroke="#C8DEF5" stroke-width="1.13278" stroke-linecap="round"/>
<path d="M285.444 372.748L490.477 371.591" stroke="#C8DEF5" stroke-width="1.13278" stroke-linecap="round"/>
<path d="M285.444 393.87L490.236 392.714" stroke="#C8DEF5" stroke-linecap="round"/>
<path d="M285.444 421.99L490.477 420.833" stroke="#C8DEF5" stroke-width="1.13278" stroke-linecap="round"/>
<rect x="471.964" y="308" width="18" height="113.45" rx="9" fill="#3497EF"/>
<rect x="441" y="324" width="18" height="97.43" rx="9" fill="#F0D7C2"/>
<rect x="410.168" y="337" width="18" height="84.94" rx="9" fill="#3497EF"/>
<rect x="379" y="348" width="18" height="73.54" rx="9" fill="#F0D7C2"/>
<rect x="348" y="357" width="18" height="64.13" rx="9" fill="#3497EF"/>
<rect x="317" y="370" width="18" height="51.61" rx="9" fill="#F0D7C2"/>
<rect x="286.577" y="383" width="18" height="38.1612" rx="9" fill="#3497EF"/>
<defs>
<filter id="filter0_d" x="-0.000366211" y="25" width="351" height="351" filterUnits="userSpaceOnUse" color-interpolation-filters="sRGB">
<feFlood flood-opacity="0" result="BackgroundImageFix"/>
<feColorMatrix in="SourceAlpha" type="matrix" values="0 0 0 0 0 0 0 0 0 0 0 0 0 0 0 0 0 0 127 0" result="hardAlpha"/>
<feOffset dy="29"/>
<feGaussianBlur stdDeviation="29"/>
<feColorMatrix type="matrix" values="0 0 0 0 0.0980392 0 0 0 0 0.462745 0 0 0 0 0.823529 0 0 0 0.1 0"/>
<feBlend mode="normal" in2="BackgroundImageFix" result="effect1_dropShadow"/>
<feBlend mode="normal" in="SourceGraphic" in2="effect1_dropShadow" result="shape"/>
</filter>
<filter id="filter1_d" x="142.515" y="208.731" width="388.94" height="319.84" filterUnits="userSpaceOnUse" color-interpolation-filters="sRGB">
<feFlood flood-opacity="0" result="BackgroundImageFix"/>
<feColorMatrix in="SourceAlpha" type="matrix" values="0 0 0 0 0 0 0 0 0 0 0 0 0 0 0 0 0 0 127 0" result="hardAlpha"/>
<feOffset dx="-38.5145" dy="29"/>
<feGaussianBlur stdDeviation="28.985"/>
<feColorMatrix type="matrix" values="0 0 0 0 0.721569 0 0 0 0 0.831373 0 0 0 0 0.945098 0 0 0 0.15 0"/>
<feBlend mode="normal" in2="BackgroundImageFix" result="effect1_dropShadow"/>
<feBlend mode="normal" in="SourceGraphic" in2="effect1_dropShadow" result="shape"/>
</filter>
<filter id="filter2_d" x="182.643" y="149.158" width="402.714" height="246.714" filterUnits="userSpaceOnUse" color-interpolation-filters="sRGB">
<feFlood flood-opacity="0" result="BackgroundImageFix"/>
<feColorMatrix in="SourceAlpha" type="matrix" values="0 0 0 0 0 0 0 0 0 0 0 0 0 0 0 0 0 0 127 0" result="hardAlpha"/>
<feOffset dy="38.5145"/>
<feGaussianBlur stdDeviation="44.1784"/>
<feColorMatrix type="matrix" values="0 0 0 0 0.958333 0 0 0 0 0.837211 0 0 0 0 0.802604 0 0 0 0.46 0"/>
<feBlend mode="normal" in2="BackgroundImageFix" result="effect1_dropShadow"/>
<feBlend mode="normal" in="SourceGraphic" in2="effect1_dropShadow" result="shape"/>
</filter>
</defs>
</svg>
