<svg id="blog" xmlns="http://www.w3.org/2000/svg" width="64.286" height="60" viewBox="0 0 64.286 60">
  <g id="Group_12" data-name="Group 12">
    <g id="Group_11" data-name="Group 11">
      <path id="Path_9" data-name="Path 9" d="M63.214,67.428H62.143V28.856a4.286,4.286,0,0,0-4.286-4.286H48.214v-7.5a1.071,1.071,0,0,0-1.269-1.053l-6.429,1.205-1.071.2L29.9,19.213H23.571a2.143,2.143,0,0,0-2.143,2.143,5.357,5.357,0,0,0-4.9,3.214H6.429a4.286,4.286,0,0,0-4.286,4.286V67.428H1.071A1.071,1.071,0,0,0,0,68.5v3.214A4.286,4.286,0,0,0,4.286,76H60a4.286,4.286,0,0,0,4.286-4.286V68.5A1.071,1.071,0,0,0,63.214,67.428ZM31.071,21.174l15-2.812V35.071l-15-2.818Zm0,13.254,2.143.4v1.527H31.071Zm-7.5-13.071h5.357V32.071H23.571Zm2.143,19.286V34.213h3.214v6.429Zm3.214,2.143v1.607a1.607,1.607,0,0,1-3.214,0V42.785ZM21.429,23.5v6.429a3.214,3.214,0,1,1,0-6.429ZM4.286,28.856a2.143,2.143,0,0,1,2.143-2.143h9.643a5.364,5.364,0,0,0,5.357,5.357,2.143,2.143,0,0,0,2.143,2.143V44.392a3.75,3.75,0,0,0,7.5,0V38.5h3.214a1.071,1.071,0,0,0,1.071-1.071V35.237l11.589,2.173a1.106,1.106,0,0,0,.2.018,1.071,1.071,0,0,0,1.071-1.071V26.713h9.643A2.143,2.143,0,0,1,60,28.856V67.428H41.786a1.072,1.072,0,0,0-.757.313L39.2,69.57H25.086l-1.829-1.83a1.072,1.072,0,0,0-.757-.313H4.286ZM62.143,71.713A2.143,2.143,0,0,1,60,73.856H4.286a2.143,2.143,0,0,1-2.143-2.143V69.57H22.056L23.885,71.4a1.071,1.071,0,0,0,.757.314h15A1.071,1.071,0,0,0,40.4,71.4l1.829-1.829H62.143Z" transform="translate(0 -15.999)" fill="#d85b1a"/>
    </g>
  </g>
  <g id="Group_14" data-name="Group 14" transform="translate(7.5 13.929)">
    <g id="Group_13" data-name="Group 13">
      <path id="Path_10" data-name="Path 10" d="M104.214,120H99.928v2.143h3.214v28.929h-45V122.143H63.5V120H57.071A1.071,1.071,0,0,0,56,121.071v31.071a1.071,1.071,0,0,0,1.071,1.071h47.143a1.071,1.071,0,0,0,1.071-1.071V121.071A1.071,1.071,0,0,0,104.214,120Z" transform="translate(-56 -120)" fill="#d85b1a"/>
    </g>
  </g>
  <g id="Group_16" data-name="Group 16" transform="translate(31.071 49.286)">
    <g id="Group_15" data-name="Group 15">
      <rect id="Rectangle_10" data-name="Rectangle 10" width="2.143" height="2.143" fill="#d85b1a"/>
    </g>
  </g>
  <g id="Group_18" data-name="Group 18" transform="translate(15 35.357)">
    <g id="Group_17" data-name="Group 17">
      <rect id="Rectangle_11" data-name="Rectangle 11" width="2.143" height="2.143" fill="#d85b1a"/>
    </g>
  </g>
  <g id="Group_20" data-name="Group 20" transform="translate(19.286 35.357)">
    <g id="Group_19" data-name="Group 19">
      <rect id="Rectangle_12" data-name="Rectangle 12" width="32.143" height="2.143" fill="#d85b1a"/>
    </g>
  </g>
  <g id="Group_22" data-name="Group 22" transform="translate(12.857 39.643)">
    <g id="Group_21" data-name="Group 21">
      <rect id="Rectangle_13" data-name="Rectangle 13" width="35.357" height="2.143" fill="#d85b1a"/>
    </g>
  </g>
</svg>
