<svg xmlns="http://www.w3.org/2000/svg" width="69.697" height="60" viewBox="0 0 69.697 60">
  <g id="branding" transform="translate(0 -35.622)">
    <g id="Group_29" data-name="Group 29" transform="translate(0 68.364)">
      <path id="Path_11" data-name="Path 11" d="M18.435,276.18h-8.7a1.021,1.021,0,1,0,0,2.042h8.7a.155.155,0,0,1,.154.154v22.866a.155.155,0,0,1-.154.154H2.2a.155.155,0,0,1-.154-.154V278.376a.155.155,0,0,1,.154-.154H4.973a1.021,1.021,0,1,0,0-2.042H2.2a2.2,2.2,0,0,0-2.2,2.2v22.866a2.2,2.2,0,0,0,2.2,2.2H18.436a2.2,2.2,0,0,0,2.2-2.2V278.376A2.2,2.2,0,0,0,18.435,276.18Z" transform="translate(0 -276.18)" fill="#d85b1a"/>
      <path id="Path_12" data-name="Path 12" d="M62.388,329.14h5.277a1.021,1.021,0,0,0,0-2.042H62.388a1.021,1.021,0,0,0,0,2.042Z" transform="translate(-53.014 -320.168)" fill="#d85b1a"/>
      <path id="Path_13" data-name="Path 13" d="M46.133,354.908H37.464a1.021,1.021,0,0,0,0,2.042h8.669a1.021,1.021,0,0,0,0-2.042Z" transform="translate(-31.483 -344.192)" fill="#d85b1a"/>
      <path id="Path_14" data-name="Path 14" d="M47.154,383.739a1.021,1.021,0,0,0-1.021-1.021H37.464a1.021,1.021,0,0,0,0,2.042h8.669A1.021,1.021,0,0,0,47.154,383.739Z" transform="translate(-31.483 -368.217)" fill="#d85b1a"/>
      <path id="Path_15" data-name="Path 15" d="M37.464,410.528a1.021,1.021,0,0,0,0,2.042h4.919a1.021,1.021,0,0,0,0-2.042Z" transform="translate(-31.483 -392.242)" fill="#d85b1a"/>
    </g>
    <g id="Group_30" data-name="Group 30" transform="translate(22.985 35.622)">
      <path id="Path_16" data-name="Path 16" d="M213.39,35.622H176.364a2.2,2.2,0,0,0-2.2,2.2v2.65h-3.1a2.2,2.2,0,0,0-2.2,2.2V93.426a2.2,2.2,0,0,0,2.2,2.2H208.1a2.2,2.2,0,0,0,2.2-2.2v-2.65h3.1a2.2,2.2,0,0,0,2.2-2.2V37.818a2.2,2.2,0,0,0-2.2-2.2Zm.154,52.957a.155.155,0,0,1-.154.154h-3.1V81.91a1.021,1.021,0,1,0-2.042,0V93.426a.155.155,0,0,1-.155.154H171.07a.155.155,0,0,1-.154-.154V42.665a.155.155,0,0,1,.154-.154H208.1a.155.155,0,0,1,.155.154V77.14a1.021,1.021,0,1,0,2.042,0V42.665a2.2,2.2,0,0,0-2.2-2.2H176.21v-2.65a.155.155,0,0,1,.155-.154H213.39a.155.155,0,0,1,.154.154V88.579Z" transform="translate(-168.874 -35.622)" fill="#d85b1a"/>
      <path id="Path_17" data-name="Path 17" d="M331.116,238.958H316.752a1.021,1.021,0,0,0,0,2.042h14.364a1.021,1.021,0,0,0,0-2.042Z" transform="translate(-295.742 -211.282)" fill="#d85b1a"/>
      <path id="Path_18" data-name="Path 18" d="M290.639,270H269.9a1.021,1.021,0,1,0,0,2.042h20.742a1.021,1.021,0,0,0,0-2.042Z" transform="translate(-255.266 -238.096)" fill="#d85b1a"/>
      <path id="Path_19" data-name="Path 19" d="M290.639,301.034H269.9a1.021,1.021,0,0,0,0,2.042h20.742a1.021,1.021,0,1,0,0-2.042Z" transform="translate(-255.266 -264.909)" fill="#d85b1a"/>
      <path id="Path_20" data-name="Path 20" d="M290.639,332.072H269.9a1.021,1.021,0,1,0,0,2.042h20.742a1.021,1.021,0,0,0,0-2.042Z" transform="translate(-255.266 -291.723)" fill="#d85b1a"/>
      <path id="Path_21" data-name="Path 21" d="M277.448,363.11H269.9a1.021,1.021,0,0,0,0,2.042h7.551a1.021,1.021,0,0,0,0-2.042Z" transform="translate(-255.265 -318.536)" fill="#d85b1a"/>
      <path id="Path_22" data-name="Path 22" d="M205.843,106.785a5.072,5.072,0,1,0,5.072,5.072A5.078,5.078,0,0,0,205.843,106.785Zm0,8.1a3.03,3.03,0,1,1,3.03-3.03A3.034,3.034,0,0,1,205.843,114.887Z" transform="translate(-196.43 -97.099)" fill="#d85b1a"/>
      <path id="Path_23" data-name="Path 23" d="M231.555,203.534a1.021,1.021,0,0,0-1.021,1.021V231.1a1.021,1.021,0,0,0,2.042,0V204.555A1.021,1.021,0,0,0,231.555,203.534Z" transform="translate(-222.142 -180.68)" fill="#d85b1a"/>
    </g>
  </g>
</svg>
