<svg xmlns="http://www.w3.org/2000/svg" width="60" height="60" viewBox="0 0 60 60">
  <g id="trust" transform="translate(0 0.001)">
    <path id="Path_258" data-name="Path 258" d="M59,36H53.163l-5.407-1.8L46,29.807V26.5a4.489,4.489,0,0,0-4.007-4.45c0-.137.007-.274.007-.411V7a1,1,0,0,0-.713-.958l-20-6a1,1,0,0,0-.574,0l-20,6A1,1,0,0,0,0,7V21.639c0,.464.031.922.048,1.383.025.675.063,1.346.123,2.013.01.114.024.221.035.333A36.937,36.937,0,0,0,20.553,54.9a1,1,0,0,0,.894,0,37.424,37.424,0,0,0,4.322-2.546,4.031,4.031,0,0,0,1.167,1.076A4,4,0,0,0,30,60H47a1,1,0,0,0,.555-.168L53.3,56H59a1,1,0,0,0,1-1V37a1,1,0,0,0-1-1ZM37.357,31.086,38.523,34h-5.81a25.928,25.928,0,0,0,3.28-12.454L40,20.344v1.295c0,.214-.007.427-.011.641A4.493,4.493,0,0,0,37,26.5v2.729a4.991,4.991,0,0,0,.357,1.858ZM23,38a3.981,3.981,0,0,0,1.1,2.743c-.371.27-.735.55-1.118.8L21,42.81l-1.978-1.271A23.91,23.91,0,0,1,9.431,29.515l24.54-7.362A23.924,23.924,0,0,1,30.381,34H27a4,4,0,0,0-4,4ZM2.543,27.737c-.008-.05-.017-.1-.025-.148L6.492,26.4c.118.6.261,1.2.421,1.786L2.882,29.4c-.132-.574-.241-1.121-.339-1.659ZM2.082,23.72l3.955-1.187c.028.627.074,1.25.146,1.868L2.237,25.584c-.01-.09-.018-.179-.028-.269-.051-.516-.1-1.039-.127-1.6ZM34,12.056l-26,7.8V12.7L21.034,8.05,34,11.753Zm0,2.088v1.912L8.136,23.814q-.094-.932-.118-1.876Zm6,2.2v1.912l-4,1.2V17.543Zm0-2.088-4,1.2V13.543l4-1.2ZM8.416,25.818l16.272-4.881L34,18.143v1.912L8.828,27.607c-.158-.59-.3-1.185-.412-1.789ZM2,7.744l19-5.7,19,5.7v2.512l-4,1.2V11a1,1,0,0,0-.725-.961l-14-4a.99.99,0,0,0-.611.019l-14,5A1,1,0,0,0,6,12v8.456l-4,1.2ZM21,52.877A34.96,34.96,0,0,1,3.346,31.339l4.167-1.25A25.893,25.893,0,0,0,17.94,43.221l2.519,1.619a1,1,0,0,0,1.082,0l2.519-1.619.026-.017a3.953,3.953,0,0,0,1.853,4.222,3.859,3.859,0,0,0-.911,2.989A35.2,35.2,0,0,1,21,52.877ZM46.7,58H30a1.993,1.993,0,0,1-.166-3.979,1.021,1.021,0,0,0,.915-1.06,1,1,0,0,0-1-.961H29a2,2,0,1,1,0-4,1,1,0,1,0,0-2H28a2,2,0,1,1,0-4,1,1,0,1,0,0-2H27a2,2,0,1,1,0-4H40a1,1,0,0,0,.929-1.372l-1.714-4.284A2.977,2.977,0,0,1,39,29.228V26.5a2.5,2.5,0,0,1,5,0V30a1.022,1.022,0,0,0,.071.372l2,5a1.009,1.009,0,0,0,.613.577L52,37.721V54.464ZM58,54H54V38h4Zm0,0" fill="#d85b1a"/>
    <path id="Path_259" data-name="Path 259" d="M411.391,102.719l-1.367,1.46a14.941,14.941,0,0,1,1.285,1.364l1.538-1.279a17.015,17.015,0,0,0-1.456-1.545Zm0,0" transform="translate(-358.771 -89.88)" fill="#d85b1a"/>
    <path id="Path_260" data-name="Path 260" d="M449.754,193.837q0-.588-.04-1.165l-2,.135q.034.51.035,1.03,0,.425-.024.844l2,.115Q449.754,194.319,449.754,193.837Zm0,0" transform="translate(-391.754 -168.588)" fill="#d85b1a"/>
    <path id="Path_261" data-name="Path 261" d="M388.574,83.933a16.977,16.977,0,0,0-1.793-1.14l-.965,1.751a15.07,15.07,0,0,1,1.581,1Zm0,0" transform="translate(-337.59 -72.444)" fill="#d85b1a"/>
    <path id="Path_262" data-name="Path 262" d="M444.867,224.007l-1.968-.358a14.777,14.777,0,0,1-.45,1.817l1.906.6A16.845,16.845,0,0,0,444.867,224.007Zm0,0" transform="translate(-387.143 -195.693)" fill="#d85b1a"/>
    <path id="Path_263" data-name="Path 263" d="M360.513,70.931a16.771,16.771,0,0,0-2.021-.658l-.5,1.937a15.029,15.029,0,0,1,1.782.58Zm0,0" transform="translate(-313.243 -61.49)" fill="#d85b1a"/>
    <path id="Path_264" data-name="Path 264" d="M433,253.162l1.75.97c.2-.367.4-.743.571-1.128l-1.816-.836Q433.275,252.675,433,253.162Zm0,0" transform="translate(-378.875 -220.648)" fill="#d85b1a"/>
    <path id="Path_265" data-name="Path 265" d="M429.16,129.863a15.22,15.22,0,0,1,.908,1.636l1.806-.858a16.9,16.9,0,0,0-1.03-1.856Zm0,0" transform="translate(-375.515 -112.687)" fill="#d85b1a"/>
    <path id="Path_266" data-name="Path 266" d="M442,160.009a15.043,15.043,0,0,1,.472,1.811l1.963-.381a16.783,16.783,0,0,0-.536-2.056Zm0,0" transform="translate(-386.75 -139.461)" fill="#d85b1a"/>
    <path id="Path_267" data-name="Path 267" d="M357.382,138.578a6.354,6.354,0,0,1,4.014,5.928h2a8.344,8.344,0,0,0-5.271-7.785l-.357-.143-.744,1.856Zm0,0" transform="translate(-312.396 -119.506)" fill="#d85b1a"/>
  </g>
</svg>
