<svg id="Layer_1" data-name="Layer 1" xmlns="http://www.w3.org/2000/svg" viewBox="0 0 20 20"><rect width="20" height="20" style="fill:none"/><path d="M9.4,4.4c0,1.74,0,1.84,0,1.83a5.27,5.27,0,0,0-2,0,3.71,3.71,0,0,0-2.76,2A4.91,4.91,0,0,0,4.52,12a3.24,3.24,0,0,0,2,1.7A6.24,6.24,0,0,0,8.28,14a15.15,15.15,0,0,0,3.39-.28l.17,0V2.56H9.4ZM9.1,8.16l.3.06.1,0v1.94c0,1.06,0,1.94,0,1.94l-.2,0a5.18,5.18,0,0,1-1.12,0,1.75,1.75,0,0,1-1-.51,2.29,2.29,0,0,1-.45-1.71A2.17,2.17,0,0,1,7,9.08a1.73,1.73,0,0,1,1.71-.95A2.67,2.67,0,0,1,9.1,8.16Z"/><path d="M13.15,3.8V5.05h2.44V2.56H13.15Z"/><path d="M13.4,9c0,3.79,0,4.51-.28,5.26a3.06,3.06,0,0,1-1.77,1.91l-.31.18,1.11.54,1.11.52.2-.1a3.93,3.93,0,0,0,2.29-3.47c.06-.6.09-1.75.09-4.68V6.41H13.4Z"/></svg>