<svg xmlns="http://www.w3.org/2000/svg" width="60" height="60" viewBox="0 0 60 60">
  <g id="Graphic_Design-Sketch-Editor-Tools-Blueprint" data-name="Graphic Design-Sketch-Editor-Tools-Blueprint" transform="translate(-2 -2)">
    <path id="Path_53" data-name="Path 53" d="M33,28H25a1,1,0,0,0-1,1V54.59L3.71,34.29a1,1,0,0,0-1.09-.21A.987.987,0,0,0,2,35V61a1,1,0,0,0,1,1H33a1,1,0,0,0,1-1V29A1,1,0,0,0,33,28ZM4,60V37.41L26.59,60ZM32,32H28v2h4v2H30v2h2v2H30v2h2v2H28v2h4v2H30v2h2v2H30v2h2v2H28v2h4v2H29.41L26,56.59V30h6Z" fill="#d85b1a"/>
    <path id="Path_54" data-name="Path 54" d="M7,58H19.343a1,1,0,0,0,.707-1.707L7.707,43.949A1,1,0,0,0,6,44.656V57a1,1,0,0,0,1,1ZM8,47.07,16.929,56H8Z" fill="#d85b1a"/>
    <path id="Path_55" data-name="Path 55" d="M49,34H46.97A4.924,4.924,0,0,0,48,31a5.017,5.017,0,0,0-4-4.9V24H42v2.1A5.017,5.017,0,0,0,38,31a4.924,4.924,0,0,0,1.03,3H37a1,1,0,0,0-1,1V55a1.014,1.014,0,0,0,.4.8L40,58.5V62h2V40h2V62h2V58.5l3.6-2.7A1.014,1.014,0,0,0,50,55V35A1,1,0,0,0,49,34Zm-6-6a3,3,0,1,1-3,3,3,3,0,0,1,3-3ZM40,56l-2-1.5V40h2Zm8-1.5L46,56V40h2ZM48,38H38V36H48Z" fill="#d85b1a"/>
    <path id="Path_56" data-name="Path 56" d="M42,30h2v2H42Z" fill="#d85b1a"/>
    <path id="Path_57" data-name="Path 57" d="M61,24H53a1,1,0,0,0-1,1V52a.978.978,0,0,0,.09.41l4,9a1,1,0,0,0,1.82,0l4-9A.978.978,0,0,0,62,52V25A1,1,0,0,0,61,24Zm-7,8h2V51H54Zm3,26.54L56.32,57h1.36ZM58.57,55H55.43l-.89-2h4.92ZM60,51H58V32h2Zm0-21H54V26h6Z" fill="#d85b1a"/>
    <path id="Path_58" data-name="Path 58" d="M36,60h2v2H36Z" fill="#d85b1a"/>
    <path id="Path_59" data-name="Path 59" d="M50,60H48v2h2a5,5,0,0,0,3.75-1.693l-1.5-1.323A3,3,0,0,1,50,60Z" fill="#d85b1a"/>
    <path id="Path_60" data-name="Path 60" d="M54.71,10.29l-8-8A1.033,1.033,0,0,0,46,2H14A5,5,0,0,0,9,7V38h2V7a3.009,3.009,0,0,1,3-3H45V9a3.009,3.009,0,0,0,3,3h5V22h2V11a1.033,1.033,0,0,0-.29-.71ZM48,10a1,1,0,0,1-1-1V5.41L51.59,10Z" fill="#d85b1a"/>
    <path id="Path_61" data-name="Path 61" d="M29,9a1,1,0,0,0-1-1H18a1,1,0,0,0-1,1V19a1,1,0,0,0,1,1h3V18H19V10h8v1h2Z" fill="#d85b1a"/>
    <path id="Path_62" data-name="Path 62" d="M23,13h2v2H23Z" fill="#d85b1a"/>
    <path id="Path_63" data-name="Path 63" d="M27,13h2v2H27Z" fill="#d85b1a"/>
    <path id="Path_64" data-name="Path 64" d="M31,13h2v2H31Z" fill="#d85b1a"/>
    <path id="Path_65" data-name="Path 65" d="M31,17h2v2H31Z" fill="#d85b1a"/>
    <path id="Path_66" data-name="Path 66" d="M31,21h2v2H31Z" fill="#d85b1a"/>
    <path id="Path_67" data-name="Path 67" d="M27,21h2v2H27Z" fill="#d85b1a"/>
    <path id="Path_68" data-name="Path 68" d="M23,17h2v2H23Z" fill="#d85b1a"/>
    <path id="Path_69" data-name="Path 69" d="M23,21h2v2H23Z" fill="#d85b1a"/>
  </g>
</svg>
