<svg id="Layer_1" data-name="Layer 1" xmlns="http://www.w3.org/2000/svg" viewBox="0 0 20 20"><rect width="20" height="20" style="fill:none"/><path d="M11.14,3.13a3.4,3.4,0,0,0-.38.73,2,2,0,0,0-.13.87,2.47,2.47,0,0,0,.1.84,3.94,3.94,0,0,0,2.63,2.62,2.94,2.94,0,0,0,1,.1,2.58,2.58,0,0,0,1.06-.12A3,3,0,0,0,17,6.94a.6.6,0,0,0,.1-.2,1.69,1.69,0,0,0-.24.19,2.21,2.21,0,0,1-1,.51,4.16,4.16,0,0,1-2.35-.3A4,4,0,0,1,11.3,4.63a3.69,3.69,0,0,1,0-1.59,1.42,1.42,0,0,0,.07-.27S11.27,2.93,11.14,3.13Z"/><path d="M7.86,4a9.38,9.38,0,0,0-.53.82,4.73,4.73,0,0,0,0,4.14,6.3,6.3,0,0,0,2.94,3,4.92,4.92,0,0,0,2.49.55,4.93,4.93,0,0,0,4.17-1.83,6.7,6.7,0,0,0,.64-1.13,1.44,1.44,0,0,0-.27.26,4,4,0,0,1-1.24.91,4.71,4.71,0,0,1-2.41.49A6.25,6.25,0,0,1,8,6.66a5.5,5.5,0,0,1-.1-1.89A5.11,5.11,0,0,1,8.2,3.6c.05-.09.07-.16.06-.16S8.07,3.68,7.86,4Z"/><path d="M3.84,5.51a9.48,9.48,0,0,0-.73,1,6,6,0,0,0-.46,4.29,7.94,7.94,0,0,0,1.09,2.49,8.69,8.69,0,0,0,4.44,3.48,4.75,4.75,0,0,0,1.22.31,8.39,8.39,0,0,0,3.86-.3A6.75,6.75,0,0,0,17,13.71a3.62,3.62,0,0,0,.18-.33,2.25,2.25,0,0,0-.35.32,6.24,6.24,0,0,1-3.94,1.68,8.36,8.36,0,0,1-6.66-2.5A7.23,7.23,0,0,1,4.28,5.2a1,1,0,0,0,.11-.36S4.13,5.14,3.84,5.51Z"/></svg>