<svg xmlns="http://www.w3.org/2000/svg" width="65.085" height="60" viewBox="0 0 65.085 60">
  <g id="XMLID_996_" transform="translate(0 -20)">
    <g id="XMLID_41_" transform="translate(0 20)">
      <path id="XMLID_4218_" d="M310.212,128.364a1.271,1.271,0,0,0,1.8-1.8l-.017-.017a1.271,1.271,0,1,0-1.8,1.8Z" transform="translate(-270.438 -112.679)" fill="#d85b1a"/>
      <path id="XMLID_4221_" d="M60.282,47.712l4.431-4.431a1.271,1.271,0,0,0-.9-2.17H54.629a27.713,27.713,0,1,0-46.512,26.2,27.911,27.911,0,0,0,5.094,4.03L9.381,78.1A1.271,1.271,0,0,0,10.487,80h6.547a1.271,1.271,0,0,0,1.106-.645l2.708-4.784a28.047,28.047,0,0,0,13.728,0l2.708,4.784A1.271,1.271,0,0,0,38.39,80h6.547a1.271,1.271,0,0,0,1.106-1.9l-3.83-6.766a27.916,27.916,0,0,0,5.094-4.03,27.618,27.618,0,0,0,7.322-12.994h9.185a1.271,1.271,0,0,0,.9-2.17Zm-2.324-1.271H49.086l2.787-2.787h8.872ZM16.293,77.458H12.668l2.767-4.888a27.332,27.332,0,0,0,2.922,1.243Zm26.464,0H39.131l-2.064-3.646a27.332,27.332,0,0,0,2.922-1.243Zm2.753-11.948a25.283,25.283,0,0,1-5.574,4.215c-.025.012-.05.024-.075.037s-.029.019-.044.028a24.841,24.841,0,0,1-4.874,2.041,1.259,1.259,0,0,0-.2.057,25.416,25.416,0,0,1-14.067,0,1.264,1.264,0,0,0-.2-.057,24.839,24.839,0,0,1-4.874-2.041l-.044-.028c-.025-.014-.05-.025-.074-.037a25.28,25.28,0,0,1-5.574-4.216A25.169,25.169,0,1,1,52,41.111h-.658a1.271,1.271,0,0,0-.9.372l-3.374,3.374a19.585,19.585,0,0,0-2.216-6.6,1.271,1.271,0,1,0-2.226,1.229,16.88,16.88,0,0,1,2.053,6.957h-5.6a11.444,11.444,0,1,0,0,2.542h5.6a17.017,17.017,0,1,1-8.74-16.191,1.271,1.271,0,1,0,1.229-2.226A19.717,19.717,0,0,0,25.1,28.31,19.577,19.577,0,1,0,47.078,50.571l3.369,3.369a1.271,1.271,0,0,0,.9.372H52A25.088,25.088,0,0,1,45.509,65.509ZM31.864,45.315a1.271,1.271,0,0,0-1.736-.465l-3.051,1.761a1.271,1.271,0,0,0,0,2.2l3.051,1.761a1.27,1.27,0,0,0,1.807-1.591H36.52A8.83,8.83,0,0,1,34,54h0a8.9,8.9,0,1,1,2.516-7.563H31.934A1.268,1.268,0,0,0,31.864,45.315ZM51.873,51.77l-2.787-2.787h8.871l2.787,2.787Z" transform="translate(0 -20)" fill="#d85b1a"/>
    </g>
  </g>
</svg>
