<svg xmlns="http://www.w3.org/2000/svg" width="60" height="60" viewBox="0 0 60 60">
  <g id="Outline" transform="translate(-16 -16)">
    <path id="Path_33" data-name="Path 33" d="M42,173a3,3,0,0,1,3-3H56v-2H45a5.006,5.006,0,0,0-5,5v6h2Z" transform="translate(-21 -133)" fill="#d85b1a"/>
    <path id="Path_34" data-name="Path 34" d="M219.5,88a3.5,3.5,0,1,0,3.5,3.5A3.5,3.5,0,0,0,219.5,88Zm0,5a1.5,1.5,0,1,1,1.5-1.5A1.5,1.5,0,0,1,219.5,93Z" transform="translate(-175 -63)" fill="#d85b1a"/>
    <path id="Path_35" data-name="Path 35" d="M222,16H200.831a6.031,6.031,0,0,0-5.145,2.913L194.434,21H187a3,3,0,0,0-3,3V42a3,3,0,0,0,3,3h6v4a1,1,0,0,0,1.64.768L200.363,45H214a3,3,0,0,0,3-3V27.806a10.686,10.686,0,0,0,5.567-2.958l.141-.14A1,1,0,0,0,223,24V17A1,1,0,0,0,222,16Zm-7,26a1,1,0,0,1-1,1H200a1,1,0,0,0-.64.232L195,46.865V44a1,1,0,0,0-1-1h-7a1,1,0,0,1-1-1V40.566l8.972-5.383,8.474,5.649a1,1,0,0,0,1,.063l5.481-2.741L215,41.535Zm0-2.868-4.445-2.964a1,1,0,0,0-1-.062l-5.481,2.741-8.517-5.678a1,1,0,0,0-1.069-.025L186,38.234V24a1,1,0,0,1,1-1h15.586l-3.275,3.275a3.475,3.475,0,1,0,4.914,4.914l4.9-4.9A10.728,10.728,0,0,0,214.956,28H215Zm6-15.549a8.763,8.763,0,0,1-10.9.946l-.54-.36a1,1,0,0,0-1.262.125l-5.482,5.482a1.475,1.475,0,1,1-2.086-2.085l4.982-4.982,2-2-1.414-1.415L204.586,21h-7.82l.635-1.058A4.02,4.02,0,0,1,200.831,18H221Z" transform="translate(-147)" fill="#d85b1a"/>
    <path id="Path_36" data-name="Path 36" d="M297,272H279a3,3,0,0,0-3,3v5.586l-3.707,3.707A1,1,0,0,0,273,286h3v1a3,3,0,0,0,3,3h18a3,3,0,0,0,3-3V275A3,3,0,0,0,297,272Zm1,15a1,1,0,0,1-1,1H279a1,1,0,0,1-1-1v-2a1,1,0,0,0-1-1h-1.586l2.293-2.293A1,1,0,0,0,278,281v-6a1,1,0,0,1,1-1h18a1,1,0,0,1,1,1Z" transform="translate(-224 -224)" fill="#d85b1a"/>
    <path id="Path_37" data-name="Path 37" d="M336,304h10v2H336Z" transform="translate(-280 -252)" fill="#d85b1a"/>
    <path id="Path_38" data-name="Path 38" d="M432,304h4v2h-4Z" transform="translate(-364 -252)" fill="#d85b1a"/>
    <path id="Path_39" data-name="Path 39" d="M336,368h16v2H336Z" transform="translate(-280 -308)" fill="#d85b1a"/>
    <path id="Path_40" data-name="Path 40" d="M336,336h16v2H336Z" transform="translate(-280 -280)" fill="#d85b1a"/>
    <path id="Path_41" data-name="Path 41" d="M72,200h2v2H72Z" transform="translate(-49 -161)" fill="#d85b1a"/>
    <path id="Path_42" data-name="Path 42" d="M104,200h2v2h-2Z" transform="translate(-77 -161)" fill="#d85b1a"/>
    <path id="Path_43" data-name="Path 43" d="M136,200h2v2h-2Z" transform="translate(-105 -161)" fill="#d85b1a"/>
    <path id="Path_44" data-name="Path 44" d="M72,232H84v2H72Z" transform="translate(-49 -189)" fill="#d85b1a"/>
    <path id="Path_45" data-name="Path 45" d="M19,290H37a3,3,0,0,0,3-3v-4h3a1,1,0,0,0,.707-1.707L40,277.586V275a3,3,0,0,0-3-3H19a3,3,0,0,0-3,3v12A3,3,0,0,0,19,290Zm-1-15a1,1,0,0,1,1-1H37a1,1,0,0,1,1,1v3a1,1,0,0,0,.293.707L40.586,281H39a1,1,0,0,0-1,1v5a1,1,0,0,1-1,1H19a1,1,0,0,1-1-1Z" transform="translate(0 -224)" fill="#d85b1a"/>
    <path id="Path_46" data-name="Path 46" d="M48,304h2v2H48Z" transform="translate(-28 -252)" fill="#d85b1a"/>
    <path id="Path_47" data-name="Path 47" d="M48,336h2v2H48Z" transform="translate(-28 -280)" fill="#d85b1a"/>
    <path id="Path_48" data-name="Path 48" d="M48,368h2v2H48Z" transform="translate(-28 -308)" fill="#d85b1a"/>
    <path id="Path_49" data-name="Path 49" d="M80,304H92v2H80Z" transform="translate(-56 -252)" fill="#d85b1a"/>
    <path id="Path_50" data-name="Path 50" d="M80,336H92v2H80Z" transform="translate(-56 -280)" fill="#d85b1a"/>
    <path id="Path_51" data-name="Path 51" d="M80,368H92v2H80Z" transform="translate(-56 -308)" fill="#d85b1a"/>
    <path id="Path_52" data-name="Path 52" d="M67,432H49.414a4.385,4.385,0,0,0-3.121,1.293,2.4,2.4,0,0,1-1.707.707H39.414a2.4,2.4,0,0,1-1.707-.707A4.385,4.385,0,0,0,34.586,432H17a1,1,0,0,0-1,1v3a4,4,0,0,0,4,4H64a4,4,0,0,0,4-4v-3A1,1,0,0,0,67,432Zm-1,4a2,2,0,0,1-2,2H20a2,2,0,0,1-2-2v-2H34.586a2.4,2.4,0,0,1,1.707.707A4.385,4.385,0,0,0,39.414,436h5.172a4.385,4.385,0,0,0,3.121-1.293A2.4,2.4,0,0,1,49.414,434H66Z" transform="translate(0 -364)" fill="#d85b1a"/>
  </g>
</svg>
