<svg id="Layer_1" data-name="Layer 1" xmlns="http://www.w3.org/2000/svg" viewBox="0 0 432.35 275.3"><path d="M64.5,403.64H56.69a14.07,14.07,0,0,1-14.07-14.08V199.36a14.55,14.55,0,0,1,14.54-14.55h9.28a25.68,25.68,0,0,1,25.68,25.68V376A27.63,27.63,0,0,1,64.5,403.64Z" transform="translate(-42.62 -156.57)"/><path d="M133.35,231.56V400.74a15.86,15.86,0,0,0,10.88,15.05c13.12,4.34,38.81,11.19,80.92,16,.6.06,1.21.1,1.82.1h63.55a15.52,15.52,0,0,0,2.26-.16c6.68-1,36.49-7.15,34.13-39.82a15.73,15.73,0,0,1,7.37-14.39c8.54-5.39,19.77-15.94,17.31-33.36a15.35,15.35,0,0,1,7.32-15.48c7.53-4.42,16.43-12.82,16.91-28a15.77,15.77,0,0,1,15.82-15.16h47.12s22.26,0,32.31-18.92a35.19,35.19,0,0,0,3.21-23.18c-2.14-11.1-8.87-27.71-29.88-30.27a14.4,14.4,0,0,0-1.86-.1H327.68a15.84,15.84,0,0,1-11.2-4.64l-36.3-36.31a63.37,63.37,0,0,0-40-15.53,59.9,59.9,0,0,0-39.68,14.3c-.28.24-.56.48-.85.71l-60.27,47.53A15.88,15.88,0,0,0,133.35,231.56Z" transform="translate(-42.62 -156.57)"/></svg>