<svg id="Layer_1" data-name="Layer 1" xmlns="http://www.w3.org/2000/svg" viewBox="0 0 20 20"><rect width="20" height="20" style="fill:none"/><path d="M12.2,2.87l.74.52.92-.51.92-.51H11.45Z"/><path d="M14.36,2.92l-1,.57s.59.1,1.32.2l2.1.3.78.1a1.79,1.79,0,0,0-.29-.61,2.41,2.41,0,0,0-.85-.76,3.52,3.52,0,0,0-.9-.32l-.13,0Z"/><path d="M10.46,2.84A7.92,7.92,0,0,0,6.89,4.48,10.75,10.75,0,0,0,5.57,5.64,11.09,11.09,0,0,0,3.42,8.55a4.63,4.63,0,0,0-.58,2.08,1.61,1.61,0,0,0,.22.92,1.45,1.45,0,0,0,1.42.61,4.18,4.18,0,0,0,1.9-.48,10.91,10.91,0,0,0,2.72-2,12.86,12.86,0,0,0,2.06-2.38,6.55,6.55,0,0,0,1.09-2.57,2.54,2.54,0,0,0,0-.88,1.28,1.28,0,0,0-1-1A3.56,3.56,0,0,0,10.46,2.84Z"/><path d="M13.43,3.76c.32.27,4,3.26,4,3.25a3,3,0,0,0,.14-.5c.05-.21.1-.5.13-.74a6.85,6.85,0,0,0,0-1.11,1,1,0,0,0-.08-.34l-.53-.07-2.53-.36-1.13-.16S13.41,3.75,13.43,3.76Z"/><path d="M12.46,5.58c-.31,1-.56,1.79-.56,1.81s0,0,.11,0l2.52-.17L17,7.06s0-.08-.39-.36l-3.5-2.86L13,3.8Z"/><path d="M14.64,7.54l-2.54.18s.31.21.75.48l1.9,1.17,1.18.72.06,0,.1-.16a13.31,13.31,0,0,0,1.2-2.47l0-.13h-.09Z"/><path d="M17.44,8a16.32,16.32,0,0,1-1.1,2.06l-.18.3L16.54,13c.21,1.44.39,2.62.39,2.63s.15-1.75.31-3.89.29-3.9.29-3.9Z"/><path d="M10.26,9.18,7.5,11.75S13,13.52,13,13.51,11.6,8,11.58,8,11,8.52,10.26,9.18Z"/><path d="M12,8.1s.31,1.22.68,2.68l.68,2.67a18.86,18.86,0,0,0,1.41-1.69,15.89,15.89,0,0,0,1-1.4l-.37-.23-.95-.58L12.57,8.42,12,8.08Z"/><path d="M15.83,10.87a25.5,25.5,0,0,1-2.05,2.62c-.2.23-.25.29-.24.3l1.62,1.44,1.63,1.43s-.84-5.77-.86-5.87v0Z"/><path d="M2.42,10.92c0,.05,0,.78-.06,1.63s0,1.55,0,1.56.8-1.45.8-1.46-.68-1.78-.69-1.8Z"/><path d="M7.44,12s.5,1,1.12,2.17l1.12,2.17.1-.06a14.77,14.77,0,0,0,2.1-1.46,9.63,9.63,0,0,0,1.12-1,2.39,2.39,0,0,0-.33-.12l-1-.33L10.4,13l-1.73-.56L7.45,12Z"/><path d="M5.18,12.41l-1.77.39,2,4.59S6.93,12.29,7,12.06a0,0,0,0,0,0,0Z"/><path d="M6.43,14.9c-.46,1.51-.82,2.75-.82,2.75a7.07,7.07,0,0,0,.85-.13,10.51,10.51,0,0,0,2.07-.65,6.32,6.32,0,0,0,.94-.47s-2.19-4.24-2.2-4.24S6.89,13.39,6.43,14.9Z"/><path d="M3.31,13.24S3,16.69,3,16.76s0,.08.12.17a2.18,2.18,0,0,0,1.76.66.6.6,0,0,0,.23,0c0-.05-1.14-2.83-1.53-3.73C3.34,13.24,3.32,13.2,3.31,13.24Z"/><path d="M2.65,14.06l-.36.66v.15A4.55,4.55,0,0,0,2.51,16a3.41,3.41,0,0,0,.23.49S3,13.41,3,13.41,2.84,13.7,2.65,14.06Z"/><path d="M13.07,14.1a20.09,20.09,0,0,1-2.69,2.11l-.22.15,6.41.5s-.37-.34-2.52-2.24a6.07,6.07,0,0,0-.78-.67S13.18,14,13.07,14.1Z"/><path d="M9.37,16.78a9.93,9.93,0,0,1-1.52.65c-.17.06-.24.1-.21.1L11,17.31l1.52-.11,1.64-.11L15,17a6.09,6.09,0,0,0-1.17-.11l-1.51-.12-.82-.06-1.29-.1-.45,0A1.3,1.3,0,0,0,9.37,16.78Z"/></svg>