<svg xmlns="http://www.w3.org/2000/svg" width="60" height="60" viewBox="0 0 60 60">
  <g id="search" transform="translate(0 0)">
    <path id="Path_70" data-name="Path 70" d="M51.881,50.512A29.945,29.945,0,0,0,51.871,9.5l2.047-2.047a2.857,2.857,0,0,0,1.244.291,2.9,2.9,0,1,0-2.9-2.9,2.857,2.857,0,0,0,.291,1.244L50.5,8.129a29.938,29.938,0,0,0-36.829-3.29h-9.8A3.875,3.875,0,0,0,0,8.71V51.291a3.875,3.875,0,0,0,3.871,3.871h9.791a29.968,29.968,0,0,0,32.494.1L49.8,58.914a3.7,3.7,0,1,0,5.239-5.239ZM55.162,3.871a.968.968,0,1,1-.968.968A.97.97,0,0,1,55.162,3.871ZM30,1.936A27.96,27.96,0,0,1,49.135,9.5L46.729,11.9a2.844,2.844,0,0,0-2.925.255l-5.21-3.647a2.876,2.876,0,0,0,.116-.769,2.9,2.9,0,1,0-2.9,2.9,2.878,2.878,0,0,0,1.681-.545l5.21,3.647a2.876,2.876,0,0,0-.116.769,2.9,2.9,0,0,0,5.806,0,2.857,2.857,0,0,0-.291-1.244L50.5,10.866a28.011,28.011,0,0,1,.009,38.277L44.2,42.835a15.348,15.348,0,0,0,2.2-7.028h9.727V33.871H54.194V18.387H48.387V33.871H46.452V24.194H40.646v9.677H38.71V18.387H32.9v1.1a15.768,15.768,0,0,0-1.935-.135V8.71A3.875,3.875,0,0,0,27.1,4.839H17.588A27.953,27.953,0,0,1,30,1.936ZM46.452,14.516a.968.968,0,1,1-.968-.968A.97.97,0,0,1,46.452,14.516ZM36.775,7.742a.968.968,0,1,1-.968-.968A.97.97,0,0,1,36.775,7.742ZM15.533,35.807H5.807V26.129h12.37a15.389,15.389,0,0,0-2.692,8.71c0,.327.029.646.049.968ZM30.968,21.291a13.738,13.738,0,0,1,1.935.154v1.949a11.77,11.77,0,0,0-1.935-.167A11.613,11.613,0,1,0,42.532,35.807h1.935a13.541,13.541,0,1,1-13.5-14.516ZM40.6,35.807A9.783,9.783,0,1,1,32.9,25.378v8.493H30.968v1.935Zm-5.757-1.935V20.323h1.935V33.871Zm7.742,0V26.129h1.935v7.742Zm7.742,0V20.323h1.935V33.871ZM1.936,8.71A1.937,1.937,0,0,1,3.871,6.775H27.1A1.937,1.937,0,0,1,29.033,8.71v3.871H1.936Zm0,5.806h27.1V19.49a15.437,15.437,0,0,0-9.28,4.7H3.871V37.742h11.9a15.381,15.381,0,0,0,.5,1.935H3.871v1.935H17.066a15.57,15.57,0,0,0,2.687,3.871H1.936Zm1.935,38.71a1.937,1.937,0,0,1-1.935-1.935V47.42h20.04a15.368,15.368,0,0,0,7.057,2.769v1.1A1.937,1.937,0,0,1,27.1,53.226ZM30,58.065a27.968,27.968,0,0,1-12.407-2.9h9.5a3.875,3.875,0,0,0,3.871-3.871v-.968a15.365,15.365,0,0,0,8-2.249L44.75,53.86A27.935,27.935,0,0,1,30,58.065Zm22.423,0a1.758,1.758,0,0,1-1.251-.519L40.582,46.955a15.592,15.592,0,0,0,2.5-2.5L53.676,55.044a1.77,1.77,0,0,1-1.252,3.02Zm0,0" fill="#d85b1a"/>
    <path id="Path_71" data-name="Path 71" d="M88,408h9.677v1.935H88Zm0,0" transform="translate(-77.355 -358.645)" fill="#d85b1a"/>
    <path id="Path_72" data-name="Path 72" d="M32,136h1.935v1.935H32Zm0,0" transform="translate(-28.129 -119.548)" fill="#d85b1a"/>
    <path id="Path_73" data-name="Path 73" d="M64,136h1.935v1.935H64Zm0,0" transform="translate(-56.258 -119.548)" fill="#d85b1a"/>
    <path id="Path_74" data-name="Path 74" d="M96,136h1.935v1.935H96Zm0,0" transform="translate(-84.387 -119.548)" fill="#d85b1a"/>
    <path id="Path_75" data-name="Path 75" d="M128,136h11.613v1.935H128Zm0,0" transform="translate(-112.516 -119.548)" fill="#d85b1a"/>
    <path id="Path_76" data-name="Path 76" d="M32,168H43.613v1.935H32Zm0,0" transform="translate(-28.129 -147.677)" fill="#d85b1a"/>
    <path id="Path_77" data-name="Path 77" d="M144,168h1.935v1.935H144Zm0,0" transform="translate(-126.58 -147.677)" fill="#d85b1a"/>
  </g>
</svg>
