<svg xmlns="http://www.w3.org/2000/svg" width="25.748" height="25.748" viewBox="0 0 25.748 25.748">
  <path id="star" d="M25.681,10.221A1.379,1.379,0,0,0,24.5,9.239l-7.432-.7L14.133,1.358a1.347,1.347,0,0,0-2.517,0L8.677,8.535l-7.433.7a1.382,1.382,0,0,0-1.177.982,1.467,1.467,0,0,0,.4,1.517l5.617,5.141L4.429,24.493a1.459,1.459,0,0,0,.532,1.474,1.313,1.313,0,0,0,1.5.068l6.41-4,6.408,4a1.316,1.316,0,0,0,1.5-.068,1.46,1.46,0,0,0,.532-1.474l-1.656-7.614,5.617-5.14a1.469,1.469,0,0,0,.4-1.518Zm0,0" transform="translate(0 -0.491)" fill="#ffc107"/>
</svg>
