<svg xmlns="http://www.w3.org/2000/svg" width="29.531" height="24" viewBox="0 0 29.531 24">
  <path id="twitter" d="M9.369,20.176c11.144,0,17.239-9.233,17.239-17.239q0-.393-.017-.783A12.33,12.33,0,0,0,29.613-.983a12.088,12.088,0,0,1-3.479.954A6.082,6.082,0,0,0,28.8-3.381,12.152,12.152,0,0,1,24.95-1.91,6.064,6.064,0,0,0,14.625,3.615,17.2,17.2,0,0,1,2.137-2.715,6.044,6.044,0,0,0,1.316.33a6.054,6.054,0,0,0,2.7,5.043,6.012,6.012,0,0,1-2.744-.758c0,.025,0,.05,0,.077a6.06,6.06,0,0,0,4.861,5.939,6.081,6.081,0,0,1-1.6.213,6.021,6.021,0,0,1-1.139-.109,6.065,6.065,0,0,0,5.66,4.208,12.155,12.155,0,0,1-7.525,2.594,12.33,12.33,0,0,1-1.445-.084,17.151,17.151,0,0,0,9.287,2.722" transform="translate(-0.082 3.824)" fill="#b1aeac"/>
</svg>
