<svg xmlns="http://www.w3.org/2000/svg" width="60" height="49.355" viewBox="0 0 60 49.355">
  <g id="website-design" transform="translate(-8 -56)">
    <path id="Path_24" data-name="Path 24" d="M64.129,56H11.871A3.876,3.876,0,0,0,8,59.871v32.9a3.876,3.876,0,0,0,3.871,3.871H31.819l-1.291,3.871H27.355a.968.968,0,0,0-.968.968v1.935h-8.71a.968.968,0,0,0,0,1.935H60.258a.968.968,0,0,0,0-1.935H49.613v-1.935a.968.968,0,0,0-.968-.968H45.472l-1.291-3.871H64.129A3.876,3.876,0,0,0,68,92.774v-32.9A3.876,3.876,0,0,0,64.129,56ZM47.677,102.452v.968H28.323v-.968Zm-15.109-1.935,1.291-3.871h8.281l1.291,3.871Zm33.5-7.742a1.938,1.938,0,0,1-1.935,1.935H11.871a1.938,1.938,0,0,1-1.935-1.935V90.839H66.065ZM24.41,80.194l-.363,8.71H22.92l-.363-8.71Zm-1.72-1.935.646-3.871h.3l.646,3.871Zm.794-5.806c-1.049,0-1.935-1.329-1.935-2.9,0-.993,1.014-2.436,1.933-3.454.829.919,1.938,2.389,1.938,3.454C25.419,71.122,24.533,72.452,23.484,72.452Zm10.531-1.935.114.229v.739H30.258v-.739l.114-.229ZM31.34,68.581l.854-1.707.854,1.707Zm2.79,4.839V88.782a1,1,0,0,0,.008.121H30.25a1,1,0,0,0,.008-.121V73.419Zm8.71-3.871h2.9v1.935h-.968a.968.968,0,0,0,0,1.935h.968v1.935h-2.9a.968.968,0,1,0,0,1.935h2.9v1.935h-.968a.968.968,0,0,0,0,1.936h.968V83.1h-2.9a.968.968,0,1,0,0,1.935h2.9V88.9H38.968V65.677h6.774v1.935h-2.9a.968.968,0,1,0,0,1.935ZM54.452,81.161v7.621a1,1,0,0,0,.008.121H50.572a1,1,0,0,0,.008-.121V81.161Zm-3.871-1.936v-.739l1.935-3.871,1.935,3.871v.739ZM66.065,88.9H56.379a1,1,0,0,0,.008-.121V78.258a.977.977,0,0,0-.1-.433l-2.9-5.806a.969.969,0,0,0-1.732,0l-2.9,5.806a.978.978,0,0,0-.1.433V88.782a1,1,0,0,0,.008.121h-.976V64.71a.968.968,0,0,0-.968-.968H38a.968.968,0,0,0-.968.968V88.9h-.976a1,1,0,0,0,.008-.121V70.516a.978.978,0,0,0-.1-.433l-2.9-5.806a.969.969,0,0,0-1.732,0l-2.9,5.806a.978.978,0,0,0-.1.433V88.782a1,1,0,0,0,.008.121H25.984l.4-9.637c0-.022,0-.044,0-.067V79.17a.969.969,0,0,0-.012-.1v0l-.9-5.372a5.182,5.182,0,0,0,1.876-4.146c0-2.487-2.883-5.242-3.212-5.548a.97.97,0,0,0-1.319,0c-.329.306-3.212,3.06-3.212,5.548a5.182,5.182,0,0,0,1.876,4.146l-.9,5.372v0a.969.969,0,0,0-.012.1V79.2c0,.023,0,.045,0,.067l.4,9.637H9.935V59.871a1.938,1.938,0,0,1,1.935-1.935H64.129a1.938,1.938,0,0,1,1.935,1.935Z" transform="translate(0 0)" fill="#d85b1a"/>
    <path id="Path_25" data-name="Path 25" d="M46.774,352H40.968a.968.968,0,1,0,0,1.935h5.806a.968.968,0,1,0,0-1.935Z" transform="translate(-28.129 -260.194)" fill="#d85b1a"/>
    <path id="Path_26" data-name="Path 26" d="M113.935,352h-.968a.968.968,0,0,0,0,1.935h.968a.968.968,0,1,0,0-1.935Z" transform="translate(-91.419 -260.194)" fill="#d85b1a"/>
    <path id="Path_27" data-name="Path 27" d="M200.968,208a.968.968,0,0,0-.968.968v10.645a.968.968,0,0,0,1.936,0V208.968A.968.968,0,0,0,200.968,208Z" transform="translate(-168.774 -133.613)" fill="#d85b1a"/>
    <path id="Path_28" data-name="Path 28" d="M368.968,272a.968.968,0,0,0-.968.968v2.9a.968.968,0,1,0,1.935,0v-2.9A.968.968,0,0,0,368.968,272Z" transform="translate(-316.452 -189.871)" fill="#d85b1a"/>
    <path id="Path_29" data-name="Path 29" d="M40.968,89.935H48.71a.968.968,0,1,0,0-1.935H40.968a.968.968,0,0,0,0,1.935Z" transform="translate(-28.129 -28.129)" fill="#d85b1a"/>
    <path id="Path_30" data-name="Path 30" d="M40.968,113.935H42.9a.968.968,0,1,0,0-1.935H40.968a.968.968,0,1,0,0,1.935Z" transform="translate(-28.129 -49.226)" fill="#d85b1a"/>
    <path id="Path_31" data-name="Path 31" d="M424.968,297.935h3.871a.968.968,0,0,0,0-1.935h-3.871a.968.968,0,1,0,0,1.935Z" transform="translate(-365.677 -210.968)" fill="#d85b1a"/>
    <path id="Path_32" data-name="Path 32" d="M448.968,273.935h.968a.968.968,0,1,0,0-1.935h-.968a.968.968,0,0,0,0,1.935Z" transform="translate(-386.774 -189.871)" fill="#d85b1a"/>
  </g>
</svg>
