<svg xmlns="http://www.w3.org/2000/svg" width="34.278" height="24" viewBox="0 0 34.278 24">
  <path id="youtube" d="M33.572-2.327a4.294,4.294,0,0,0-3.021-3.021c-2.682-.734-13.412-.734-13.412-.734s-10.729,0-13.412.706A4.381,4.381,0,0,0,.707-2.327,45.249,45.249,0,0,0,0,5.918a45.083,45.083,0,0,0,.706,8.245,4.3,4.3,0,0,0,3.021,3.021c2.71.734,13.412.734,13.412.734s10.729,0,13.412-.706a4.3,4.3,0,0,0,3.021-3.021,45.264,45.264,0,0,0,.706-8.245s.028-5.591-.706-8.273ZM13.723,11.057V.779l8.922,5.139Zm0,0" transform="translate(-0.001 6.082)" fill="#b1aeac"/>
</svg>
